<?xml version="1.0" encoding="UTF-8" standalone="no"?>
<!-- Created with Inkscape (http://www.inkscape.org/) -->

<svg
   xmlns:dc="http://purl.org/dc/elements/1.1/"
   xmlns:cc="http://creativecommons.org/ns#"
   xmlns:rdf="http://www.w3.org/1999/02/22-rdf-syntax-ns#"
   xmlns:svg="http://www.w3.org/2000/svg"
   xmlns="http://www.w3.org/2000/svg"
   xmlns:sodipodi="http://sodipodi.sourceforge.net/DTD/sodipodi-0.dtd"
   xmlns:inkscape="http://www.inkscape.org/namespaces/inkscape"
   sodipodi:docname="an-example-sketch-of-a-gradient-function.svg"
   inkscape:version="0.92.4 5da689c313, 2019-01-14"
   id="svg8"
   version="1.1"
   viewBox="0 0 240 120"
   height="120mm"
   width="240mm">
  <defs
     id="defs2">
    <inkscape:path-effect
       effect="bspline"
       id="path-effect1676"
       is_visible="true"
       weight="33.333333"
       steps="2"
       helper_size="0"
       apply_no_weight="true"
       apply_with_weight="true"
       only_selected="false" />
    <clipPath
       id="clipPath">
      <rect
         y="202.55009"
         x="14.675479"
         height="58.137489"
         width="92.38028"
         id="rect816"
         style="opacity:1;fill:none;fill-opacity:1;stroke:#000000;stroke-width:0.26458332;stroke-miterlimit:4;stroke-dasharray:none;stroke-dashoffset:0;stroke-opacity:1" />
    </clipPath>
    <clipPath
       id="clipPathS">
      <rect
         y="203.02046"
         x="133.11415"
         height="58.137489"
         width="92.38028"
         id="rect816-3"
         style="opacity:1;fill:none;fill-opacity:1;stroke:#000000;stroke-width:0.26458332;stroke-miterlimit:4;stroke-dasharray:none;stroke-dashoffset:0;stroke-opacity:1" />
    </clipPath>
  </defs>
  <sodipodi:namedview
     id="base"
     pagecolor="#ffffff"
     bordercolor="#666666"
     borderopacity="1.0"
     inkscape:pageopacity="0.0"
     inkscape:pageshadow="2"
     inkscape:zoom="1.9887478"
     inkscape:cx="473.29128"
     inkscape:cy="295.61501"
     inkscape:document-units="mm"
     inkscape:current-layer="layer1"
     showgrid="false"
     showborder="true"
     width="200mm"
     showguides="true"
     inkscape:guide-bbox="true"
     inkscape:window-width="2960"
     inkscape:window-height="1890"
     inkscape:window-x="20"
     inkscape:window-y="90"
     inkscape:window-maximized="0">
    <inkscape:grid
       type="xygrid"
       id="grid815"
       units="mm"
       spacingx="10"
       spacingy="10"
       empspacing="4"
       dotted="false" />
  </sodipodi:namedview>
  <metadata
     id="metadata5">
    <rdf:RDF>
      <cc:Work
         rdf:about="">
        <dc:format>image/svg+xml</dc:format>
        <dc:type
           rdf:resource="http://purl.org/dc/dcmitype/StillImage" />
        <dc:title />
      </cc:Work>
    </rdf:RDF>
  </metadata>
  <g
     inkscape:label="Layer 1"
     inkscape:groupmode="layer"
     id="layer1"
     transform="translate(0,-177)">
    <rect
       y="202.55009"
       x="14.675479"
       height="58.137489"
       width="92.38028"
       id="rect1639"
       style="opacity:1;fill:none;fill-opacity:1;stroke:#000000;stroke-width:0.26458332;stroke-miterlimit:4;stroke-dasharray:none;stroke-dashoffset:0;stroke-opacity:1" />
    <rect
       y="203.02046"
       x="133.11415"
       height="58.137489"
       width="92.38028"
       id="rect1660"
       style="opacity:1;fill:none;fill-opacity:1;stroke:#000000;stroke-width:0.26458332;stroke-miterlimit:4;stroke-dasharray:none;stroke-dashoffset:0;stroke-opacity:1" />
    <path
       id="path1642"
       clip-path="url(#clipPath)"
       title="0"
       d="M 14.675479 231.6188345 l 92.38028 0 M 60.865619 260.687579 l 0 -58.137489 M 14.675479 231.6188345 L 14.675479 231.6188345 C 14.9865237138 231.6188345 15.2975684276 231.6188345 15.6086131414 231.6188345 C 15.9196578552 231.6188345 16.230702569 231.6188345 16.5417472828 231.6188345 C 16.8527919966 231.6188345 17.1638367104 231.6188345 17.4748814242 231.6188345 C 17.785926138 231.6188345 18.0969708519 231.6188345 18.4080155657 231.6188345 C 18.7190602795 231.6188345 19.0301049933 231.6188345 19.3411497071 231.6188345 C 19.6521944209 231.6188345 19.9632391347 231.6188345 20.2742838485 231.6188345 C 20.5853285623 231.6188345 20.8963732761 231.6188345 21.2074179899 231.6188345 C 21.5184627037 231.6188345 21.8295074175 231.6188345 22.1405521313 231.6188345 C 22.4515968451 231.6188345 22.7626415589 231.6188345 23.0736862727 231.6188345 C 23.3847309865 231.6188345 23.6957757003 231.6188345 24.0068204141 231.6188345 C 24.3178651279 231.6188345 24.6289098418 231.6188345 24.9399545556 231.6188345 C 25.2509992694 231.6188345 25.5620439832 231.6188345 25.873088697 231.6188345 C 26.1841334108 231.6188345 26.4951781246 231.6188345 26.8062228384 231.6188345 C 27.1172675522 231.6188345 27.428312266 231.6188345 27.7393569798 231.6188345 C 28.0504016936 231.6188345 28.3614464074 231.6188345 28.6724911212 231.6188345 C 28.983535835 231.6188345 29.2945805488 231.6188345 29.6056252626 231.6188345 C 29.9166699764 231.6188345 30.2277146902 231.6188345 30.538759404 231.6188345 C 30.8498041178 231.6188345 31.1608488316 231.6188345 31.4718935455 231.6188345 C 31.7829382593 231.6188345 32.0939829731 231.6188345 32.4050276869 231.6188345 C 32.7160724007 231.6188345 33.0271171145 231.6188345 33.3381618283 231.6188345 C 33.6492065421 231.6188345 33.9602512559 231.6188345 34.2712959697 231.6188345 C 34.5823406835 231.6188345 34.8933853973 231.6188345 35.2044301111 231.6188345 C 35.5154748249 231.6188345 35.8265195387 231.6188345 36.1375642525 231.6188345 C 36.4486089663 231.6188345 36.7596536801 231.6188345 37.0706983939 231.6188345 C 37.3817431077 231.6188345 37.6927878215 231.6188345 38.0038325354 231.6188345 C 38.3148772492 231.6188345 38.625921963 231.6188345 38.9369666768 231.6188345 C 39.2480113906 231.6188345 39.5590561044 231.6188345 39.8701008182 231.6188345 C 40.181145532 231.6188345 40.4921902458 231.6188345 40.8032349596 231.6188345 C 41.1142796734 231.6188345 41.4253243872 231.6188345 41.736369101 231.6188345 C 42.0474138148 231.6188345 42.3584585286 231.6188345 42.6695032424 231.6188345 C 42.9805479562 231.6188345 43.29159267 231.6188345 43.6026373838 231.6188345 C 43.9136820976 231.6188345 44.2247268114 231.6188345 44.5357715253 231.6188345 C 44.8468162391 231.6188345 45.1578609529 231.6188345 45.4689056667 231.6188345 C 45.7799503805 231.6188345 46.0909950943 231.6188345 46.4020398081 231.6188345 C 46.7130845219 231.6188345 47.0241292357 231.6188345 47.3351739495 231.6188345 C 47.6462186633 231.6188345 47.9572633771 231.6188345 48.2683080909 231.6188345 C 48.5793528047 231.6188345 48.8903975185 231.6188345 49.2014422323 231.6188345 C 49.5124869461 231.6188345 49.8235316599 231.6188345 50.1345763737 231.6188345 C 50.4456210875 231.6188345 50.7566658013 231.6188345 51.0677105152 231.6188345 C 51.378755229 231.6188345 51.6897999428 231.6188345 52.0008446566 231.6188345 C 52.3118893704 231.6188345 52.6229340842 231.6188345 52.933978798 231.6188345 C 53.2450235118 231.6188345 53.5560682256 231.6188345 53.8671129394 231.6188345 C 54.1781576532 231.6188345 54.489202367 231.6188345 54.8002470808 231.6188345 C 55.1112917946 231.6188345 55.4223365084 231.6188345 55.7333812222 231.6188345 C 56.044425936 231.6188345 56.3554706498 231.6188345 56.6665153636 231.6188345 C 56.9775600774 231.6188345 57.2886047912 231.6188345 57.5996495051 231.6188345 C 57.9106942189 231.6188345 58.2217389327 231.6188345 58.5327836465 231.6188345 C 58.8438283603 231.6188345 59.1548730741 231.6188345 59.4659177879 231.6188345 C 59.7769625017 231.6188345 60.0880072155 231.6188345 60.3990519293 231.6188345 C 60.7100966431 231.6188345 61.0211413569 231.6188345 61.3321860707 231.6188345 C 61.6432307845 231.6188345 61.9542754983 231.6188345 62.2653202121 231.6188345 C 62.5763649259 231.6188345 62.8874096397 231.6188345 63.1984543535 231.6188345 C 63.5094990673 231.6188345 63.8205437811 231.6188345 64.1315884949 231.6188345 C 64.4426332088 231.6188345 64.7536779226 231.6188345 65.0647226364 231.6188345 C 65.3757673502 231.6188345 65.686812064 231.6188345 65.9978567778 231.6188345 C 66.3089014916 231.6188345 66.6199462054 231.6188345 66.9309909192 231.6188345 C 67.242035633 231.6188345 67.5530803468 231.6188345 67.8641250606 231.6188345 C 68.1751697744 231.6188345 68.4862144882 231.6188345 68.797259202 231.6188345 C 69.1083039158 231.6188345 69.4193486296 231.6188345 69.7303933434 231.6188345 C 70.0414380572 231.6188345 70.352482771 231.6188345 70.6635274848 231.6188345 C 70.9745721987 231.6188345 71.2856169125 231.6188345 71.5966616263 231.6188345 C 71.9077063401 231.6188345 72.2187510539 231.6188345 72.5297957677 231.6188345 C 72.8408404815 231.6188345 73.1518851953 231.6188345 73.4629299091 231.6188345 C 73.7739746229 231.6188345 74.0850193367 231.6188345 74.3960640505 231.6188345 C 74.7071087643 231.6188345 75.0181534781 231.6188345 75.3291981919 231.6188345 C 75.6402429057 231.6188345 75.9512876195 231.6188345 76.2623323333 231.6188345 C 76.5733770471 231.6188345 76.8844217609 231.6188345 77.1954664747 231.6188345 C 77.5065111886 231.6188345 77.8175559024 231.6188345 78.1286006162 231.6188345 C 78.43964533 231.6188345 78.7506900438 231.6188345 79.0617347576 231.6188345 C 79.3727794714 231.6188345 79.6838241852 231.6188345 79.994868899 231.6188345 C 80.3059136128 231.6188345 80.6169583266 231.6188345 80.9280030404 231.6188345 C 81.2390477542 231.6188345 81.550092468 231.6188345 81.8611371818 231.6188345 C 82.1721818956 231.6188345 82.4832266094 231.6188345 82.7942713232 231.6188345 C 83.105316037 231.6188345 83.4163607508 231.6188345 83.7274054646 231.6188345 C 84.0384501785 231.6188345 84.3494948923 231.6188345 84.6605396061 231.6188345 C 84.9715843199 231.6188345 85.2826290337 231.6188345 85.5936737475 231.6188345 C 85.9047184613 231.6188345 86.2157631751 231.6188345 86.5268078889 231.6188345 C 86.8378526027 231.6188345 87.1488973165 231.6188345 87.4599420303 231.6188345 C 87.7709867441 231.6188345 88.0820314579 231.6188345 88.3930761717 231.6188345 C 88.7041208855 231.6188345 89.0151655993 231.6188345 89.3262103131 231.6188345 C 89.6372550269 231.6188345 89.9482997407 231.6188345 90.2593444545 231.6188345 C 90.5703891684 231.6188345 90.8814338822 231.6188345 91.192478596 231.6188345 C 91.5035233098 231.6188345 91.8145680236 231.6188345 92.1256127374 231.6188345 C 92.4366574512 231.6188345 92.747702165 231.6188345 93.0587468788 231.6188345 C 93.3697915926 231.6188345 93.6808363064 231.6188345 93.9918810202 231.6188345 C 94.302925734 231.6188345 94.6139704478 231.6188345 94.9250151616 231.6188345 C 95.2360598754 231.6188345 95.5471045892 231.6188345 95.858149303 231.6188345 C 96.1691940168 231.6188345 96.4802387306 231.6188345 96.7912834444 231.6188345 C 97.1023281582 231.6188345 97.4133728721 231.6188345 97.7244175859 231.6188345 C 98.0354622997 231.6188345 98.3465070135 231.6188345 98.6575517273 231.6188345 C 98.9685964411 231.6188345 99.2796411549 231.6188345 99.5906858687 231.6188345 C 99.9017305825 231.6188345 100.212775296 231.6188345 100.52382001 231.6188345 C 100.834864724 231.6188345 101.145909438 231.6188345 101.456954152 231.6188345 C 101.767998865 231.6188345 102.079043579 231.6188345 102.390088293 231.6188345 C 102.701133007 231.6188345 103.012177721 231.6188345 103.323222434 231.6188345 C 103.634267148 231.6188345 103.945311862 231.6188345 104.256356576 231.6188345 C 104.56740129 231.6188345 104.878446003 231.6188345 105.189490717 231.6188345 C 105.500535431 231.6188345 105.811580145 231.6188345 106.122624859 231.6188345 C 106.433669572 231.6188345 106.744714286 231.6188345 107.055759 231.6188345 L 107.055759 231.6188345"
       style="opacity:1;fill:none;fill-opacity:1;stroke:#000000;stroke-width:0.26458332;stroke-miterlimit:4;stroke-dasharray:none;stroke-dashoffset:0;stroke-opacity:1" />
    <path
       id="path1663"
       clip-path="url(#clipPathS)"
       title="0"
       d="M 133.11415 232.0892045 l 92.38028 0 M 179.30429 261.157949 l 0 -58.137489 M 133.11415 232.0892045 L 133.11415 232.0892045 C 133.425194714 232.0892045 133.736239428 232.0892045 134.047284141 232.0892045 C 134.358328855 232.0892045 134.669373569 232.0892045 134.980418283 232.0892045 C 135.291462997 232.0892045 135.60250771 232.0892045 135.913552424 232.0892045 C 136.224597138 232.0892045 136.535641852 232.0892045 136.846686566 232.0892045 C 137.157731279 232.0892045 137.468775993 232.0892045 137.779820707 232.0892045 C 138.090865421 232.0892045 138.401910135 232.0892045 138.712954848 232.0892045 C 139.023999562 232.0892045 139.335044276 232.0892045 139.64608899 232.0892045 C 139.957133704 232.0892045 140.268178418 232.0892045 140.579223131 232.0892045 C 140.890267845 232.0892045 141.201312559 232.0892045 141.512357273 232.0892045 C 141.823401987 232.0892045 142.1344467 232.0892045 142.445491414 232.0892045 C 142.756536128 232.0892045 143.067580842 232.0892045 143.378625556 232.0892045 C 143.689670269 232.0892045 144.000714983 232.0892045 144.311759697 232.0892045 C 144.622804411 232.0892045 144.933849125 232.0892045 145.244893838 232.0892045 C 145.555938552 232.0892045 145.866983266 232.0892045 146.17802798 232.0892045 C 146.489072694 232.0892045 146.800117407 232.0892045 147.111162121 232.0892045 C 147.422206835 232.0892045 147.733251549 232.0892045 148.044296263 232.0892045 C 148.355340976 232.0892045 148.66638569 232.0892045 148.977430404 232.0892045 C 149.288475118 232.0892045 149.599519832 232.0892045 149.910564545 232.0892045 C 150.221609259 232.0892045 150.532653973 232.0892045 150.843698687 232.0892045 C 151.154743401 232.0892045 151.465788114 232.0892045 151.776832828 232.0892045 C 152.087877542 232.0892045 152.398922256 232.0892045 152.70996697 232.0892045 C 153.021011684 232.0892045 153.332056397 232.0892045 153.643101111 232.0892045 C 153.954145825 232.0892045 154.265190539 232.0892045 154.576235253 232.0892045 C 154.887279966 232.0892045 155.19832468 232.0892045 155.509369394 232.0892045 C 155.820414108 232.0892045 156.131458822 232.0892045 156.442503535 232.0892045 C 156.753548249 232.0892045 157.064592963 232.0892045 157.375637677 232.0892045 C 157.686682391 232.0892045 157.997727104 232.0892045 158.308771818 232.0892045 C 158.619816532 232.0892045 158.930861246 232.0892045 159.24190596 232.0892045 C 159.552950673 232.0892045 159.863995387 232.0892045 160.175040101 232.0892045 C 160.486084815 232.0892045 160.797129529 232.0892045 161.108174242 232.0892045 C 161.419218956 232.0892045 161.73026367 232.0892045 162.041308384 232.0892045 C 162.352353098 232.0892045 162.663397811 232.0892045 162.974442525 232.0892045 C 163.285487239 232.0892045 163.596531953 232.0892045 163.907576667 232.0892045 C 164.21862138 232.0892045 164.529666094 232.0892045 164.840710808 232.0892045 C 165.151755522 232.0892045 165.462800236 232.0892045 165.773844949 232.0892045 C 166.084889663 232.0892045 166.395934377 232.0892045 166.706979091 232.0892045 C 167.018023805 232.0892045 167.329068519 232.0892045 167.640113232 232.0892045 C 167.951157946 232.0892045 168.26220266 232.0892045 168.573247374 232.0892045 C 168.884292088 232.0892045 169.195336801 232.0892045 169.506381515 232.0892045 C 169.817426229 232.0892045 170.128470943 232.0892045 170.439515657 232.0892045 C 170.75056037 232.0892045 171.061605084 232.0892045 171.372649798 232.0892045 C 171.683694512 232.0892045 171.994739226 232.0892045 172.305783939 232.0892045 C 172.616828653 232.0892045 172.927873367 232.0892045 173.238918081 232.0892045 C 173.549962795 232.0892045 173.861007508 232.0892045 174.172052222 232.0892045 C 174.483096936 232.0892045 174.79414165 232.0892045 175.105186364 232.0892045 C 175.416231077 232.0892045 175.727275791 232.0892045 176.038320505 232.0892045 C 176.349365219 232.0892045 176.660409933 232.0892045 176.971454646 232.0892045 C 177.28249936 232.0892045 177.593544074 232.0892045 177.904588788 232.0892045 C 178.215633502 232.0892045 178.526678215 232.0892045 178.837722929 232.0892045 C 179.148767643 232.0892045 179.459812357 232.0892045 179.770857071 232.0892045 C 180.081901785 232.0892045 180.392946498 232.0892045 180.703991212 232.0892045 C 181.015035926 232.0892045 181.32608064 232.0892045 181.637125354 232.0892045 C 181.948170067 232.0892045 182.259214781 232.0892045 182.570259495 232.0892045 C 182.881304209 232.0892045 183.192348923 232.0892045 183.503393636 232.0892045 C 183.81443835 232.0892045 184.125483064 232.0892045 184.436527778 232.0892045 C 184.747572492 232.0892045 185.058617205 232.0892045 185.369661919 232.0892045 C 185.680706633 232.0892045 185.991751347 232.0892045 186.302796061 232.0892045 C 186.613840774 232.0892045 186.924885488 232.0892045 187.235930202 232.0892045 C 187.546974916 232.0892045 187.85801963 232.0892045 188.169064343 232.0892045 C 188.480109057 232.0892045 188.791153771 232.0892045 189.102198485 232.0892045 C 189.413243199 232.0892045 189.724287912 232.0892045 190.035332626 232.0892045 C 190.34637734 232.0892045 190.657422054 232.0892045 190.968466768 232.0892045 C 191.279511481 232.0892045 191.590556195 232.0892045 191.901600909 232.0892045 C 192.212645623 232.0892045 192.523690337 232.0892045 192.834735051 232.0892045 C 193.145779764 232.0892045 193.456824478 232.0892045 193.767869192 232.0892045 C 194.078913906 232.0892045 194.38995862 232.0892045 194.701003333 232.0892045 C 195.012048047 232.0892045 195.323092761 232.0892045 195.634137475 232.0892045 C 195.945182189 232.0892045 196.256226902 232.0892045 196.567271616 232.0892045 C 196.87831633 232.0892045 197.189361044 232.0892045 197.500405758 232.0892045 C 197.811450471 232.0892045 198.122495185 232.0892045 198.433539899 232.0892045 C 198.744584613 232.0892045 199.055629327 232.0892045 199.36667404 232.0892045 C 199.677718754 232.0892045 199.988763468 232.0892045 200.299808182 232.0892045 C 200.610852896 232.0892045 200.921897609 232.0892045 201.232942323 232.0892045 C 201.543987037 232.0892045 201.855031751 232.0892045 202.166076465 232.0892045 C 202.477121178 232.0892045 202.788165892 232.0892045 203.099210606 232.0892045 C 203.41025532 232.0892045 203.721300034 232.0892045 204.032344747 232.0892045 C 204.343389461 232.0892045 204.654434175 232.0892045 204.965478889 232.0892045 C 205.276523603 232.0892045 205.587568316 232.0892045 205.89861303 232.0892045 C 206.209657744 232.0892045 206.520702458 232.0892045 206.831747172 232.0892045 C 207.142791886 232.0892045 207.453836599 232.0892045 207.764881313 232.0892045 C 208.075926027 232.0892045 208.386970741 232.0892045 208.698015455 232.0892045 C 209.009060168 232.0892045 209.320104882 232.0892045 209.631149596 232.0892045 C 209.94219431 232.0892045 210.253239024 232.0892045 210.564283737 232.0892045 C 210.875328451 232.0892045 211.186373165 232.0892045 211.497417879 232.0892045 C 211.808462593 232.0892045 212.119507306 232.0892045 212.43055202 232.0892045 C 212.741596734 232.0892045 213.052641448 232.0892045 213.363686162 232.0892045 C 213.674730875 232.0892045 213.985775589 232.0892045 214.296820303 232.0892045 C 214.607865017 232.0892045 214.918909731 232.0892045 215.229954444 232.0892045 C 215.540999158 232.0892045 215.852043872 232.0892045 216.163088586 232.0892045 C 216.4741333 232.0892045 216.785178013 232.0892045 217.096222727 232.0892045 C 217.407267441 232.0892045 217.718312155 232.0892045 218.029356869 232.0892045 C 218.340401582 232.0892045 218.651446296 232.0892045 218.96249101 232.0892045 C 219.273535724 232.0892045 219.584580438 232.0892045 219.895625152 232.0892045 C 220.206669865 232.0892045 220.517714579 232.0892045 220.828759293 232.0892045 C 221.139804007 232.0892045 221.450848721 232.0892045 221.761893434 232.0892045 C 222.072938148 232.0892045 222.383982862 232.0892045 222.695027576 232.0892045 C 223.00607229 232.0892045 223.317117003 232.0892045 223.628161717 232.0892045 C 223.939206431 232.0892045 224.250251145 232.0892045 224.561295859 232.0892045 C 224.872340572 232.0892045 225.183385286 232.0892045 225.49443 232.0892045 L 225.49443 232.0892045"
       style="opacity:1;fill:none;fill-opacity:1;stroke:#000000;stroke-width:0.26458332;stroke-miterlimit:4;stroke-dasharray:none;stroke-dashoffset:0;stroke-opacity:1" />
    <path
       style="fill:none;stroke:#000000;stroke-width:0.28566945px;stroke-linecap:butt;stroke-linejoin:miter;stroke-opacity:1"
       d="m 29.681805,260.67593 c 0,0 5.13347,-40.04091 37.59511,-39.76759 32.461638,0.27333 4.831497,7.10624 39.557905,7.65287"
       id="path1672"
       inkscape:connector-curvature="0" />
    <path
       style="fill:none;stroke:#000000;stroke-width:0.26458332px;stroke-linecap:butt;stroke-linejoin:miter;stroke-opacity:1"
       d="m 147.4085,203.20668 c 14.63446,10.90932 29.26888,21.81862 38.71478,28.09369 9.4459,6.27507 13.70319,7.9159 17.11791,7.60537 3.41472,-0.31054 5.98692,-2.57231 9.00232,-3.92475 3.01539,-1.35245 6.47482,-1.79596 9.93357,-2.23939"
       id="path1674"
       inkscape:connector-curvature="0"
       inkscape:path-effect="#path-effect1676"
       inkscape:original-d="m 147.4085,203.20668 c 14.63468,10.90903 29.2691,21.81832 43.90326,32.72788 4.25754,1.64056 8.51483,3.2814 12.77185,4.92249 2.57229,-2.26187 5.14449,-4.52363 7.71633,-6.78505 3.45893,-0.44368 6.91836,-0.8872 10.37714,-1.3304"
       transform="matrix(1.1083415,0,0,1.0557199,-20.744473,-11.280262)" />
    <text
       xml:space="preserve"
       style="font-style:normal;font-weight:normal;font-size:4.60247993px;line-height:1.25;font-family:sans-serif;letter-spacing:0px;word-spacing:0px;fill:#000000;fill-opacity:1;stroke:none;stroke-width:0.11506199"
       x="13.15346"
       y="271.41769"
       id="text1680"><tspan
         sodipodi:role="line"
         id="tspan1678"
         x="13.15346"
         y="271.41769"
         style="stroke-width:0.11506199">Turning point at $x=1$</tspan></text>
    <circle
       style="opacity:1;fill:none;fill-opacity:1;stroke:#000000;stroke-width:0.26458332;stroke-miterlimit:4;stroke-dasharray:none;stroke-dashoffset:0;stroke-opacity:1"
       id="path1682"
       cx="66.586601"
       cy="220.96754"
       r="0.73172092" />
    <text
       xml:space="preserve"
       style="font-style:normal;font-weight:normal;font-size:4.99511099px;line-height:1.25;font-family:sans-serif;letter-spacing:0px;word-spacing:0px;fill:#000000;fill-opacity:1;stroke:none;stroke-width:0.12487777"
       x="12.522065"
       y="283.68362"
       id="text1688"><tspan
         sodipodi:role="line"
         id="tspan1686"
         x="12.522065"
         y="283.68362"
         style="stroke-width:0.12487777">Horizontal Asymptote</tspan></text>
    <text
       xml:space="preserve"
       style="font-style:normal;font-weight:normal;font-size:4.60248041px;line-height:1.25;font-family:sans-serif;letter-spacing:0px;word-spacing:0px;fill:#000000;fill-opacity:1;stroke:none;stroke-width:0.11506199"
       x="132.2859"
       y="272.84711"
       id="text1680-6"><tspan
         sodipodi:role="line"
         id="tspan1678-7"
         x="132.2859"
         y="272.84711"
         style="stroke-width:0.11506199">Cuts at $(1, 0)$</tspan></text>
    <text
       xml:space="preserve"
       style="font-style:normal;font-weight:normal;font-size:4.60248089px;line-height:1.25;font-family:sans-serif;letter-spacing:0px;word-spacing:0px;fill:#000000;fill-opacity:1;stroke:none;stroke-width:0.11506199"
       x="132.60617"
       y="282.95364"
       id="text1680-6-5"><tspan
         sodipodi:role="line"
         id="tspan1678-7-3"
         x="132.60617"
         y="282.95364"
         style="stroke-width:0.11506199">Asymptote at y=0</tspan></text>
  </g>
</svg>
