<?xml version="1.0" encoding="UTF-8" standalone="no"?>
<!-- Created with Inkscape (http://www.inkscape.org/) -->

<svg
   xmlns:dc="http://purl.org/dc/elements/1.1/"
   xmlns:cc="http://creativecommons.org/ns#"
   xmlns:rdf="http://www.w3.org/1999/02/22-rdf-syntax-ns#"
   xmlns:svg="http://www.w3.org/2000/svg"
   xmlns="http://www.w3.org/2000/svg"
   xmlns:sodipodi="http://sodipodi.sourceforge.net/DTD/sodipodi-0.dtd"
   xmlns:inkscape="http://www.inkscape.org/namespaces/inkscape"
   sodipodi:docname="basic-shape-of-an-exponential-graph.svg"
   inkscape:version="0.92.4 5da689c313, 2019-01-14"
   id="svg8"
   version="1.1"
   viewBox="0 0 240 120"
   height="120mm"
   width="240mm">
  <defs
     id="defs2">
    <clipPath
       id="clipPath">
      <rect
         y="199.61459"
         x="46.564056"
         height="73.438171"
         width="146.87634"
         id="rect816"
         style="opacity:1;fill:none;fill-opacity:1;stroke:#000000;stroke-width:0.26499999;stroke-miterlimit:4;stroke-dasharray:none;stroke-dashoffset:0;stroke-opacity:1" />
    </clipPath>
  </defs>
  <sodipodi:namedview
     id="base"
     pagecolor="#ffffff"
     bordercolor="#666666"
     borderopacity="1.0"
     inkscape:pageopacity="0.0"
     inkscape:pageshadow="2"
     inkscape:zoom="7.954991"
     inkscape:cx="442.351"
     inkscape:cy="179.63567"
     inkscape:document-units="mm"
     inkscape:current-layer="layer1"
     showgrid="false"
     showborder="true"
     width="200mm"
     showguides="true"
     inkscape:guide-bbox="true"
     inkscape:window-width="2960"
     inkscape:window-height="1890"
     inkscape:window-x="20"
     inkscape:window-y="90"
     inkscape:window-maximized="0">
    <inkscape:grid
       dotted="false"
       empspacing="4"
       spacingy="10"
       spacingx="10"
       units="mm"
       id="grid815"
       type="xygrid" />
  </sodipodi:namedview>
  <metadata
     id="metadata5">
    <rdf:RDF>
      <cc:Work
         rdf:about="">
        <dc:format>image/svg+xml</dc:format>
        <dc:type
           rdf:resource="http://purl.org/dc/dcmitype/StillImage" />
        <dc:title />
      </cc:Work>
    </rdf:RDF>
  </metadata>
  <g
     inkscape:label="Layer 1"
     inkscape:groupmode="layer"
     id="layer1"
     transform="translate(0,-177)">
    <rect
       y="199.61459"
       x="46.564056"
       height="73.438171"
       width="146.87634"
       id="rect1012"
       style="opacity:1;fill:none;fill-opacity:1;stroke:#000000;stroke-width:0.26499999;stroke-miterlimit:4;stroke-dasharray:none;stroke-dashoffset:0;stroke-opacity:1" />
    <path
       id="path1014"
       clip-path="url(#clipPath)"
       title="2**x"
       d="M 46.564056,260.81307 H 193.4404 m -73.43817,12.23969 v -73.43817 m -73.438174,61.19848 v -10e-4 c 0.04901,-1e-5 0.09802,-1e-5 0.147023,-2e-5 0.04901,-10e-6 0.09802,-2e-5 0.147024,-3e-5 0.04901,-1e-5 0.09801,-2e-5 0.147023,-2e-5 0.04901,-1e-5 0.09802,-2e-5 0.147023,-3e-5 0.04901,-10e-6 0.09802,-2e-5 0.147024,-3e-5 0.04901,-10e-6 0.09801,-2e-5 0.147023,-3e-5 0.04901,0 0.09802,-1e-5 0.147024,-2e-5 0.04901,-1e-5 0.09801,-2e-5 0.147023,-3e-5 0.04901,-1e-5 0.09802,-2e-5 0.147023,-3e-5 0.04901,-10e-6 0.09802,-2e-5 0.147024,-3e-5 0.04901,-1e-5 0.09802,-2e-5 0.147023,-3e-5 0.04901,-1e-5 0.09802,-2e-5 0.147023,-3e-5 0.04901,-10e-6 0.09802,-2e-5 0.147024,-3e-5 0.04901,-1e-5 0.09801,-2e-5 0.147023,-3e-5 0.04901,-1e-5 0.09802,-2e-5 0.147023,-3e-5 0.04901,-10e-6 0.09802,-2e-5 0.147024,-3e-5 0.04901,-2e-5 0.09802,-3e-5 0.147023,-4e-5 0.04901,-10e-6 0.09802,-2e-5 0.147024,-3e-5 0.04901,-1e-5 0.09802,-2e-5 0.147023,-3e-5 0.04901,-2e-5 0.09801,-3e-5 0.147023,-4e-5 0.04901,-1e-5 0.09802,-2e-5 0.147024,-3e-5 0.04901,-2e-5 0.09801,-3e-5 0.147023,-4e-5 0.04901,-1e-5 0.09802,-2e-5 0.147023,-4e-5 0.04901,-1e-5 0.09802,-2e-5 0.147024,-3e-5 0.04901,-10e-6 0.09802,-3e-5 0.147023,-4e-5 0.04901,-1e-5 0.09802,-3e-5 0.147023,-4e-5 0.04901,-1e-5 0.09802,-2e-5 0.147024,-4e-5 0.04901,-10e-6 0.09801,-2e-5 0.147023,-4e-5 0.04901,-10e-6 0.09802,-2e-5 0.147024,-4e-5 0.04901,-1e-5 0.09802,-2e-5 0.147023,-4e-5 0.04901,-1e-5 0.09802,-2e-5 0.147023,-4e-5 0.04901,-10e-6 0.09802,-3e-5 0.147024,-4e-5 0.04901,-10e-6 0.09801,-3e-5 0.147023,-4e-5 0.04901,-2e-5 0.09802,-3e-5 0.147023,-5e-5 0.04901,-10e-6 0.09802,-3e-5 0.147024,-4e-5 0.04901,-2e-5 0.09802,-3e-5 0.147023,-5e-5 0.04901,-10e-6 0.09802,-3e-5 0.147023,-4e-5 0.04901,-2e-5 0.09802,-3e-5 0.147024,-5e-5 0.04901,-10e-6 0.09801,-3e-5 0.147023,-4e-5 0.04901,-2e-5 0.09802,-4e-5 0.147024,-5e-5 0.04901,-2e-5 0.09801,-4e-5 0.147023,-5e-5 0.04901,-2e-5 0.09802,-3e-5 0.147023,-5e-5 0.04901,-2e-5 0.09802,-3e-5 0.147024,-5e-5 0.04901,-2e-5 0.09802,-4e-5 0.147023,-5e-5 0.04901,-2e-5 0.09802,-4e-5 0.147023,-6e-5 0.04901,-1e-5 0.09802,-3e-5 0.147024,-5e-5 0.04901,-2e-5 0.09801,-3e-5 0.147023,-5e-5 0.04901,-2e-5 0.09802,-4e-5 0.147023,-6e-5 0.04901,-2e-5 0.09802,-3e-5 0.147024,-5e-5 0.04901,-2e-5 0.09802,-4e-5 0.147023,-6e-5 0.04901,-2e-5 0.09802,-4e-5 0.147024,-6e-5 0.04901,-2e-5 0.09802,-4e-5 0.147023,-6e-5 0.04901,-2e-5 0.09801,-4e-5 0.147023,-6e-5 0.04901,-2e-5 0.09802,-4e-5 0.147024,-6e-5 0.04901,-2e-5 0.09801,-4e-5 0.147023,-6e-5 0.04901,-2e-5 0.09802,-4e-5 0.147023,-6e-5 0.04901,-2e-5 0.09802,-4e-5 0.147024,-6e-5 0.04901,-3e-5 0.09802,-5e-5 0.147023,-7e-5 0.04901,-2e-5 0.09802,-4e-5 0.147023,-7e-5 0.04901,-2e-5 0.09802,-4e-5 0.147024,-6e-5 0.04901,-2e-5 0.09801,-5e-5 0.147023,-7e-5 0.04901,-2e-5 0.09802,-5e-5 0.147024,-7e-5 0.04901,-2e-5 0.09802,-5e-5 0.147023,-7e-5 0.04901,-2e-5 0.09801,-5e-5 0.147023,-7e-5 0.04901,-3e-5 0.09802,-5e-5 0.147024,-7e-5 0.04901,-3e-5 0.09801,-5e-5 0.147023,-8e-5 0.04901,-2e-5 0.09802,-5e-5 0.147023,-7e-5 0.04901,-3e-5 0.09802,-5e-5 0.147024,-8e-5 0.04901,-3e-5 0.09802,-5e-5 0.147023,-8e-5 0.04901,-2e-5 0.09802,-5e-5 0.147023,-8e-5 0.04901,-2e-5 0.09802,-5e-5 0.147024,-8e-5 0.04901,-2e-5 0.09801,-5e-5 0.147023,-8e-5 0.04901,-3e-5 0.09802,-5e-5 0.147024,-8e-5 0.04901,-3e-5 0.09801,-6e-5 0.147023,-9e-5 0.04901,-3e-5 0.09802,-5e-5 0.147023,-8e-5 0.04901,-3e-5 0.09802,-6e-5 0.147024,-9e-5 0.04901,-3e-5 0.09802,-6e-5 0.147023,-9e-5 0.04901,-3e-5 0.09802,-6e-5 0.147023,-9e-5 0.04901,-3e-5 0.09802,-6e-5 0.147024,-9e-5 0.04901,-3e-5 0.09801,-6e-5 0.147023,-10e-5 0.04901,-3e-5 0.09802,-6e-5 0.147023,-9e-5 0.04901,-3e-5 0.09802,-6e-5 0.147024,-1e-4 0.04901,-3e-5 0.09802,-6e-5 0.147023,-10e-5 0.04901,-3e-5 0.09802,-6e-5 0.147024,-1e-4 0.04901,-3e-5 0.09801,-6e-5 0.147023,-10e-5 0.04901,-3e-5 0.09801,-7e-5 0.147023,-1e-4 0.04901,-4e-5 0.09802,-7e-5 0.147024,-1.1e-4 0.04901,-3e-5 0.09802,-7e-5 0.147023,-1e-4 0.04901,-4e-5 0.09802,-7e-5 0.147023,-1.1e-4 0.04901,-4e-5 0.09802,-7e-5 0.147024,-1.1e-4 0.04901,-4e-5 0.09801,-8e-5 0.147023,-1.1e-4 0.04901,-4e-5 0.09802,-8e-5 0.147023,-1.2e-4 0.04901,-4e-5 0.09802,-8e-5 0.147024,-1.1e-4 0.04901,-4e-5 0.09802,-8e-5 0.147023,-1.2e-4 0.04901,-4e-5 0.09802,-8e-5 0.147024,-1.2e-4 0.04901,-4e-5 0.09802,-8e-5 0.147023,-1.2e-4 0.04901,-5e-5 0.09801,-9e-5 0.147023,-1.3e-4 0.04901,-4e-5 0.09802,-8e-5 0.147024,-1.2e-4 0.04901,-5e-5 0.09801,-9e-5 0.147023,-1.3e-4 0.04901,-5e-5 0.09802,-9e-5 0.147023,-1.3e-4 0.04901,-5e-5 0.09802,-9e-5 0.147024,-1.4e-4 0.04901,-4e-5 0.09802,-9e-5 0.147023,-1.3e-4 0.04901,-5e-5 0.09802,-9e-5 0.147023,-1.4e-4 0.04901,-4e-5 0.09802,-9e-5 0.147024,-1.4e-4 0.04901,-4e-5 0.09801,-9e-5 0.147023,-1.4e-4 0.04901,-5e-5 0.09802,-9e-5 0.147024,-1.4e-4 0.04901,-5e-5 0.09801,-1e-4 0.147023,-1.5e-4 0.04901,-5e-5 0.09802,-10e-5 0.147023,-1.5e-4 0.04901,-5e-5 0.09802,-10e-5 0.147024,-1.5e-4 0.04901,-5e-5 0.09802,-1e-4 0.147023,-1.5e-4 0.04901,-6e-5 0.09802,-1.1e-4 0.147023,-1.6e-4 0.04901,-5e-5 0.09802,-1.1e-4 0.147024,-1.6e-4 0.04901,-5e-5 0.09801,-1.1e-4 0.147023,-1.6e-4 0.04901,-6e-5 0.09802,-1.1e-4 0.147023,-1.7e-4 0.04901,-5e-5 0.09802,-1.1e-4 0.147024,-1.6e-4 0.04901,-6e-5 0.09802,-1.2e-4 0.147023,-1.7e-4 0.04901,-6e-5 0.09802,-1.2e-4 0.147024,-1.8e-4 0.04901,-6e-5 0.09801,-1.1e-4 0.147023,-1.7e-4 0.04901,-6e-5 0.09802,-1.2e-4 0.147023,-1.8e-4 0.04901,-6e-5 0.09802,-1.2e-4 0.147024,-1.9e-4 0.04901,-6e-5 0.09801,-1.2e-4 0.147023,-1.8e-4 0.04901,-6e-5 0.09802,-1.2e-4 0.147023,-1.9e-4 0.04901,-6e-5 0.09802,-1.3e-4 0.147024,-1.9e-4 0.04901,-6e-5 0.09802,-1.3e-4 0.147023,-1.9e-4 0.04901,-7e-5 0.09802,-1.4e-4 0.147023,-2e-4 0.04901,-7e-5 0.09802,-1.4e-4 0.147024,-2e-4 0.04901,-7e-5 0.09802,-1.4e-4 0.147023,-2.1e-4 0.04901,-7e-5 0.09802,-1.4e-4 0.147024,-2.1e-4 0.04901,-7e-5 0.09801,-1.4e-4 0.147023,-2.1e-4 0.04901,-7e-5 0.09802,-1.4e-4 0.147023,-2.1e-4 0.04901,-7e-5 0.09802,-1.5e-4 0.147024,-2.2e-4 0.04901,-7e-5 0.09802,-1.5e-4 0.147023,-2.2e-4 0.04901,-8e-5 0.09802,-1.5e-4 0.147023,-2.3e-4 0.04901,-7e-5 0.09802,-1.5e-4 0.147024,-2.3e-4 0.04901,-8e-5 0.09802,-1.5e-4 0.147023,-2.3e-4 0.04901,-8e-5 0.09802,-1.6e-4 0.147023,-2.4e-4 0.04901,-8e-5 0.09802,-1.6e-4 0.147024,-2.4e-4 0.04901,-8e-5 0.09802,-1.6e-4 0.147023,-2.5e-4 0.04901,-8e-5 0.09802,-1.6e-4 0.147024,-2.5e-4 0.04901,-8e-5 0.09802,-1.7e-4 0.147023,-2.5e-4 0.04901,-9e-5 0.09801,-1.7e-4 0.147023,-2.6e-4 0.04901,-9e-5 0.09802,-1.7e-4 0.147024,-2.6e-4 0.04901,-9e-5 0.09802,-1.8e-4 0.147023,-2.7e-4 0.04901,-9e-5 0.09802,-1.8e-4 0.147023,-2.7e-4 0.04901,-9e-5 0.09802,-1.8e-4 0.147024,-2.8e-4 0.04901,-9e-5 0.09801,-1.8e-4 0.147023,-2.8e-4 0.04901,-9e-5 0.09802,-1.9e-4 0.147023,-2.8e-4 0.04901,-10e-5 0.09802,-1.9e-4 0.147024,-2.9e-4 0.04901,-10e-5 0.09802,-2e-4 0.147023,-3e-4 0.04901,-1e-4 0.09802,-2e-4 0.147024,-3e-4 0.04901,-10e-5 0.09802,-2e-4 0.147023,-3e-4 0.04901,-10e-5 0.09802,-2.1e-4 0.147023,-3.1e-4 0.04901,-1.1e-4 0.09802,-2.1e-4 0.147024,-3.2e-4 0.04901,-10e-5 0.09801,-2.1e-4 0.147023,-3.2e-4 0.04901,-1.1e-4 0.09802,-2.1e-4 0.147023,-3.2e-4 0.04901,-1.1e-4 0.09802,-2.2e-4 0.147024,-3.3e-4 0.04901,-1.2e-4 0.09802,-2.3e-4 0.147023,-3.4e-4 0.04901,-1.2e-4 0.09802,-2.3e-4 0.147023,-3.4e-4 0.04901,-1.2e-4 0.09802,-2.4e-4 0.147024,-3.5e-4 0.04901,-1.2e-4 0.09802,-2.4e-4 0.147023,-3.6e-4 0.04901,-1.2e-4 0.09802,-2.4e-4 0.147024,-3.6e-4 0.04901,-1.2e-4 0.09801,-2.4e-4 0.147023,-3.6e-4 0.04901,-1.3e-4 0.09802,-2.5e-4 0.147023,-3.8e-4 0.04901,-1.2e-4 0.09802,-2.5e-4 0.147024,-3.8e-4 0.04901,-1.2e-4 0.09802,-2.5e-4 0.147023,-3.8e-4 0.04901,-1.3e-4 0.09802,-2.6e-4 0.147023,-3.9e-4 0.04901,-1.3e-4 0.09802,-2.7e-4 0.147024,-4e-4 0.04901,-1.3e-4 0.09802,-2.7e-4 0.147023,-4e-4 0.04901,-1.4e-4 0.09802,-2.8e-4 0.147023,-4.2e-4 0.04901,-1.3e-4 0.09802,-2.7e-4 0.147024,-4.1e-4 0.04901,-1.5e-4 0.09802,-2.9e-4 0.147023,-4.3e-4 0.04901,-1.4e-4 0.09802,-2.9e-4 0.147023,-4.3e-4 0.04901,-1.5e-4 0.09802,-2.9e-4 0.147024,-4.4e-4 0.04901,-1.5e-4 0.09801,-3e-4 0.147023,-4.5e-4 0.04901,-1.5e-4 0.09802,-3e-4 0.147024,-4.5e-4 0.04901,-1.6e-4 0.09802,-3.1e-4 0.147023,-4.7e-4 0.04901,-1.5e-4 0.09802,-3.1e-4 0.147023,-4.7e-4 0.04901,-1.6e-4 0.09802,-3.1e-4 0.147024,-4.8e-4 0.04901,-1.6e-4 0.09801,-3.2e-4 0.147023,-4.8e-4 0.04901,-1.7e-4 0.09802,-3.3e-4 0.147023,-5e-4 0.04901,-1.6e-4 0.09802,-3.3e-4 0.147024,-5e-4 0.04901,-1.7e-4 0.09802,-3.4e-4 0.147023,-5.1e-4 0.04901,-1.7e-4 0.09802,-3.4e-4 0.147023,-5.2e-4 0.04901,-1.7e-4 0.09802,-3.5e-4 0.147024,-5.3e-4 0.04901,-1.8e-4 0.09802,-3.5e-4 0.147023,-5.3e-4 0.04901,-1.9e-4 0.09802,-3.7e-4 0.147024,-5.5e-4 0.04901,-1.8e-4 0.09801,-3.7e-4 0.147023,-5.6e-4 0.04901,-1.8e-4 0.09802,-3.7e-4 0.147023,-5.6e-4 0.04901,-1.9e-4 0.09802,-3.8e-4 0.147024,-5.8e-4 0.04901,-1.9e-4 0.09802,-3.8e-4 0.147023,-5.8e-4 0.04901,-2e-4 0.09802,-3.9e-4 0.147023,-5.9e-4 0.04901,-2e-4 0.09802,-4e-4 0.147024,-6.1e-4 0.04901,-2e-4 0.09802,-4e-4 0.147023,-6.1e-4 0.04901,-2.1e-4 0.09802,-4.1e-4 0.147023,-6.2e-4 0.04901,-2.1e-4 0.09802,-4.3e-4 0.147024,-6.4e-4 0.04901,-2.1e-4 0.09802,-4.3e-4 0.147023,-6.4e-4 0.04901,-2.2e-4 0.09802,-4.4e-4 0.147024,-6.6e-4 0.04901,-2.2e-4 0.09802,-4.4e-4 0.147023,-6.7e-4 0.04901,-2.2e-4 0.09802,-4.5e-4 0.147023,-6.8e-4 0.04901,-2.2e-4 0.09802,-4.5e-4 0.147024,-6.9e-4 0.04901,-2.3e-4 0.09802,-4.6e-4 0.147023,-7e-4 0.04901,-2.3e-4 0.09802,-4.7e-4 0.147023,-7.1e-4 0.04901,-2.4e-4 0.09802,-4.8e-4 0.147024,-7.2e-4 0.04901,-2.5e-4 0.09801,-4.9e-4 0.147023,-7.4e-4 0.04901,-2.5e-4 0.09802,-5e-4 0.147023,-7.5e-4 0.04901,-2.5e-4 0.09802,-5.1e-4 0.147024,-7.6e-4 0.04901,-2.6e-4 0.09802,-5.2e-4 0.147023,-7.8e-4 0.04901,-2.6e-4 0.09802,-5.2e-4 0.147024,-7.9e-4 0.04901,-2.6e-4 0.09802,-5.3e-4 0.147023,-8e-4 0.04901,-2.7e-4 0.09802,-5.4e-4 0.147023,-8.1e-4 0.04901,-2.8e-4 0.09802,-5.5e-4 0.147024,-8.3e-4 0.04901,-2.8e-4 0.09801,-5.6e-4 0.147023,-8.4e-4 0.04901,-2.9e-4 0.09802,-5.7e-4 0.147023,-8.6e-4 0.04901,-2.9e-4 0.09802,-5.8e-4 0.147024,-8.7e-4 0.04901,-2.9e-4 0.09802,-5.9e-4 0.147023,-8.8e-4 0.04901,-3e-4 0.09802,-6e-4 0.147023,-9e-4 0.04901,-3.1e-4 0.09802,-6.1e-4 0.147024,-9.2e-4 0.04901,-3.1e-4 0.09802,-6.2e-4 0.147023,-9.3e-4 0.04901,-3.1e-4 0.09802,-6.3e-4 0.147024,-9.5e-4 0.04901,-3.2e-4 0.09801,-6.4e-4 0.147023,-9.6e-4 0.04901,-3.2e-4 0.09802,-6.5e-4 0.147023,-9.8e-4 0.04901,-3.3e-4 0.09802,-6.6e-4 0.147024,-9.9e-4 0.04901,-3.4e-4 0.09802,-6.7e-4 0.147023,-0.001 0.04901,-3.4e-4 0.09802,-6.9e-4 0.147023,-10e-4 0.04901,-3.5e-4 0.09802,-7e-4 0.147024,-10e-4 0.04901,-3.5e-4 0.09802,-7e-4 0.147023,-0.001 0.04901,-3.6e-4 0.09802,-7.2e-4 0.147023,-10e-4 0.04901,-3.7e-4 0.09802,-7.3e-4 0.147024,-0.001 0.04901,-3.7e-4 0.09802,-7.4e-4 0.147023,-10e-4 0.04901,-3.8e-4 0.09802,-7.5e-4 0.147024,-10e-4 0.04901,-3.8e-4 0.09802,-7.6e-4 0.147023,-0.001 0.04901,-3.9e-4 0.09802,-7.8e-4 0.147023,-10e-4 0.04901,-3.9e-4 0.09802,-7.9e-4 0.147024,-0.001 0.04901,-4e-4 0.09802,-8.1e-4 0.147023,-10e-4 0.04901,-4.1e-4 0.09802,-8.2e-4 0.147023,-0.001 0.04901,-4.2e-4 0.09802,-8.4e-4 0.147024,-10e-4 0.04901,-4.2e-4 0.09801,-8.5e-4 0.147023,-10e-4 0.04901,-4.2e-4 0.09802,-8.6e-4 0.147023,-0.001 0.04901,-4.4e-4 0.09802,-8.8e-4 0.147024,-10e-4 0.04901,-4.5e-4 0.09802,-9e-4 0.147023,-0.001 0.04901,-4.5e-4 0.09802,-9e-4 0.147024,-10e-4 0.04901,-4.6e-4 0.09802,-9.2e-4 0.147023,-10e-4 0.04901,-4.7e-4 0.09802,-9.4e-4 0.147023,-0.001 0.04901,-4.7e-4 0.09802,-9.5e-4 0.147024,-10e-4 0.04901,-4.8e-4 0.09801,-9.6e-4 0.147023,-0.001 0.04901,-5e-4 0.09802,-9.9e-4 0.147023,-10e-4 0.04901,-5e-4 0.09802,-10e-4 0.147024,-0.002 0.04901,-5e-4 0.09802,-10e-4 0.147023,-0.002 0.04901,-5.2e-4 0.09802,-10e-4 0.147023,-0.002 0.04901,-5.2e-4 0.09802,-10e-4 0.147024,-0.002 0.04901,-5.3e-4 0.09802,-0.001 0.147023,-0.002 0.04901,-5.4e-4 0.09802,-0.001 0.147024,-0.002 0.04901,-5.5e-4 0.09801,-10e-4 0.147023,-0.002 0.04901,-5.6e-4 0.09802,-10e-4 0.147023,-0.002 0.04901,-5.7e-4 0.09802,-10e-4 0.147024,-0.002 0.04901,-5.8e-4 0.09802,-10e-4 0.147023,-0.002 0.04901,-5.8e-4 0.09802,-0.001 0.147023,-0.002 0.04901,-6e-4 0.09802,-0.001 0.147024,-0.002 0.04901,-6.1e-4 0.09802,-10e-4 0.147023,-0.002 0.04901,-6.2e-4 0.09802,-10e-4 0.147023,-0.002 0.04901,-6.3e-4 0.09802,-10e-4 0.147024,-0.002 0.04901,-6.4e-4 0.09801,-10e-4 0.147023,-0.002 0.04901,-6.6e-4 0.09802,-0.001 0.147024,-0.002 0.04901,-6.7e-4 0.09802,-0.001 0.147023,-0.002 0.04901,-6.7e-4 0.09802,-10e-4 0.147023,-0.002 0.04901,-6.9e-4 0.09802,-10e-4 0.147024,-0.002 0.04901,-7e-4 0.09802,-10e-4 0.147023,-0.002 0.04901,-7e-4 0.09802,-10e-4 0.147023,-0.002 0.04901,-7.2e-4 0.09802,-0.001 0.147024,-0.002 0.04901,-7.3e-4 0.09801,-0.001 0.147023,-0.002 0.04901,-7.5e-4 0.09802,-0.002 0.147023,-0.002 0.04901,-7.6e-4 0.09802,-0.002 0.147024,-0.002 0.04901,-7.7e-4 0.09802,-0.002 0.147023,-0.002 0.04901,-7.8e-4 0.09802,-0.002 0.147024,-0.002 0.04901,-8e-4 0.09802,-0.002 0.147023,-0.002 0.04901,-8e-4 0.09802,-0.002 0.147023,-0.002 0.04901,-8.2e-4 0.09802,-0.002 0.147024,-0.002 0.04901,-8.3e-4 0.09801,-0.002 0.147023,-0.003 0.04901,-8.5e-4 0.09802,-0.002 0.147023,-0.003 0.04901,-8.7e-4 0.09802,-0.002 0.147024,-0.003 0.04901,-8.8e-4 0.09802,-0.002 0.147023,-0.003 0.04901,-8.9e-4 0.09802,-0.002 0.147023,-0.003 0.04901,-9.1e-4 0.09802,-0.002 0.147024,-0.003 0.04901,-9.3e-4 0.09802,-0.002 0.147023,-0.003 0.04901,-9.4e-4 0.09802,-0.002 0.147024,-0.003 0.04901,-9.5e-4 0.09802,-0.002 0.147023,-0.003 0.04901,-9.7e-4 0.09802,-0.002 0.147023,-0.003 0.04901,-9.9e-4 0.09802,-0.002 0.147024,-0.003 0.04901,-10e-4 0.09802,-0.002 0.147023,-0.003 0.04901,-10e-4 0.09802,-0.002 0.147023,-0.003 0.04901,-0.001 0.09802,-0.002 0.147024,-0.003 0.04901,-0.001 0.09802,-0.002 0.147023,-0.003 0.04901,-10e-4 0.09802,-0.002 0.147023,-0.003 0.04901,-10e-4 0.09802,-0.002 0.147024,-0.003 0.04901,-0.001 0.09801,-0.002 0.147023,-0.003 0.04901,-0.001 0.09802,-0.002 0.147024,-0.003 0.04901,-10e-4 0.09802,-0.002 0.147023,-0.003 0.04901,-10e-4 0.09802,-0.002 0.147023,-0.004 0.04901,-0.001 0.09802,-0.002 0.147024,-0.004 0.04901,-0.001 0.09802,-0.002 0.147023,-0.004 0.04901,-10e-4 0.09802,-0.002 0.147023,-0.004 0.04901,-0.001 0.09802,-0.003 0.147024,-0.004 0.04901,-0.001 0.09801,-0.003 0.147023,-0.004 0.04901,-10e-4 0.09802,-0.003 0.147023,-0.004 0.04901,-0.001 0.09802,-0.003 0.147024,-0.004 0.04901,-0.001 0.09802,-0.003 0.147023,-0.004 0.04901,-10e-4 0.09802,-0.003 0.147024,-0.004 0.04901,-0.001 0.09802,-0.003 0.147023,-0.004 0.04901,-0.001 0.09802,-0.003 0.147023,-0.004 0.04901,-10e-4 0.09802,-0.003 0.147024,-0.004 0.04901,-0.001 0.09801,-0.003 0.147023,-0.004 0.04901,-0.001 0.09802,-0.003 0.147023,-0.004 0.04901,-0.002 0.09802,-0.003 0.147024,-0.005 0.04901,-0.002 0.09802,-0.003 0.147023,-0.005 0.04901,-0.002 0.09802,-0.003 0.147023,-0.005 0.04901,-0.002 0.09802,-0.003 0.147024,-0.005 0.04901,-0.002 0.09802,-0.003 0.147023,-0.005 0.04901,-0.002 0.09802,-0.003 0.147024,-0.005 0.04901,-0.002 0.09802,-0.003 0.147023,-0.005 0.04901,-0.002 0.09801,-0.003 0.147023,-0.005 0.04901,-0.002 0.09802,-0.003 0.147024,-0.005 0.04901,-0.002 0.09802,-0.003 0.147023,-0.005 0.04901,-0.002 0.09802,-0.004 0.147023,-0.005 0.04901,-0.002 0.09802,-0.004 0.147024,-0.005 0.04901,-0.002 0.09802,-0.004 0.147023,-0.006 0.04901,-0.002 0.09802,-0.004 0.147023,-0.006 0.04901,-0.002 0.09802,-0.004 0.147024,-0.006 0.04901,-0.002 0.09801,-0.004 0.147023,-0.006 0.04901,-0.002 0.09802,-0.004 0.147024,-0.006 0.04901,-0.002 0.09802,-0.004 0.147023,-0.006 0.04901,-0.002 0.09802,-0.004 0.147023,-0.006 0.04901,-0.002 0.09802,-0.004 0.147024,-0.006 0.04901,-0.002 0.09802,-0.004 0.147023,-0.006 0.04901,-0.002 0.09802,-0.004 0.147023,-0.006 0.04901,-0.002 0.09802,-0.004 0.147024,-0.007 0.04901,-0.002 0.09801,-0.004 0.147023,-0.007 0.04901,-0.002 0.09802,-0.004 0.147023,-0.007 0.04901,-0.002 0.09802,-0.005 0.147024,-0.007 0.04901,-0.002 0.09802,-0.005 0.147023,-0.007 0.04901,-0.002 0.09802,-0.005 0.147024,-0.007 0.04901,-0.002 0.09801,-0.005 0.147023,-0.007 0.04901,-0.002 0.09802,-0.005 0.147023,-0.007 0.04901,-0.002 0.09802,-0.005 0.147024,-0.007 0.04901,-0.003 0.09802,-0.005 0.147023,-0.008 0.04901,-0.003 0.09802,-0.005 0.147023,-0.008 0.04901,-0.003 0.09802,-0.005 0.147024,-0.008 0.04901,-0.003 0.09802,-0.005 0.147023,-0.008 0.04901,-0.003 0.09802,-0.005 0.147023,-0.008 0.04901,-0.003 0.09802,-0.005 0.147024,-0.008 0.04901,-0.003 0.09802,-0.006 0.147023,-0.008 0.04901,-0.003 0.09802,-0.006 0.147024,-0.009 0.04901,-0.003 0.09802,-0.006 0.147023,-0.009 0.04901,-0.003 0.09801,-0.006 0.147023,-0.009 0.04901,-0.003 0.09802,-0.006 0.147024,-0.009 0.04901,-0.003 0.09802,-0.006 0.147023,-0.009 0.04901,-0.003 0.09802,-0.006 0.147023,-0.009 0.04901,-0.003 0.09802,-0.006 0.147024,-0.009 0.04901,-0.003 0.09802,-0.006 0.147023,-0.01 0.04901,-0.003 0.09802,-0.006 0.147023,-0.01 0.04901,-0.003 0.09802,-0.007 0.147024,-0.01 0.04901,-0.003 0.09801,-0.007 0.147023,-0.0101 0.04901,-0.003 0.09802,-0.007 0.147024,-0.0102 0.04901,-0.003 0.09802,-0.007 0.147023,-0.0104 0.04901,-0.004 0.09801,-0.007 0.147023,-0.0106 0.049,-0.004 0.098,-0.007 0.14702,-0.0108 0.049,-0.004 0.098,-0.007 0.14703,-0.0109 0.049,-0.004 0.098,-0.007 0.14702,-0.0111 0.049,-0.004 0.098,-0.008 0.14702,-0.0113 0.049,-0.004 0.098,-0.008 0.14703,-0.0115 0.049,-0.004 0.098,-0.008 0.14702,-0.0117 0.049,-0.004 0.098,-0.008 0.14702,-0.0119 0.049,-0.004 0.098,-0.008 0.14703,-0.0121 0.049,-0.004 0.098,-0.008 0.14702,-0.0123 0.049,-0.004 0.098,-0.008 0.14702,-0.0125 0.049,-0.004 0.098,-0.008 0.14703,-0.0127 0.049,-0.004 0.098,-0.009 0.14702,-0.0129 0.049,-0.004 0.098,-0.009 0.14702,-0.0131 0.049,-0.004 0.098,-0.009 0.14703,-0.0134 0.049,-0.004 0.098,-0.009 0.14702,-0.0136 0.049,-0.005 0.098,-0.009 0.14702,-0.0138 0.049,-0.005 0.098,-0.009 0.14703,-0.014 0.049,-0.005 0.098,-0.009 0.14702,-0.0143 0.049,-0.005 0.098,-0.01 0.14702,-0.0145 0.049,-0.005 0.098,-0.01 0.14703,-0.0148 0.049,-0.005 0.098,-0.01 0.14702,-0.015 0.049,-0.005 0.098,-0.0101 0.14702,-0.0153 0.049,-0.005 0.098,-0.0103 0.14703,-0.0155 0.049,-0.005 0.098,-0.0105 0.14702,-0.0158 0.049,-0.005 0.098,-0.0106 0.14702,-0.0161 0.049,-0.005 0.098,-0.0108 0.14703,-0.0163 0.049,-0.005 0.098,-0.011 0.14702,-0.0166 0.049,-0.006 0.098,-0.0112 0.14702,-0.0169 0.049,-0.006 0.098,-0.0114 0.14703,-0.0172 0.049,-0.006 0.098,-0.0116 0.14702,-0.0174 0.049,-0.006 0.098,-0.0118 0.14702,-0.0177 0.049,-0.006 0.098,-0.012 0.14703,-0.018 0.049,-0.006 0.098,-0.0122 0.14702,-0.0183 0.049,-0.006 0.098,-0.0124 0.14702,-0.0186 0.049,-0.006 0.098,-0.0126 0.14703,-0.019 0.049,-0.006 0.098,-0.0128 0.14702,-0.0193 0.049,-0.006 0.098,-0.013 0.14702,-0.0196 0.049,-0.007 0.098,-0.0132 0.14703,-0.0199 0.049,-0.007 0.098,-0.0134 0.14702,-0.0203 0.049,-0.007 0.098,-0.0137 0.14702,-0.0206 0.049,-0.007 0.098,-0.0139 0.14703,-0.0209 0.049,-0.007 0.098,-0.0142 0.14702,-0.0213 0.049,-0.007 0.098,-0.0144 0.14702,-0.0216 0.049,-0.007 0.098,-0.0146 0.14703,-0.022 0.049,-0.007 0.098,-0.0149 0.14702,-0.0224 0.049,-0.008 0.098,-0.0151 0.14702,-0.0228 0.049,-0.008 0.098,-0.0154 0.14703,-0.0231 0.049,-0.008 0.098,-0.0156 0.14702,-0.0235 0.049,-0.008 0.098,-0.0159 0.14703,-0.0239 0.049,-0.008 0.098,-0.0161 0.14702,-0.0243 0.049,-0.008 0.098,-0.0164 0.14702,-0.0247 0.049,-0.008 0.098,-0.0167 0.14703,-0.0252 0.049,-0.008 0.098,-0.017 0.14702,-0.0256 0.049,-0.009 0.098,-0.0173 0.14702,-0.026 0.049,-0.009 0.098,-0.0176 0.14703,-0.0265 0.049,-0.009 0.098,-0.0179 0.14702,-0.0269 0.049,-0.009 0.098,-0.0182 0.14702,-0.0274 0.049,-0.009 0.098,-0.0185 0.14703,-0.0278 0.049,-0.009 0.098,-0.0188 0.14702,-0.0283 0.049,-0.01 0.098,-0.0191 0.14702,-0.0288 0.049,-0.01 0.098,-0.0194 0.14703,-0.0292 0.049,-0.01 0.098,-0.0197 0.14702,-0.0297 0.049,-0.01 0.098,-0.0201 0.14702,-0.0302 0.049,-0.0102 0.098,-0.0204 0.14703,-0.0307 0.049,-0.0103 0.098,-0.0207 0.14702,-0.0312 0.049,-0.0105 0.098,-0.0211 0.14702,-0.0318 0.049,-0.0107 0.098,-0.0214 0.14703,-0.0323 0.049,-0.0109 0.098,-0.0218 0.14702,-0.0328 0.049,-0.011 0.098,-0.0222 0.14702,-0.0334 0.049,-0.0112 0.098,-0.0225 0.14703,-0.034 0.049,-0.0114 0.098,-0.0229 0.14702,-0.0345 0.049,-0.0116 0.098,-0.0233 0.14702,-0.0351 0.049,-0.0118 0.098,-0.0237 0.14703,-0.0357 0.049,-0.012 0.098,-0.0241 0.14702,-0.0363 0.049,-0.0122 0.098,-0.0245 0.14702,-0.0369 0.049,-0.0124 0.098,-0.0249 0.14703,-0.0375 0.049,-0.0126 0.098,-0.0253 0.14702,-0.0382 0.049,-0.0128 0.098,-0.0258 0.14702,-0.0388 0.049,-0.013 0.098,-0.0262 0.14703,-0.0394 0.049,-0.0133 0.098,-0.0266 0.14702,-0.0401 0.049,-0.0135 0.098,-0.0271 0.14702,-0.0408 0.049,-0.0137 0.098,-0.0275 0.14703,-0.0415 0.049,-0.0139 0.098,-0.028 0.14702,-0.0422 0.049,-0.0142 0.098,-0.0285 0.14702,-0.0429 0.049,-0.0144 0.098,-0.0289 0.14703,-0.0436 0.049,-0.0147 0.098,-0.0294 0.14702,-0.0443 0.049,-0.0149 0.098,-0.0299 0.14702,-0.0451 0.049,-0.0151 0.098,-0.0304 0.14703,-0.0458 0.049,-0.0154 0.098,-0.0309 0.14702,-0.0466 0.049,-0.0157 0.098,-0.0315 0.14702,-0.0474 0.049,-0.0159 0.098,-0.032 0.14703,-0.0482 0.049,-0.0162 0.098,-0.0325 0.14702,-0.049 0.049,-0.0165 0.098,-0.0331 0.14702,-0.0498 0.049,-0.0167 0.098,-0.0336 0.14703,-0.0506 0.049,-0.017 0.098,-0.0342 0.14702,-0.0515 0.049,-0.0173 0.098,-0.0348 0.14702,-0.0524 0.049,-0.0176 0.098,-0.0353 0.14703,-0.0532 0.049,-0.0179 0.098,-0.0359 0.14702,-0.0541 0.049,-0.0182 0.098,-0.0365 0.14702,-0.055 0.049,-0.0185 0.098,-0.0371 0.14703,-0.056 0.049,-0.0188 0.098,-0.0378 0.14702,-0.0569 0.049,-0.0191 0.098,-0.0384 0.14702,-0.0579 0.049,-0.0194 0.098,-0.039 0.14703,-0.0588 0.049,-0.0198 0.098,-0.0397 0.14702,-0.0598 0.049,-0.0201 0.098,-0.0404 0.14702,-0.0608 0.049,-0.0204 0.098,-0.0411 0.14703,-0.0618 0.049,-0.0208 0.098,-0.0417 0.14702,-0.0629 0.049,-0.0211 0.098,-0.0424 0.14702,-0.0639 0.049,-0.0215 0.098,-0.0432 0.14703,-0.065 0.049,-0.0219 0.098,-0.0439 0.14702,-0.0661 0.049,-0.0222 0.098,-0.0446 0.14702,-0.0672 0.049,-0.0226 0.098,-0.0454 0.14703,-0.0683 0.049,-0.023 0.098,-0.0461 0.14702,-0.0695 0.049,-0.0233 0.098,-0.0469 0.14702,-0.0707 0.049,-0.0238 0.098,-0.0477 0.14703,-0.0718 0.049,-0.0241 0.098,-0.0485 0.14702,-0.073 0.049,-0.0246 0.098,-0.0493 0.14702,-0.0743 0.049,-0.025 0.098,-0.0501 0.14703,-0.0755 0.049,-0.0254 0.098,-0.051 0.14702,-0.0768 0.049,-0.0258 0.098,-0.0518 0.14702,-0.0781 0.049,-0.0263 0.098,-0.0527 0.14703,-0.0794 0.049,-0.0267 0.098,-0.0536 0.14702,-0.0807 0.049,-0.0271 0.098,-0.0545 0.14702,-0.0821 0.049,-0.0276 0.098,-0.0554 0.14703,-0.0834 0.049,-0.0281 0.098,-0.0563 0.14702,-0.0849 0.049,-0.0285 0.098,-0.0573 0.14702,-0.0863 0.049,-0.029 0.098,-0.0582 0.14703,-0.0877 0.049,-0.0295 0.098,-0.0592 0.14702,-0.0892 0.049,-0.03 0.098,-0.0602 0.14702,-0.0907 0.049,-0.0305 0.098,-0.0612 0.14703,-0.0922 0.049,-0.031 0.098,-0.0623 0.14702,-0.0938 0.049,-0.0315 0.098,-0.0633 0.14702,-0.0953 0.049,-0.032 0.098,-0.0644 0.14703,-0.0969 0.049,-0.0326 0.098,-0.0654 0.14702,-0.0986 0.049,-0.0331 0.098,-0.0665 0.14702,-0.10023 0.049,-0.0337 0.098,-0.0677 0.14703,-0.10191 0.049,-0.0343 0.098,-0.0688 0.14702,-0.10362 0.049,-0.0348 0.098,-0.07 0.14702,-0.10536 0.049,-0.0354 0.098,-0.0711 0.14703,-0.10713 0.049,-0.036 0.098,-0.0723 0.14702,-0.10893 0.049,-0.0366 0.098,-0.0735 0.14702,-0.11076 0.049,-0.0372 0.098,-0.0748 0.14703,-0.11262 0.049,-0.0378 0.098,-0.076 0.14702,-0.11451 0.049,-0.0385 0.098,-0.0773 0.14702,-0.11643 0.049,-0.0391 0.098,-0.0786 0.14703,-0.11839 0.049,-0.0398 0.098,-0.0799 0.14702,-0.12037 0.049,-0.0405 0.098,-0.0813 0.14702,-0.1224 0.049,-0.0411 0.098,-0.0826 0.14703,-0.12445 0.049,-0.0418 0.098,-0.084 0.14702,-0.12654 0.049,-0.0425 0.098,-0.0854 0.14702,-0.12867 0.049,-0.0432 0.098,-0.0868 0.14703,-0.13082 0.049,-0.044 0.098,-0.0883 0.14702,-0.13303 0.049,-0.0447 0.098,-0.0898 0.14702,-0.13525 0.049,-0.0455 0.098,-0.0913 0.14703,-0.13753 0.049,-0.0462 0.098,-0.0928 0.14702,-0.13984 0.049,-0.047 0.098,-0.0944 0.14702,-0.14218 0.049,-0.0478 0.098,-0.096 0.14703,-0.14458 0.049,-0.0486 0.098,-0.0976 0.14702,-0.147 0.049,-0.0494 0.098,-0.0992 0.14703,-0.14947 0.049,-0.0502 0.098,-0.10089 0.14702,-0.15198 0.049,-0.0511 0.098,-0.10259 0.14702,-0.15453 0.049,-0.0519 0.098,-0.10431 0.14703,-0.15712 0.049,-0.0528 0.098,-0.10607 0.14702,-0.15977 0.049,-0.0537 0.098,-0.10784 0.14702,-0.16245 0.049,-0.0546 0.098,-0.10965 0.14703,-0.16517 0.049,-0.0555 0.098,-0.1115 0.14702,-0.16795 0.049,-0.0565 0.098,-0.11337 0.14702,-0.17077 0.049,-0.0574 0.098,-0.11527 0.14703,-0.17363 0.049,-0.0584 0.098,-0.11721 0.14702,-0.17655 0.049,-0.0593 0.098,-0.11918 0.14702,-0.17952 0.049,-0.0603 0.098,-0.12118 0.14703,-0.18253 0.049,-0.0614 0.098,-0.12321 0.14702,-0.1856 0.049,-0.0624 0.098,-0.12528 0.14702,-0.18871 0.049,-0.0634 0.098,-0.12738 0.14703,-0.19188 0.049,-0.0645 0.098,-0.12952 0.14702,-0.1951 0.049,-0.0656 0.098,-0.1317 0.14702,-0.19838 0.049,-0.0667 0.098,-0.13391 0.14703,-0.20171 0.049,-0.0678 0.098,-0.13616 0.14702,-0.2051 0.049,-0.0689 0.098,-0.13844 0.14702,-0.20854 0.049,-0.0701 0.098,-0.14077 0.14703,-0.21204 0.049,-0.0713 0.098,-0.14313 0.14702,-0.2156 0.049,-0.0725 0.098,-0.14554 0.14702,-0.21922 0.049,-0.0737 0.098,-0.14799 0.14703,-0.22291 0.049,-0.0749 0.098,-0.15047 0.14702,-0.22665 0.049,-0.0762 0.098,-0.15299 0.14702,-0.23045 0.049,-0.0775 0.098,-0.15556 0.14703,-0.23432 0.049,-0.0788 0.098,-0.15818 0.14702,-0.23826 0.049,-0.0801 0.098,-0.16083 0.14702,-0.24226 0.049,-0.0814 0.098,-0.16353 0.14703,-0.24632 0.049,-0.0828 0.098,-0.16628 0.14702,-0.25047 0.049,-0.0842 0.098,-0.16907 0.14702,-0.25466 0.049,-0.0856 0.098,-0.17191 0.14703,-0.25895 0.049,-0.087 0.098,-0.17479 0.14702,-0.26329 0.049,-0.0885 0.098,-0.17773 0.14702,-0.26771 0.049,-0.09 0.098,-0.18072 0.14703,-0.27221 0.049,-0.0915 0.098,-0.18375 0.14702,-0.27678 0.049,-0.093 0.098,-0.18684 0.14702,-0.28143 0.049,-0.0946 0.098,-0.18997 0.14703,-0.28615 0.049,-0.0962 0.098,-0.19316 0.14702,-0.29096 0.049,-0.0978 0.098,-0.19641 0.14702,-0.29584 0.049,-0.0994 0.098,-0.19971 0.14703,-0.30081 0.049,-0.10111 0.098,-0.20306 0.14702,-0.30587 0.049,-0.1028 0.098,-0.20646 0.14702,-0.31099 0.049,-0.10453 0.098,-0.20994 0.14703,-0.31622 0.049,-0.10629 0.098,-0.21346 0.14702,-0.32153 0.049,-0.10807 0.098,-0.21705 0.14702,-0.32693 0.049,-0.10989 0.098,-0.22069 0.14703,-0.33242 0.049,-0.11173 0.098,-0.2244 0.14702,-0.338 0.049,-0.11361 0.098,-0.22816 0.14702,-0.34368 0.049,-0.11551 0.098,-0.23199 0.14703,-0.34944 0.049,-0.11746 0.098,-0.23589 0.14702,-0.35532 0.049,-0.11943 0.098,-0.23985 0.14702,-0.36128 0.049,-0.12143 0.098,-0.24388 0.14703,-0.36735 0.049,-0.12347 0.098,-0.24797 0.14702,-0.37351 0.049,-0.12555 0.098,-0.25214 0.14702,-0.37979 0.049,-0.12765 0.098,-0.25637 0.14703,-0.38617 0.049,-0.12979 0.098,-0.26067 0.14702,-0.39265 0.049,-0.13197 0.098,-0.26505 0.14702,-0.39924 0.049,-0.13419 0.098,-0.2695 0.14703,-0.40595 0.049,-0.13644 0.098,-0.27402 0.14702,-0.41276 0.049,-0.13873 0.098,-0.27863 0.14702,-0.41969 0.049,-0.14107 0.098,-0.28331 0.14703,-0.42674 0.049,-0.14344 0.098,-0.28807 0.14702,-0.43391 0.049,-0.14584 0.098,-0.2929 0.14702,-0.44119 0.049,-0.14829 0.098,-0.29782 0.14703,-0.4486 0.049,-0.15079 0.098,-0.30283 0.14702,-0.45614 0.049,-0.15331 0.098,-0.3079 0.14702,-0.46379 0.049,-0.15589 0.098,-0.31308 0.14703,-0.47158 0.049,-0.15851 0.098,-0.31834 0.14702,-0.4795 0.049,-0.16117 0.098,-0.32368 0.14702,-0.48755 0.049,-0.16388 0.098,-0.32912 0.14703,-0.49574 0.049,-0.16663 0.098,-0.33464 0.14702,-0.50406 0.049,-0.16943 0.098,-0.34026 0.14702,-0.51253 0.049,-0.17227 0.098,-0.34597 0.14703,-0.52113 0.049,-0.17516 0.098,-0.35179 0.14702,-0.52989 0.049,-0.1781 0.098,-0.35769 0.14702,-0.53878 0.049,-0.18109 0.098,-0.36369 0.14703,-0.54782 0.049,-0.18414 0.098,-0.36981 0.14702,-0.55703 0.049,-0.18723 0.098,-0.37601 0.14702,-0.56638 0.049,-0.19037 0.098,-0.38233 0.14703,-0.57589 0.049,-0.19357 0.098,-0.38875 0.14702,-0.58556 0.049,-0.19682 0.098,-0.39528 0.14702,-0.5954 0.049,-0.20011 0.098,-0.40191 0.14703,-0.60539 0.049,-0.20348 0.098,-0.40865 0.14702,-0.61555 0.049,-0.2069 0.098,-0.41552 0.14702,-0.62589 0.049,-0.21037 0.098,-0.4225 0.14703,-0.63641 0.049,-0.2139 0.098,-0.42959 0.14702,-0.64708 0.049,-0.2175 0.098,-0.43681 0.14702,-0.65796 0.049,-0.22115 0.098,-0.44414 0.14703,-0.669 0.049,-0.22486 0.098,-0.4516 0.14702,-0.68024 0.049,-0.22863 0.098,-0.45918 0.14702,-0.69165 0.049,-0.23248 0.098,-0.4669 0.14703,-0.70328 0.049,-0.23637 0.098,-0.47473 0.14702,-0.71508 0.049,-0.24034 0.098,-0.4827 0.14702,-0.72708 0.049,-0.24439 0.098,-0.49081 0.14703,-0.7393 0.049,-0.24849 0.098,-0.49905 0.14702,-0.75171 0.049,-0.25266 0.098,-0.50743 0.14702,-0.76434 0.049,-0.2569 0.098,-0.51595 0.14703,-0.77716 0.049,-0.26122 0.098,-0.52462 0.14702,-0.79022 0.049,-0.26561 0.098,-0.53343 0.14702,-0.80349 0.049,-0.27006 0.098,-0.54238 0.14703,-0.81698 0.049,-0.2746 0.098,-0.55149 0.14702,-0.8307 0.049,-0.2792 0.098,-0.56074 0.14702,-0.84464 0.049,-0.2839 0.098,-0.57017 0.14703,-0.85883 0.049,-0.28866 0.098,-0.57974 0.14702,-0.87325 0.049,-0.29351 0.098,-0.58947 0.14702,-0.88791 0.049,-0.29844 0.098,-0.59938 0.14703,-0.90283 0.049,-0.30345 0.098,-0.60943 0.14702,-0.91798 0.049,-0.30855 0.098,-0.61967 0.14703,-0.9334 0.049,-0.31372 0.098,-0.63007 0.14702,-0.94907 0.049,-0.31899 0.098,-0.64065 0.14702,-0.965 0.049,-0.32436 0.098,-0.65142 0.14703,-0.98121 0.049,-0.3298 0.098,-0.66235 0.14702,-0.99769 0.049,-0.33534 0.098,-0.67347 0.14702,-1.01444 0.049,-0.34097 0.098,-0.68478 0.14703,-1.03147 0.049,-0.3467 0.098,-0.69628 0.14702,-1.0488 0.049,-0.35251 0.098,-0.70797 0.14702,-1.0664 0.049,-0.35844 0.098,-0.71986 0.14703,-1.08431 0.049,-0.36446 0.098,-0.73195 0.14702,-1.10252 0.049,-0.37057 0.098,-0.74424 0.14702,-1.12103 0.049,-0.3768 0.098,-0.75674 0.14703,-1.13986 0.049,-0.38312 0.098,-0.76944 0.14702,-1.15899 0.049,-0.38956 0.098,-0.78237 0.14702,-1.17846 0.049,-0.3961 0.098,-0.7955 0.14703,-1.19825 0.049,-0.40274 0.098,-0.80885 0.14702,-1.21836 0.049,-0.40951 0.098,-0.82244 0.14702,-1.23883 0.049,-0.41638 0.098,-0.83625 0.14703,-1.25962 0.049,-0.42338 0.098,-0.85029 0.14702,-1.28078 0.049,-0.43049 0.098,-0.86457 0.14702,-1.30228 0.049,-0.43772 0.098,-0.87909 0.14703,-1.32415 0.049,-0.44507 0.098,-0.89385 0.14702,-1.34639 0.049,-0.45254 0.098,-0.90885 0.14702,-1.36899 0.049,-0.46014 0.098,-0.92412 0.14703,-1.39198 0.049,-0.46787 0.098,-0.93964 0.14702,-1.41536 0.049,-0.47572 0.098,-0.95541 0.14702,-1.43912 0.049,-0.48371 0.098,-0.97145 0.14703,-1.46328 0.049,-0.49183 0.098,-0.98777 0.14702,-1.48786 0.049,-0.50009 0.098,-1.00435 0.14702,-1.51284 0.049,-0.50849 0.098,-1.02122 0.14703,-1.53824 0.049,-0.51703 0.098,-1.03837 0.14702,-1.56408 0.049,-0.5257 0.098,-1.0558 0.14702,-1.59033 0.049,-0.53454 0.098,-1.07353 0.14703,-1.61704 0.049,-0.54351 0.098,-1.09156 0.14702,-1.64419 0.049,-0.55264 0.098,-1.10989 0.14702,-1.67181 0.049,-0.56191 0.098,-1.12852 0.14703,-1.69987 0.049,-0.57135 0.098,-1.14747 0.14702,-1.72842 0.049,-0.58094 0.098,-1.16674 0.14702,-1.75744 0.049,-0.5907 0.098,-1.18633 0.14703,-1.78695 0.049,-0.60062 0.098,-1.20625 0.14702,-1.81695 0.049,-0.61071 0.098,-1.22651 0.14702,-1.84747 0.049,-0.62096 0.098,-1.2471 0.14703,-1.87849 0.049,-0.63138 0.098,-1.26804 0.14702,-1.91003 0.049,-0.64199 0.098,-1.28933 0.14702,-1.9421 0.049,-0.65277 0.098,-1.31099 0.14703,-1.97472 0.049,-0.66372 0.098,-1.333 0.14702,-2.00787 0.049,-0.67487 0.098,-1.35538 0.14702,-2.04159 0.049,-0.6862 0.098,-1.37814 0.14703,-2.07587 0.049,-0.69773 0.098,-1.40128 0.14702,-2.11072 0.049,-0.70945 0.098,-1.42482 0.14702,-2.14617 0.049,-0.72136 0.098,-1.44874 0.14703,-2.18221 0.049,-0.73347 0.098,-1.47306 0.14702,-2.21885 0.049,-0.74579 0.098,-1.4978 0.14702,-2.25611 0.049,-0.75831 0.098,-1.52295 0.14703,-2.29399 0.049,-0.77104 0.098,-1.54852 0.14702,-2.33251 0.049,-0.78399 0.098,-1.57453 0.14702,-2.37168 0.049,-0.79715 0.098,-1.60096 0.14703,-2.4115 0.049,-0.81054 0.098,-1.62785 0.14702,-2.452 0.049,-0.82415 0.098,-1.65518 0.14702,-2.49316 0.049,-0.83799 0.098,-1.68298 0.14703,-2.53504 0.049,-0.85206 0.098,-1.71123 0.14702,-2.5776 0.049,-0.86636 0.098,-1.73996 0.14702,-2.62088 0.049,-0.88091 0.098,-1.76918 0.14703,-2.664889 0.049,-0.895706 0.098,-1.798892 0.14702,-2.709638 0.049,-0.910747 0.098,-1.829099 0.14702,-2.755138 0.049,-0.926039 0.098,-1.859812 0.14703,-2.8014 0.049,-0.941589 0.098,-1.891042 0.14702,-2.848441 0.049,-0.9574 0.098,-1.922795 0.14702,-2.896271 0.049,-0.973476 0.098,-1.955081 0.14703,-2.944903 0.049,-0.989823 0.098,-1.987911 0.14702,-2.994354 0.049,-1.006443 0.098,-2.02129 0.14702,-3.044633 0.049,-1.023343 0.098,-2.055231 0.14703,-3.095757 0.049,-1.040527 0.098,-2.089742 0.14702,-3.147741 0.049,-1.057998 0.098,-2.124832 0.14702,-3.200596 0.049,-1.075763 0.098,-2.160511 0.14703,-3.254339 0.049,-1.093827 0.098,-2.19679 0.14702,-3.308984 0.049,-1.112195 0.098,-2.233678 0.14702,-3.364548 0.049,-1.13087 0.098,-2.271185 0.14703,-3.421044 0.049,-1.149859 0.098,-2.309321 0.14702,-3.478489 0.049,-1.169167 0.098,-2.348098 0.14702,-3.536898 0.049,-1.1888 0.098,-2.387527 0.14703,-3.596288 0.049,-1.208762 0.098,-2.427618 0.14702,-3.656676 0.049,-1.229059 0.098,-2.468381 0.14702,-3.718077 0.049,-1.249697 0.098,-2.509829 0.14703,-3.78051 0.049,-1.270681 0.098,-2.551973 0.14702,-3.843991 0.049,-1.292017 0.098,-2.594824 0.14702,-3.908537 0.049,-1.313713 0.098,-2.638396 0.14703,-3.974168 0.049,-1.335772 0.098,-2.682699 0.14702,-4.040901 0.049,-1.358201 0.098,-2.727745 0.14702,-4.108753 0.049,-1.381008 0.098,-2.7735494 0.14703,-4.1777468 0.049,-1.4041974 0.098,-2.8201214 0.14702,-4.2478975 0.049,-1.4277761 0.098,-2.86747568 0.14702,-4.31922644 0.049,-1.45175076 0.098,-2.91562526 0.14703,-4.39175326 0.049,-1.4761279 0.098,-2.9645832 0.14702,-4.4654978 0.049,-1.5009142 0.098,-3.0143632 0.14702,-4.5404802 0.049,-1.526118 0.098,-3.06498 0.14703,-4.616723 0.049,-1.551743 0.098,-3.116445 0.14702,-4.694245 0.049,-1.577799 0.098,-3.168775 0.14702,-4.773069 0.049,-1.604293 0.098,-3.221984 0.14703,-4.853216 0.049,-1.631232 0.098,-3.276086 0.14702,-4.934709 0.049,-1.658623 0.098,-3.331098 0.14702,-5.017571 0.049,-1.686474 0.098,-3.387032 0.14703,-5.101825 0.049,-1.714792 0.098,-3.443905 0.14702,-5.187492 0.049,-1.743586 0.098,-3.501734 0.14702,-5.274598 0.049,-1.772864 0.098,-3.560534 0.14703,-5.363167 0.049,-1.802634 0.098,-3.620321 0.14702,-5.453224 0.049,-1.832903 0.098,-3.681112 0.14702,-5.544792 0.049,-1.86368 0.098,-3.742924 0.14703,-5.637898 0.049,-1.894974 0.098,-3.805773 0.14702,-5.732567 0.049,-1.926794 0.098,-3.869678 0.14702,-5.828826 0.049,-1.959148 0.098,-3.934657 0.14703,-5.926702 0.049,-1.99204 0.098,-4.00073 0.14702,-6.02622 0.049,-2.02549 0.098,-4.0679 0.14703,-6.12741 0.049,-2.05951 0.098,-4.13621 0.14702,-6.2303 0.049,-2.09409 0.098,-4.20566 0.14702,-6.33492 0.049,-2.12925 0.098,-4.27628 0.14703,-6.44129 0.049,-2.165 0.098,-4.34809 0.14702,-6.54944 0.049,-2.20136 0.098,-4.42111 0.14702,-6.65943 0.049,-2.23832 0.098,-4.49534 0.14703,-6.77125 0.049,-2.2759 0.098,-4.57082 0.14702,-6.88494 0.049,-2.31413 0.098,-4.64758 0.14702,-7.00056 0.049,-2.35298 0.098,-4.72562 0.14703,-7.11811 0.049,-2.39249 0.098,-4.80496 0.14702,-7.23763 0.049,-2.43267 0.098,-4.88565 0.14702,-7.35916 0.049,-2.47352 0.098,-4.96769 0.14703,-7.48274 0.049,-2.51505 0.098,-5.0511 0.14702,-7.60838 0.049,-2.55728 0.098,-5.13592 0.14702,-7.73614 0.049,-2.60022 0.098,-5.22216 0.14703,-7.86604 0.049,-2.64389 0.098,-5.30985 0.14702,-7.99813 0.049,-2.68828 0.098,-5.399 0.14702,-8.13242 0.049,-2.73342 0.098,-5.48967 0.14703,-8.26899 0.049,-2.77931 0.098,-5.58184 0.14702,-8.40783 0.049,-2.82599 0.098,-5.67557 0.14702,-8.54901 0.049,-2.87344 0.098,-5.77088 0.14703,-8.69257 0.049,-2.92169 0.098,-5.86777 0.14702,-8.83852 0.049,-2.97075 0.098,-5.96631 0.14702,-8.98694 0.049,-3.02064 0.098,-6.0665 0.14703,-9.13785 0.049,-3.07135 0.098,-6.16836 0.14702,-9.29128 0.049,-3.12293 0.098,-6.27194 0.14702,-9.4473 0.049,-3.17537 0.098,-6.37725 0.14703,-9.60594 0.049,-3.22869 0.098,-6.48433 0.14702,-9.76723 0.049,-3.2829 0.098,-6.59322 0.14702,-9.93125 0.049,-3.33802 0.098,-6.70392 0.14703,-10.098 0.049,-3.39408 0.098,-6.8165 0.14702,-10.26756 0.049,-3.45107 0.098,-6.93096 0.14702,-10.43998 0.049,-3.50902 0.098,-7.04734 0.14703,-10.61528 0.049,-3.56794 0.098,-7.16567 0.14702,-10.79352 0.049,-3.62785 0.098,-7.286 0.14702,-10.97477 0.049,-3.68877 0.098,-7.40834 0.14703,-11.15905 0.049,-3.75071 0.098,-7.53274 0.14702,-11.34643 0.049,-3.81369 0.098,-7.65922 0.14702,-11.53695 0.049,-3.87773 0.098,-7.78784 0.14703,-11.73068 0.049,-3.94284 0.098,-7.9186 0.14702,-11.92765 0.049,-4.00905 0.098,-8.05157 0.14702,-12.12794 0.049,-4.07636 0.098,-8.18677 0.14703,-12.33159 0.049,-4.14481 0.098,-8.32424 0.14702,-12.53865 0.049,-4.21441 0.098,-8.46402 0.14702,-12.7492 0.049,-4.28517 0.098,-8.60614 0.14703,-12.96327 0.049,-4.35714 0.098,-8.75066 0.14702,-13.18095 0.049,-4.4303 0.098,-8.89759 0.14702,-13.40228 0.049,-4.50469 0.098,-9.047 0.14703,-13.62733 0.049,-4.58033 0.098,-9.19891 0.14702,-13.85615 0.049,-4.65724 0.098,-9.35337 0.14702,-14.08882 0.049,-4.73544 0.098,-9.51043 0.14703,-14.32539 0.049,-4.81496 0.098,-9.67013 0.14702,-14.56594 0.049,-4.89581 0.098,-9.8325 0.14702,-14.81052 0.049,-4.97802 0.098,-9.99761 0.14703,-15.05922 0.049,-5.0616 0.098,-10.16548 0.14702,-15.31208 0.049,-5.1466 0.098,-10.33618 0.14702,-15.5692 0.049,-5.23302 0.098,-10.50974 0.14703,-15.83063 0.049,-5.32089 0.098,-10.68622 0.14702,-16.09645 0.049,-5.41024 0.098,-10.86566 0.14702,-16.36674 0.049,-5.50108 0.098,-11.04811 0.14703,-16.64156 0.049,-5.59346 0.098,-11.23362 0.14702,-16.921 0.049,-5.68738 0.098,-11.42225 0.14702,-17.20513 0.049,-5.78288 0.098,-11.61405 0.14703,-17.49403 0.049,-5.87999 0.098,-11.80907 0.14702,-17.78779 0.049,-5.97872 0.098,-12.00736 0.14702,-18.08647 0.049,-6.07911 0.098,-12.20898 0.14703,-18.39017 0.049,-6.18119 0.098,-12.41399 0.14702,-18.69897 0.049,-6.28498 0.098,-12.62245 0.14702,-19.01296 0.049,-6.39051 0.098,-12.8344 0.14703,-19.33222 0.049,-6.49782 0.098,-13.0499 0.14702,-19.65683 0.049,-6.60693 0.098,-13.26903 0.14702,-19.98691 0.049,-6.71787 0.098,-13.49184 0.14703,-20.32251 0.049,-6.83068 0.098,-13.71839 0.14702,-20.66377 0.049,-6.94537 0.098,-13.94881 0.14702,-21.01081 0.049,-7.062 0.098,-14.1829 0.14703,-21.3635 0.049,-7.1806 0.098,-14.4211 0.14702,-21.7223 0.049,-7.3011 0.098,-14.6633 0.14702,-22.087 0.049,-7.4238 0.098,-14.9095 0.14703,-22.4579 0.049,-7.5484 0.098,-15.1599 0.14702,-22.835 0.049,-7.6752 0.098,-15.4144 0.14702,-23.2185 0.049,-7.804 0.098,-15.6732 0.14703,-23.6083 0.049,-7.9351 0.098,-15.9364 0.14702,-24.0047 0.049,-8.0683 0.098,-16.204 0.14702,-24.4078 0.049,-8.2038 0.098,-16.4762 0.14703,-24.8177 0.049,-8.3416 0.098,-16.7528 0.14702,-25.2344 0.049,-8.4816 0.098,-17.0341 0.14702,-25.6581 0.049,-8.6241 0.098,-17.3201 0.14703,-26.089 0.049,-8.7688 0.098,-17.6109 0.14702,-26.527 0.049,-8.9161 0.098,-17.9067 0.14702,-26.9725 0.049,-9.0658 0.098,-18.2073 0.14703,-27.4254 0.049,-9.218 0.098,-18.513 0.14702,-27.8859 0.049,-9.3728 0.098,-18.8239 0.14702,-28.3541 0.049,-9.5302 0.098,-19.14 0.14703,-28.8303 0.049,-9.6902 0.098,-19.4614 0.14702,-29.3143 0.049,-9.853 0.098,-19.7882 0.14702,-29.8066 0.049,-10.0184 0.098,-20.1205 0.14703,-30.3071 0.049,-10.1866 0.098,-20.4583 0.14702,-30.816 0.049,-10.3577 0.098,-20.8019 0.14702,-31.3335 0.049,-10.5316 0.098,-21.1511 0.14703,-31.8595 0.049,-10.7085 0.098,-21.5064 0.14702,-32.3946 0.049,-10.8883 0.098,-21.8674 0.14702,-32.9385 0.049,-11.0711 0.098,-22.2347 0.14703,-33.4916 0.049,-11.257 0.098,-22.608 0.14702,-34.054 0.049,-11.446 0.098,-22.9876 0.14702,-34.6258 0.049,-11.6382 0.098,-23.3736 0.14703,-35.2073 0.049,-11.8336 0.098,-23.7661 0.14702,-35.7984 0.049,-12.0323 0.098,-24.1652 0.14702,-36.3995 0.049,-12.2344 0.098,-24.571 0.14703,-37.0108 0.049,-12.4398 0.098,-24.9835 0.14702,-37.6322 0.049,-12.6487 0.098,-25.403 0.14703,-38.2641 0.049,-12.8611 0.098,-25.8296 0.14702,-38.9066 0.049,-13.0771 0.098,-26.2633 0.14702,-39.56 0.049,-13.2966 0.098,-26.7043 0.14703,-40.2242 0.049,-13.5199 0.098,-27.1527 0.14702,-40.8996 0.049,-13.7469 0.098,-27.6086 0.14702,-41.5864 0.049,-13.9778 0.098,-28.0723 0.14703,-42.2847 0.049,-14.2125 0.098,-28.5436 0.14702,-42.9948 0.049,-14.4511 0.098,-29.0229 0.14702,-43.7166 0.049,-14.6938 0.098,-29.5103 0.14703,-44.4508 0.049,-14.9405 0.098,-30.0058 0.14702,-45.1972 0.049,-15.1914 0.098,-30.5096 0.14702,-45.9561 0.049,-15.4464 0.098,-31.0219 0.14703,-46.7277 0.049,-15.7059 0.098,-31.5429 0.14702,-47.5124 0.049,-15.9696 0.098,-32.0725 0.14702,-48.3103 0.049,-16.2377 0.098,-32.611 0.14703,-49.1214 0.049,-16.5104 0.098,-33.1586 0.14702,-49.9462 0.049,-16.7876 0.098,-33.7155 0.14702,-50.785 0.049,-17.0695 0.098,-34.2815 0.14703,-51.6376 0.049,-17.3562 0.098,-34.8573 0.14702,-52.5048 0.049,-17.6476 0.098,-35.4425 0.14702,-53.3864 0.049,-17.9439 0.098,-36.0377 0.14703,-54.2829 0.049,-18.2452 0.098,-36.6427 0.14702,-55.1943 0.049,-18.5516 0.098,-37.2581 0.14702,-56.1212 0.049,-18.863 0.098,-37.8837 0.14703,-57.0635 0.049,-19.1798 0.098,-38.5198 0.14702,-58.0217 0.049,-19.5019 0.098,-39.1666 0.14702,-58.996 0.049,-19.8293 0.098,-39.8243 0.14703,-59.9866 0.049,-20.1623 0.098,-40.493 0.14702,-60.9939 0.049,-20.5008 0.098,-41.1729 0.14702,-62.018 0.049,-20.8451 0.098,-41.8643 0.14703,-63.0595 0.049,-21.1951 0.098,-42.5673 0.14702,-64.1183 0.049,-21.551 0.098,-43.2821 0.14702,-65.195 0.049,-21.9129 0.098,-44.0088 0.14703,-66.2897 0.049,-22.2809 0.098,-44.7478 0.14702,-67.4028 0.049,-22.655 0.098,-45.4992 0.14702,-68.5346 0.049,-23.0354 0.098,-46.2632 0.14703,-69.6854 0.049,-23.4222 0.098,-47.0401 0.14702,-70.8556 0.049,-23.8155 0.098,-47.8299 0.14702,-72.0453 0.049,-24.2154 0.098,-48.6331 0.14703,-73.2551 0.049,-24.622 0.098,-49.4497 0.14702,-74.4851 0.049,-25.0355 0.098,-50.2801 0.14702,-75.7359 0.049,-25.4559 0.098,-51.1243 0.14703,-77.0076 0.049,-25.8833 0.098,-51.9828 0.14702,-78.3007 0.049,-26.3179 0.098,-52.8557 0.14702,-79.6155 0.049,-26.7598 0.098,-53.7432 0.14703,-80.9524 0.049,-27.2091 0.098,-54.6456 0.14702,-82.3116 0.049,-27.6661 0.098,-55.5632 0.14702,-83.6938 0.049,-28.1307 0.098,-56.4962 0.14703,-85.0992 0.049,-28.603 0.098,-57.4449 0.14702,-86.5281 0.049,-29.0833 0.098,-58.4095 0.14702,-87.9811 0.049,-29.5717 0.098,-59.3902 0.14703,-89.4584 0.049,-30.0682 0.098,-60.3875 0.14702,-90.9606 0.049,-30.5731 0.098,-61.4015 0.14702,-92.4879 0.049,-31.0865 0.098,-62.4325 0.14703,-94.041 0.049,-31.6084 0.098,-63.4808 0.14702,-95.6201 0.049,-32.1392 0.098,-64.5468 0.14702,-97.2256 0.049,-32.6789 0.098,-65.6307 0.14703,-98.8583 0.049,-33.2276 0.098,-66.7327 0.14702,-100.5182 0.049,-33.7856 0.098,-67.8532 0.14702,-102.2061 0.049,-34.3529 0.098,-68.9926 0.14703,-103.9223 0.049,-34.9297 0.098,-70.1511 0.14702,-105.6673 0.049,-35.5163 0.098,-71.3291 0.14702,-107.4417 0.049,-36.1126 0.098,-72.5268 0.14703,-109.2457 0.049,-36.719 0.098,-73.7447 0.14702,-111.0802 0.049,-37.3356 0.098,-74.9829 0.14702,-112.9454 0.049,-37.9625 0.098,-76.242 0.14703,-114.8419 0.049,-38.6 0.098,-77.5223 0.14702,-116.7703 0.049,-39.2481 0.098,-78.824 0.14702,-118.7311 0.049,-39.9071 0.098,-80.1475 0.14703,-120.7248 0.049,-40.5772 0.098,-81.4933 0.14702,-122.7519 0.049,-41.2586 0.098,-82.8617 0.14702,-124.8131 0.049,-41.9514 0.098,-84.2531 0.14703,-126.9089 0.049,-42.6559 0.098,-85.6679 0.14702,-129.04 0.049,-43.372 0.098,-87.1063 0.14702,-131.2067 0.049,-44.1004 0.098,-88.569 0.14703,-133.4099 0.049,-44.8409 0.098,-90.0562 0.14702,-135.65 0.049,-45.5939 0.098,-91.5685 0.14702,-137.9279 0.049,-46.3594 0.098,-93.106 0.14703,-140.2439 0.049,-47.1378 0.098,-94.6694 0.14702,-142.5987 0.049,-47.9294 0.098,-96.2591 0.14702,-144.9933 0.049,-48.7342 0.098,-97.8754 0.14703,-147.4279 0.049,-49.5526 0.098,-99.5189 0.14702,-149.9035 0.049,-50.3846 0.098,-101.19 0.14702,-152.4206 0.049,-51.2306 0.098,-102.8891 0.14703,-154.98 0.049,-52.0909 0.098,-104.6167 0.14702,-157.5823 0.049,-52.9656 0.098,-106.3735 0.14702,-160.2284 0.049,-53.855 0.098,-108.1597 0.14703,-162.9189 0.049,-54.7593 0.098,-109.9758 0.14702,-165.6546 0.049,-55.6787 0.098,-111.8225 0.14702,-168.4361 0.049,-56.6137 0.098,-113.7008 0.14703,-171.2648 0.049,-57.564 0.098,-115.609 0.14702,-174.14 0.049,-58.531 0.098,-117.551 0.14702,-177.065 0.049,-59.513 0.098,-119.524 0.14703,-180.037 0.049,-60.513 0.098,-121.532 0.14702,-183.061 0.049,-61.529 0.098,-123.572 0.14702,-186.134 0.049,-62.563 0.098,-125.648 0.14703,-189.26 0.049,-63.613 0.098,-127.757 0.14702,-192.439 0.049,-64.681 0.098,-129.902 0.14702,-195.669 0.049,-65.767 0.098,-132.083 0.14703,-198.955 0.049,-66.871 0.098,-134.301 0.14702,-202.296 0.049,-67.994 0.098,-136.556 0.14702,-205.692 0.049,-69.136 0.098,-138.85 0.14703,-209.147 0.049,-70.297 0.098,-141.181 0.14702,-212.658 0.049,-71.478 0.098,-143.552 0.14702,-216.23 0.049,-72.677 0.098,-145.962 0.14703,-219.86 0.049,-73.898 0.098,-148.413 0.14702,-223.552 0.049,-75.139 0.098,-150.905 0.14702,-227.306 0.049,-76.4 0.098,-153.439 0.14703,-231.122 0.049,-77.684 0.098,-156.016 0.14702,-235.004 0.049,-78.988 0.098,-158.635 0.14703,-238.949 0.049,-80.315 0.098,-161.3 0.14702,-242.962 0.049,-81.663 0.098,-164.008 0.14702,-247.042 0.049,-83.034 0.098,-166.762 0.14703,-251.19 0.049,-84.428 0.098,-169.562 0.14702,-255.408 0.049,-85.846 0.098,-172.409 0.14702,-259.696 0.049,-87.288 0.098,-175.304 0.14703,-264.058 0.049,-88.753 0.098,-178.247 0.14702,-268.491 0.049,-90.243 0.098,-181.24 0.14702,-272.999 0.049,-91.759 0.098,-184.284 0.14703,-277.584 0.049,-93.3 0.098,-187.378 0.14702,-282.245 0.049,-94.866 0.098,-190.525 0.14702,-286.984 0.049,-96.459 0.098,-193.724 0.14703,-291.803 0.049,-98.079 0.098,-196.977 0.14702,-296.703 0.049,-99.726 0.098,-200.284 0.14702,-301.685 0.049,-101.4 0.098,-203.647 0.14703,-306.75 0.049,-103.104 0.098,-207.068 0.14702,-311.902 0.049,-104.834 0.098,-210.544 0.14702,-317.139 0.049,-106.595 0.098,-214.079 0.14703,-322.464 0.049,-108.385 0.098,-217.674 0.14702,-327.879 0.049,-110.205 0.098,-221.329 0.14702,-333.384 0.049,-112.055 0.098,-225.046 0.14703,-338.983 0.049,-113.937 0.098,-228.825 0.14702,-344.675 0.049,-115.849 0.098,-232.667 0.14702,-350.462 0.049,-117.795 0.098,-236.574 0.14703,-356.347 0.049,-119.773 0.098,-240.546 0.14702,-362.331 0.049,-121.784 0.098,-244.585 0.14702,-368.414 0.049,-123.83 0.098,-248.693 0.14703,-374.602 0.049,-125.908 0.098,-252.868 0.14702,-380.891 0.049,-128.023 0.098,-257.114 0.14702,-387.287 0.049,-130.172 0.098,-261.432 0.14703,-393.79 0.049,-132.358 0.098,-265.822 0.14702,-400.403 0.049,-134.58 0.098,-270.285 0.14702,-407.126 0.049,-136.84 0.098,-274.823 0.14703,-413.962 V 260.81307"
       style="opacity:1;fill:none;fill-opacity:1;stroke:#000000;stroke-width:0.26499999;stroke-miterlimit:4;stroke-dasharray:none;stroke-dashoffset:0;stroke-opacity:1"
       inkscape:connector-curvature="0" />
    <text
       xml:space="preserve"
       style="font-style:normal;font-weight:normal;font-size:10.58333302px;line-height:1.25;font-family:sans-serif;letter-spacing:0px;word-spacing:0px;fill:#000000;fill-opacity:1;stroke:none;stroke-width:0.26458332"
       x="127.14047"
       y="256.07797"
       id="text1025"><tspan
         sodipodi:role="line"
         id="tspan1023"
         x="127.14047"
         y="256.07797"
         style="stroke-width:0.26458332">$(0, 1)$</tspan></text>
    <text
       xml:space="preserve"
       style="font-style:normal;font-weight:normal;font-size:5.3594594px;line-height:1.25;font-family:sans-serif;letter-spacing:0px;word-spacing:0px;fill:#000000;fill-opacity:1;stroke:none;stroke-width:0.13398647"
       x="30.545429"
       y="285.68536"
       id="text1029"><tspan
         sodipodi:role="line"
         id="tspan1027"
         x="30.545429"
         y="285.68536"
         style="stroke-width:0.13398647">Asymptote $y=0$</tspan></text>
    <circle
       style="opacity:1;fill:#000000;fill-opacity:1;stroke:#000000;stroke-width:0.26499999;stroke-miterlimit:4;stroke-dasharray:none;stroke-dashoffset:0;stroke-opacity:1"
       id="path1031"
       cx="119.83592"
       cy="255.05908"
       r="1.8293023" />
  </g>
</svg>
