<?xml version="1.0" encoding="UTF-8" standalone="no"?>
<!-- Created with Inkscape (http://www.inkscape.org/) -->

<svg
   xmlns:dc="http://purl.org/dc/elements/1.1/"
   xmlns:cc="http://creativecommons.org/ns#"
   xmlns:rdf="http://www.w3.org/1999/02/22-rdf-syntax-ns#"
   xmlns:svg="http://www.w3.org/2000/svg"
   xmlns="http://www.w3.org/2000/svg"
   xmlns:sodipodi="http://sodipodi.sourceforge.net/DTD/sodipodi-0.dtd"
   xmlns:inkscape="http://www.inkscape.org/namespaces/inkscape"
   width="240mm"
   height="120mm"
   viewBox="0 0 240 120"
   version="1.1"
   id="svg8"
   inkscape:version="0.92.4 5da689c313, 2019-01-14"
   sodipodi:docname="linear-modulus-graph.svg">
  <defs
     id="defs2">
    <clipPath
       id="clipPath">
      <rect
         y="200.14676"
         x="54.546467"
         height="68.91481"
         width="137.82962"
         id="rect816"
         style="opacity:1;fill:none;fill-opacity:0.27891158;stroke:#000000;stroke-width:0.26499999;stroke-miterlimit:4;stroke-dasharray:none;stroke-dashoffset:0;stroke-opacity:1" />
    </clipPath>
  </defs>
  <sodipodi:namedview
     id="base"
     pagecolor="#ffffff"
     bordercolor="#666666"
     borderopacity="1.0"
     inkscape:pageopacity="0.0"
     inkscape:pageshadow="2"
     inkscape:zoom="1.9887478"
     inkscape:cx="417.64314"
     inkscape:cy="170.35242"
     inkscape:document-units="mm"
     inkscape:current-layer="layer1"
     showgrid="false"
     showborder="true"
     width="200mm"
     showguides="true"
     inkscape:guide-bbox="true"
     inkscape:window-width="2960"
     inkscape:window-height="1890"
     inkscape:window-x="20"
     inkscape:window-y="90"
     inkscape:window-maximized="0">
    <inkscape:grid
       dotted="false"
       empspacing="4"
       spacingy="10"
       spacingx="10"
       units="mm"
       id="grid815"
       type="xygrid" />
  </sodipodi:namedview>
  <metadata
     id="metadata5">
    <rdf:RDF>
      <cc:Work
         rdf:about="">
        <dc:format>image/svg+xml</dc:format>
        <dc:type
           rdf:resource="http://purl.org/dc/dcmitype/StillImage" />
        <dc:title />
      </cc:Work>
    </rdf:RDF>
  </metadata>
  <g
     inkscape:label="Layer 1"
     inkscape:groupmode="layer"
     id="layer1"
     transform="translate(0,-177)">
    <rect
       y="200.14676"
       x="54.546467"
       height="68.91481"
       width="137.82962"
       id="rect976"
       style="opacity:1;fill:none;fill-opacity:0.27891158;stroke:#000000;stroke-width:0.26499999;stroke-miterlimit:4;stroke-dasharray:none;stroke-dashoffset:0;stroke-opacity:1" />
    <path
       id="path978"
       clip-path="url(#clipPath)"
       title="fabs(3*x-5)"
       d="M 54.546467 234.604165 l 137.82962 0 M 123.461277 269.06157 l 0 -68.91481 M 54.546467 234.604165 L 54.546467 10.6310325 C 54.5924561959 10.7690000876 54.6384453917 10.9069676752 54.6844345876 11.0449352628 C 54.7304237835 11.1829028504 54.7764129793 11.3208704379 54.8224021752 11.4588380255 C 54.868391371 11.5968056131 54.9143805669 11.7347732007 54.9603697628 11.8727407883 C 55.0063589586 12.0107083759 55.0523481545 12.1486759635 55.0983373504 12.2866435511 C 55.1443265462 12.4246111386 55.1903157421 12.5625787262 55.2363049379 12.7005463138 C 55.2822941338 12.8385139014 55.3282833297 12.976481489 55.3742725255 13.1144490766 C 55.4202617214 13.2524166642 55.4662509172 13.3903842517 55.5122401131 13.5283518393 C 55.558229309 13.6663194269 55.6042185048 13.8042870145 55.6502077007 13.9422546021 C 55.6961968966 14.0802221897 55.7421860924 14.2181897773 55.7881752883 14.3561573649 C 55.8341644842 14.4941249525 55.88015368 14.63209254 55.9261428759 14.7700601276 C 55.9721320717 14.9080277152 56.0181212676 15.0459953028 56.0641104635 15.1839628904 C 56.1100996593 15.321930478 56.1560888552 15.4598980656 56.2020780511 15.5978656532 C 56.2480672469 15.7358332408 56.2940564428 15.8738008283 56.3400456386 16.0117684159 C 56.3860348345 16.1497360035 56.4320240304 16.2877035911 56.4780132262 16.4256711787 C 56.5240024221 16.5636387663 56.569991618 16.7016063538 56.6159808138 16.8395739414 C 56.6619700097 16.977541529 56.7079592055 17.1155091166 56.7539484014 17.2534767042 C 56.7999375973 17.3914442918 56.8459267931 17.5294118794 56.891915989 17.667379467 C 56.9379051849 17.8053470546 56.9838943807 17.9433146421 57.0298835766 18.0812822297 C 57.0758727724 18.2192498173 57.1218619683 18.3572174049 57.1678511642 18.4951849925 C 57.21384036 18.6331525801 57.2598295559 18.7711201677 57.3058187518 18.9090877553 C 57.3518079476 19.0470553429 57.3977971435 19.1850229304 57.4437863393 19.322990518 C 57.4897755352 19.4609581056 57.5357647311 19.5989256932 57.5817539269 19.7368932808 C 57.6277431228 19.8748608684 57.6737323187 20.0128284559 57.7197215145 20.1507960435 C 57.7657107104 20.2887636311 57.8116999062 20.4267312187 57.8576891021 20.5646988063 C 57.903678298 20.7026663939 57.9496674938 20.8406339815 57.9956566897 20.9786015691 C 58.0416458856 21.1165691567 58.0876350814 21.2545367442 58.1336242773 21.3925043318 C 58.1796134731 21.5304719194 58.225602669 21.668439507 58.2715918649 21.8064070946 C 58.3175810607 21.9443746822 58.3635702566 22.0823422698 58.4095594525 22.2203098574 C 58.4555486483 22.358277445 58.5015378442 22.4962450325 58.54752704 22.6342126201 C 58.5935162359 22.7721802077 58.6395054318 22.9101477953 58.6854946276 23.0481153829 C 58.7314838235 23.1860829705 58.7774730194 23.324050558 58.8234622152 23.4620181456 C 58.8694514111 23.5999857332 58.9154406069 23.7379533208 58.9614298028 23.8759209084 C 59.0074189987 24.013888496 59.0534081945 24.1518560836 59.0993973904 24.2898236712 C 59.1453865863 24.4277912588 59.1913757821 24.5657588463 59.237364978 24.7037264339 C 59.2833541738 24.8416940215 59.3293433697 24.9796616091 59.3753325656 25.1176291967 C 59.4213217614 25.2555967843 59.4673109573 25.3935643719 59.5133001532 25.5315319595 C 59.559289349 25.6694995471 59.6052785449 25.8074671346 59.6512677407 25.9454347222 C 59.6972569366 26.0834023098 59.7432461325 26.2213698974 59.7892353283 26.359337485 C 59.8352245242 26.4973050726 59.8812137201 26.6352726601 59.9272029159 26.7732402477 C 59.9731921118 26.9112078353 60.0191813076 27.0491754229 60.0651705035 27.1871430105 C 60.1111596994 27.3251105981 60.1571488952 27.4630781857 60.2031380911 27.6010457733 C 60.249127287 27.7390133609 60.2951164828 27.8769809484 60.3411056787 28.014948536 C 60.3870948745 28.1529161236 60.4330840704 28.2908837112 60.4790732663 28.4288512988 C 60.5250624621 28.5668188864 60.571051658 28.704786474 60.6170408539 28.8427540616 C 60.6630300497 28.9807216492 60.7090192456 29.1186892367 60.7550084414 29.2566568243 C 60.8009976373 29.3946244119 60.8469868332 29.5325919995 60.892976029 29.6705595871 C 60.9389652249 29.8085271747 60.9849544208 29.9464947623 61.0309436166 30.0844623498 C 61.0769328125 30.2224299374 61.1229220083 30.360397525 61.1689112042 30.4983651126 C 61.2149004001 30.6363327002 61.2608895959 30.7743002878 61.3068787918 30.9122678754 C 61.3528679877 31.050235463 61.3988571835 31.1882030505 61.4448463794 31.3261706381 C 61.4908355752 31.4641382257 61.5368247711 31.6021058133 61.582813967 31.7400734009 C 61.6288031628 31.8780409885 61.6747923587 32.0160085761 61.7207815546 32.1539761637 C 61.7667707504 32.2919437513 61.8127599463 32.4299113388 61.8587491421 32.5678789264 C 61.904738338 32.705846514 61.9507275339 32.8438141016 61.9967167297 32.9817816892 C 62.0427059256 33.1197492768 62.0886951215 33.2577168644 62.1346843173 33.395684452 C 62.1806735132 33.5336520396 62.226662709 33.6716196271 62.2726519049 33.8095872147 C 62.3186411008 33.9475548023 62.3646302966 34.0855223899 62.4106194925 34.2234899775 C 62.4566086884 34.3614575651 62.5025978842 34.4994251526 62.5485870801 34.6373927402 C 62.5945762759 34.7753603278 62.6405654718 34.9133279154 62.6865546677 35.051295503 C 62.7325438635 35.1892630906 62.7785330594 35.3272306782 62.8245222553 35.4651982658 C 62.8705114511 35.6031658534 62.916500647 35.7411334409 62.9624898428 35.8791010285 C 63.0084790387 36.0170686161 63.0544682346 36.1550362037 63.1004574304 36.2930037913 C 63.1464466263 36.4309713789 63.1924358222 36.5689389665 63.238425018 36.7069065541 C 63.2844142139 36.8448741417 63.3304034097 36.9828417292 63.3763926056 37.1208093168 C 63.4223818015 37.2587769044 63.4683709973 37.396744492 63.5143601932 37.5347120796 C 63.5603493891 37.6726796672 63.6063385849 37.8106472547 63.6523277808 37.9486148423 C 63.6983169766 38.0865824299 63.7443061725 38.2245500175 63.7902953684 38.3625176051 C 63.8362845642 38.5004851927 63.8822737601 38.6384527803 63.928262956 38.7764203679 C 63.9742521518 38.9143879555 64.0202413477 39.052355543 64.0662305435 39.1903231306 C 64.1122197394 39.3282907182 64.1582089353 39.4662583058 64.2041981311 39.6042258934 C 64.250187327 39.742193481 64.2961765229 39.8801610686 64.3421657187 40.0181286562 C 64.3881549146 40.1560962438 64.4341441104 40.2940638313 64.4801333063 40.4320314189 C 64.5261225022 40.5699990065 64.572111698 40.7079665941 64.6181008939 40.8459341817 C 64.6640900898 40.9839017693 64.7100792856 41.1218693568 64.7560684815 41.2598369444 C 64.8020576773 41.397804532 64.8480468732 41.5357721196 64.8940360691 41.6737397072 C 64.9400252649 41.8117072948 64.9860144608 41.9496748824 65.0320036567 42.08764247 C 65.0779928525 42.2256100576 65.1239820484 42.3635776451 65.1699712442 42.5015452327 C 65.2159604401 42.6395128203 65.261949636 42.7774804079 65.3079388318 42.9154479955 C 65.3539280277 43.0534155831 65.3999172236 43.1913831707 65.4459064194 43.3293507583 C 65.4918956153 43.4673183459 65.5378848111 43.6052859334 65.583874007 43.743253521 C 65.6298632029 43.8812211086 65.6758523987 44.0191886962 65.7218415946 44.1571562838 C 65.7678307905 44.2951238714 65.8138199863 44.4330914589 65.8598091822 44.5710590465 C 65.905798378 44.7090266341 65.9517875739 44.8469942217 65.9977767698 44.9849618093 C 66.0437659656 45.1229293969 66.0897551615 45.2608969845 66.1357443574 45.3988645721 C 66.1817335532 45.5368321597 66.2277227491 45.6747997472 66.2737119449 45.8127673348 C 66.3197011408 45.9507349224 66.3656903367 46.08870251 66.4116795325 46.2266700976 C 66.4576687284 46.3646376852 66.5036579243 46.5026052728 66.5496471201 46.6405728604 C 66.595636316 46.778540448 66.6416255118 46.9165080355 66.6876147077 47.0544756231 C 66.7336039036 47.1924432107 66.7795930994 47.3304107983 66.8255822953 47.4683783859 C 66.8715714912 47.6063459735 66.917560687 47.7443135611 66.9635498829 47.8822811486 C 67.0095390787 48.0202487362 67.0555282746 48.1582163238 67.1015174705 48.2961839114 C 67.1475066663 48.434151499 67.1934958622 48.5721190866 67.2394850581 48.7100866742 C 67.2854742539 48.8480542618 67.3314634498 48.9860218493 67.3774526456 49.1239894369 C 67.4234418415 49.2619570245 67.4694310374 49.3999246121 67.5154202332 49.5378921997 C 67.5614094291 49.6758597873 67.607398625 49.8138273749 67.6533878208 49.9517949625 C 67.6993770167 50.0897625501 67.7453662125 50.2277301376 67.7913554084 50.3656977252 C 67.8373446043 50.5036653128 67.8833338001 50.6416329004 67.929322996 50.779600488 C 67.9753121919 50.9175680756 68.0213013877 51.0555356632 68.0672905836 51.1935032508 C 68.1132797794 51.3314708383 68.1592689753 51.4694384259 68.2052581712 51.6074060135 C 68.251247367 51.7453736011 68.2972365629 51.8833411887 68.3432257588 52.0213087763 C 68.3892149546 52.1592763639 68.4352041505 52.2972439514 68.4811933463 52.435211539 C 68.5271825422 52.5731791266 68.5731717381 52.7111467142 68.6191609339 52.8491143018 C 68.6651501298 52.9870818894 68.7111393257 53.125049477 68.7571285215 53.2630170646 C 68.8031177174 53.4009846522 68.8491069132 53.5389522397 68.8950961091 53.6769198273 C 68.941085305 53.8148874149 68.9870745008 53.9528550025 69.0330636967 54.0908225901 C 69.0790528926 54.2287901777 69.1250420884 54.3667577653 69.1710312843 54.5047253529 C 69.2170204801 54.6426929404 69.263009676 54.780660528 69.3089988719 54.9186281156 C 69.3549880677 55.0565957032 69.4009772636 55.1945632908 69.4469664595 55.3325308784 C 69.4929556553 55.470498466 69.5389448512 55.6084660536 69.584934047 55.7464336411 C 69.6309232429 55.8844012287 69.6769124388 56.0223688163 69.7229016346 56.1603364039 C 69.7688908305 56.2983039915 69.8148800264 56.4362715791 69.8608692222 56.5742391667 C 69.9068584181 56.7122067543 69.9528476139 56.8501743418 69.9988368098 56.9881419294 C 70.0448260057 57.126109517 70.0908152015 57.2640771046 70.1368043974 57.4020446922 C 70.1827935933 57.5400122798 70.2287827891 57.6779798674 70.274771985 57.815947455 C 70.3207611808 57.9539150425 70.3667503767 58.0918826301 70.4127395726 58.2298502177 C 70.4587287684 58.3678178053 70.5047179643 58.5057853929 70.5507071602 58.6437529805 C 70.596696356 58.7817205681 70.6426855519 58.9196881557 70.6886747477 59.0576557432 C 70.7346639436 59.1956233308 70.7806531395 59.3335909184 70.8266423353 59.471558506 C 70.8726315312 59.6095260936 70.9186207271 59.7474936812 70.9646099229 59.8854612688 C 71.0105991188 60.0234288564 71.0565883146 60.1613964439 71.1025775105 60.2993640315 C 71.1485667064 60.4373316191 71.1945559022 60.5752992067 71.2405450981 60.7132667943 C 71.286534294 60.8512343819 71.3325234898 60.9892019695 71.3785126857 61.1271695571 C 71.4245018815 61.2651371446 71.4704910774 61.4031047322 71.5164802733 61.5410723198 C 71.5624694691 61.6790399074 71.608458665 61.817007495 71.6544478609 61.9549750826 C 71.7004370567 62.0929426702 71.7464262526 62.2309102578 71.7924154484 62.3688778453 C 71.8384046443 62.5068454329 71.8843938402 62.6448130205 71.930383036 62.7827806081 C 71.9763722319 62.9207481957 72.0223614278 63.0587157833 72.0683506236 63.1966833709 C 72.1143398195 63.3346509585 72.1603290153 63.472618546 72.2063182112 63.6105861336 C 72.2523074071 63.7485537212 72.2982966029 63.8865213088 72.3442857988 64.0244888964 C 72.3902749947 64.162456484 72.4362641905 64.3004240716 72.4822533864 64.4383916592 C 72.5282425822 64.5763592467 72.5742317781 64.7143268343 72.620220974 64.8522944219 C 72.6662101698 64.9902620095 72.7121993657 65.1282295971 72.7581885616 65.2661971847 C 72.8041777574 65.4041647723 72.8501669533 65.5421323599 72.8961561491 65.6800999474 C 72.942145345 65.818067535 72.9881345409 65.9560351226 73.0341237367 66.0940027102 C 73.0801129326 66.2319702978 73.1261021285 66.3699378854 73.1720913243 66.507905473 C 73.2180805202 66.6458730606 73.264069716 66.7838406481 73.3100589119 66.9218082357 C 73.3560481078 67.0597758233 73.4020373036 67.1977434109 73.4480264995 67.3357109985 C 73.4940156954 67.4736785861 73.5400048912 67.6116461737 73.5859940871 67.7496137613 C 73.631983283 67.8875813489 73.6779724788 68.0255489364 73.7239616747 68.163516524 C 73.7699508705 68.3014841116 73.8159400664 68.4394516992 73.8619292623 68.5774192868 C 73.9079184581 68.7153868744 73.953907654 68.853354462 73.9998968498 68.9913220495 C 74.0458860457 69.1292896371 74.0918752416 69.2672572247 74.1378644374 69.4052248123 C 74.1838536333 69.5431923999 74.2298428292 69.6811599875 74.275832025 69.8191275751 C 74.3218212209 69.9570951627 74.3678104167 70.0950627502 74.4137996126 70.2330303378 C 74.4597888085 70.3709979254 74.5057780043 70.508965513 74.5517672002 70.6469331006 C 74.5977563961 70.7849006882 74.6437455919 70.9228682758 74.6897347878 71.0608358634 C 74.7357239837 71.198803451 74.7817131795 71.3367710385 74.8277023754 71.4747386261 C 74.8736915712 71.6127062137 74.9196807671 71.7506738013 74.965669963 71.8886413889 C 75.0116591588 72.0266089765 75.0576483547 72.1645765641 75.1036375506 72.3025441517 C 75.1496267464 72.4405117392 75.1956159423 72.5784793268 75.2416051381 72.7164469144 C 75.287594334 72.854414502 75.3335835299 72.9923820896 75.3795727257 73.1303496772 C 75.4255619216 73.2683172648 75.4715511174 73.4062848523 75.5175403133 73.5442524399 C 75.5635295092 73.6822200275 75.609518705 73.8201876151 75.6555079009 73.9581552027 C 75.7014970968 74.0961227903 75.7474862926 74.2340903779 75.7934754885 74.3720579655 C 75.8394646844 74.5100255531 75.8854538802 74.6479931406 75.9314430761 74.7859607282 C 75.9774322719 74.9239283158 76.0234214678 75.0618959034 76.0694106637 75.199863491 C 76.1153998595 75.3378310786 76.1613890554 75.4757986662 76.2073782513 75.6137662538 C 76.2533674471 75.7517338413 76.299356643 75.8897014289 76.3453458388 76.0276690165 C 76.3913350347 76.1656366041 76.4373242306 76.3036041917 76.4833134264 76.4415717793 C 76.5293026223 76.5795393669 76.5752918182 76.7175069545 76.621281014 76.855474542 C 76.6672702099 76.9934421296 76.7132594057 77.1314097172 76.7592486016 77.2693773048 C 76.8052377975 77.4073448924 76.8512269933 77.54531248 76.8972161892 77.6832800676 C 76.9432053851 77.8212476552 76.9891945809 77.9592152427 77.0351837768 78.0971828303 C 77.0811729726 78.2351504179 77.1271621685 78.3731180055 77.1731513644 78.5110855931 C 77.2191405602 78.6490531807 77.2651297561 78.7870207683 77.311118952 78.9249883559 C 77.3571081478 79.0629559434 77.4030973437 79.200923531 77.4490865395 79.3388911186 C 77.4950757354 79.4768587062 77.5410649313 79.6148262938 77.5870541271 79.7527938814 C 77.633043323 79.890761469 77.6790325189 80.0287290566 77.7250217147 80.1666966441 C 77.7710109106 80.3046642317 77.8170001064 80.4426318193 77.8629893023 80.5805994069 C 77.9089784982 80.7185669945 77.954967694 80.8565345821 78.0009568899 80.9945021697 C 78.0469460858 81.1324697573 78.0929352816 81.2704373448 78.1389244775 81.4084049324 C 78.1849136733 81.54637252 78.2309028692 81.6843401076 78.2768920651 81.8223076952 C 78.3228812609 81.9602752828 78.3688704568 82.0982428704 78.4148596527 82.236210458 C 78.4608488485 82.3741780455 78.5068380444 82.5121456331 78.5528272402 82.6501132207 C 78.5988164361 82.7880808083 78.644805632 82.9260483959 78.6907948278 83.0640159835 C 78.7367840237 83.2019835711 78.7827732196 83.3399511587 78.8287624154 83.4779187462 C 78.8747516113 83.6158863338 78.9207408071 83.7538539214 78.966730003 83.891821509 C 79.0127191989 84.0297890966 79.0587083947 84.1677566842 79.1046975906 84.3057242718 C 79.1506867865 84.4436918594 79.1966759823 84.5816594469 79.2426651782 84.7196270345 C 79.288654374 84.8575946221 79.3346435699 84.9955622097 79.3806327658 85.1335297973 C 79.4266219616 85.2714973849 79.4726111575 85.4094649725 79.5186003534 85.5474325601 C 79.5645895492 85.6854001477 79.6105787451 85.8233677352 79.6565679409 85.9613353228 C 79.7025571368 86.0993029104 79.7485463327 86.237270498 79.7945355285 86.3752380856 C 79.8405247244 86.5132056732 79.8865139203 86.6511732608 79.9325031161 86.7891408483 C 79.978492312 86.9271084359 80.0244815078 87.0650760235 80.0704707037 87.2030436111 C 80.1164598996 87.3410111987 80.1624490954 87.4789787863 80.2084382913 87.6169463739 C 80.2544274872 87.7549139615 80.300416683 87.892881549 80.3464058789 88.0308491366 C 80.3923950747 88.1688167242 80.4383842706 88.3067843118 80.4843734665 88.4447518994 C 80.5303626623 88.582719487 80.5763518582 88.7206870746 80.6223410541 88.8586546622 C 80.6683302499 88.9966222498 80.7143194458 89.1345898373 80.7603086416 89.2725574249 C 80.8062978375 89.4105250125 80.8522870334 89.5484926001 80.8982762292 89.6864601877 C 80.9442654251 89.8244277753 80.990254621 89.9623953629 81.0362438168 90.1003629505 C 81.0822330127 90.238330538 81.1282222085 90.3762981256 81.1742114044 90.5142657132 C 81.2202006003 90.6522333008 81.2661897961 90.7902008884 81.312178992 90.928168476 C 81.3581681879 91.0661360636 81.4041573837 91.2041036511 81.4501465796 91.3420712387 C 81.4961357754 91.4800388263 81.5421249713 91.6180064139 81.5881141672 91.7559740015 C 81.634103363 91.8939415891 81.6800925589 92.0319091767 81.7260817548 92.1698767643 C 81.7720709506 92.3078443519 81.8180601465 92.4458119394 81.8640493423 92.583779527 C 81.9100385382 92.7217471146 81.9560277341 92.8597147022 82.0020169299 92.9976822898 C 82.0480061258 93.1356498774 82.0939953217 93.273617465 82.1399845175 93.4115850526 C 82.1859737134 93.5495526401 82.2319629092 93.6875202277 82.2779521051 93.8254878153 C 82.323941301 93.9634554029 82.3699304968 94.1014229905 82.4159196927 94.2393905781 C 82.4619088886 94.3773581657 82.5078980844 94.5153257533 82.5538872803 94.6532933408 C 82.5998764761 94.7912609284 82.645865672 94.929228516 82.6918548679 95.0671961036 C 82.7378440637 95.2051636912 82.7838332596 95.3431312788 82.8298224555 95.4810988664 C 82.8758116513 95.619066454 82.9218008472 95.7570340415 82.967790043 95.8950016291 C 83.0137792389 96.0329692167 83.0597684348 96.1709368043 83.1057576306 96.3089043919 C 83.1517468265 96.4468719795 83.1977360224 96.5848395671 83.2437252182 96.7228071547 C 83.2897144141 96.8607747422 83.3357036099 96.9987423298 83.3816928058 97.1367099174 C 83.4276820017 97.274677505 83.4736711975 97.4126450926 83.5196603934 97.5506126802 C 83.5656495893 97.6885802678 83.6116387851 97.8265478554 83.657627981 97.9645154429 C 83.7036171768 98.1024830305 83.7496063727 98.2404506181 83.7955955686 98.3784182057 C 83.8415847644 98.5163857933 83.8875739603 98.6543533809 83.9335631562 98.7923209685 C 83.979552352 98.9302885561 84.0255415479 99.0682561436 84.0715307437 99.2062237312 C 84.1175199396 99.3441913188 84.1635091355 99.4821589064 84.2094983313 99.620126494 C 84.2554875272 99.7580940816 84.3014767231 99.8960616692 84.3474659189 100.034029257 C 84.3934551148 100.171996844 84.4394443106 100.309964432 84.4854335065 100.44793202 C 84.5314227024 100.585899607 84.5774118982 100.723867195 84.6234010941 100.861834782 C 84.66939029 100.99980237 84.7153794858 101.137769957 84.7613686817 101.275737545 C 84.8073578775 101.413705133 84.8533470734 101.55167272 84.8993362693 101.689640308 C 84.9453254651 101.827607895 84.991314661 101.965575483 85.0373038569 102.103543071 C 85.0832930527 102.241510658 85.1292822486 102.379478246 85.1752714444 102.517445833 C 85.2212606403 102.655413421 85.2672498362 102.793381009 85.313239032 102.931348596 C 85.3592282279 103.069316184 85.4052174238 103.207283771 85.4512066196 103.345251359 C 85.4971958155 103.483218946 85.5431850113 103.621186534 85.5891742072 103.759154122 C 85.6351634031 103.897121709 85.6811525989 104.035089297 85.7271417948 104.173056884 C 85.7731309907 104.311024472 85.8191201865 104.44899206 85.8651093824 104.586959647 C 85.9110985782 104.724927235 85.9570877741 104.862894822 86.00307697 105.00086241 C 86.0490661658 105.138829998 86.0950553617 105.276797585 86.1410445576 105.414765173 C 86.1870337534 105.55273276 86.2330229493 105.690700348 86.2790121451 105.828667935 C 86.325001341 105.966635523 86.3709905369 106.104603111 86.4169797327 106.242570698 C 86.4629689286 106.380538286 86.5089581245 106.518505873 86.5549473203 106.656473461 C 86.6009365162 106.794441049 86.646925712 106.932408636 86.6929149079 107.070376224 C 86.7389041038 107.208343811 86.7848932996 107.346311399 86.8308824955 107.484278986 C 86.8768716914 107.622246574 86.9228608872 107.760214162 86.9688500831 107.898181749 C 87.0148392789 108.036149337 87.0608284748 108.174116924 87.1068176707 108.312084512 C 87.1528068665 108.4500521 87.1987960624 108.588019687 87.2447852583 108.725987275 C 87.2907744541 108.863954862 87.33676365 109.00192245 87.3827528458 109.139890038 C 87.4287420417 109.277857625 87.4747312376 109.415825213 87.5207204334 109.5537928 C 87.5667096293 109.691760388 87.6126988252 109.829727975 87.658688021 109.967695563 C 87.7046772169 110.105663151 87.7506664127 110.243630738 87.7966556086 110.381598326 C 87.8426448045 110.519565913 87.8886340003 110.657533501 87.9346231962 110.795501089 C 87.9806123921 110.933468676 88.0266015879 111.071436264 88.0725907838 111.209403851 C 88.1185799796 111.347371439 88.1645691755 111.485339027 88.2105583714 111.623306614 C 88.2565475672 111.761274202 88.3025367631 111.899241789 88.348525959 112.037209377 C 88.3945151548 112.175176964 88.4405043507 112.313144552 88.4864935465 112.45111214 C 88.5324827424 112.589079727 88.5784719383 112.727047315 88.6244611341 112.865014902 C 88.67045033 113.00298249 88.7164395259 113.140950078 88.7624287217 113.278917665 C 88.8084179176 113.416885253 88.8544071134 113.55485284 88.9003963093 113.692820428 C 88.9463855052 113.830788016 88.992374701 113.968755603 89.0383638969 114.106723191 C 89.0843530928 114.244690778 89.1303422886 114.382658366 89.1763314845 114.520625953 C 89.2223206803 114.658593541 89.2683098762 114.796561129 89.3142990721 114.934528716 C 89.3602882679 115.072496304 89.4062774638 115.210463891 89.4522666597 115.348431479 C 89.4982558555 115.486399067 89.5442450514 115.624366654 89.5902342472 115.762334242 C 89.6362234431 115.900301829 89.682212639 116.038269417 89.7282018348 116.176237005 C 89.7741910307 116.314204592 89.8201802266 116.45217218 89.8661694224 116.590139767 C 89.9121586183 116.728107355 89.9581478141 116.866074942 90.00413701 117.00404253 C 90.0501262059 117.142010118 90.0961154017 117.279977705 90.1421045976 117.417945293 C 90.1880937935 117.55591288 90.2340829893 117.693880468 90.2800721852 117.831848056 C 90.326061381 117.969815643 90.3720505769 118.107783231 90.4180397728 118.245750818 C 90.4640289686 118.383718406 90.5100181645 118.521685993 90.5560073604 118.659653581 C 90.6019965562 118.797621169 90.6479857521 118.935588756 90.6939749479 119.073556344 C 90.7399641438 119.211523931 90.7859533397 119.349491519 90.8319425355 119.487459107 C 90.8779317314 119.625426694 90.9239209273 119.763394282 90.9699101231 119.901361869 C 91.015899319 120.039329457 91.0618885148 120.177297045 91.1078777107 120.315264632 C 91.1538669066 120.45323222 91.1998561024 120.591199807 91.2458452983 120.729167395 C 91.2918344942 120.867134982 91.33782369 121.00510257 91.3838128859 121.143070158 C 91.4298020817 121.281037745 91.4757912776 121.419005333 91.5217804735 121.55697292 C 91.5677696693 121.694940508 91.6137588652 121.832908096 91.6597480611 121.970875683 C 91.7057372569 122.108843271 91.7517264528 122.246810858 91.7977156486 122.384778446 C 91.8437048445 122.522746034 91.8896940404 122.660713621 91.9356832362 122.798681209 C 91.9816724321 122.936648796 92.027661628 123.074616384 92.0736508238 123.212583971 C 92.1196400197 123.350551559 92.1656292155 123.488519147 92.2116184114 123.626486734 C 92.2576076073 123.764454322 92.3035968031 123.902421909 92.349585999 124.040389497 C 92.3955751949 124.178357085 92.4415643907 124.316324672 92.4875535866 124.45429226 C 92.5335427825 124.592259847 92.5795319783 124.730227435 92.6255211742 124.868195023 C 92.67151037 125.00616261 92.7174995659 125.144130198 92.7634887618 125.282097785 C 92.8094779576 125.420065373 92.8554671535 125.55803296 92.9014563493 125.696000548 C 92.9474455452 125.833968136 92.9934347411 125.971935723 93.0394239369 126.109903311 C 93.0854131328 126.247870898 93.1314023287 126.385838486 93.1773915245 126.523806074 C 93.2233807204 126.661773661 93.2693699162 126.799741249 93.3153591121 126.937708836 C 93.361348308 127.075676424 93.4073375038 127.213644012 93.4533266997 127.351611599 C 93.4993158956 127.489579187 93.5453050914 127.627546774 93.5912942873 127.765514362 C 93.6372834832 127.903481949 93.683272679 128.041449537 93.7292618749 128.179417125 C 93.7752510707 128.317384712 93.8212402666 128.4553523 93.8672294625 128.593319887 C 93.9132186583 128.731287475 93.9592078542 128.869255063 94.0051970501 129.00722265 C 94.0511862459 129.145190238 94.0971754418 129.283157825 94.1431646376 129.421125413 C 94.1891538335 129.559093001 94.2351430294 129.697060588 94.2811322252 129.835028176 C 94.3271214211 129.972995763 94.3731106169 130.110963351 94.4190998128 130.248930938 C 94.4650890087 130.386898526 94.5110782045 130.524866114 94.5570674004 130.662833701 C 94.6030565963 130.800801289 94.6490457921 130.938768876 94.695034988 131.076736464 C 94.7410241839 131.214704052 94.7870133797 131.352671639 94.8330025756 131.490639227 C 94.8789917714 131.628606814 94.9249809673 131.766574402 94.9709701632 131.904541989 C 95.016959359 132.042509577 95.0629485549 132.180477165 95.1089377508 132.318444752 C 95.1549269466 132.45641234 95.2009161425 132.594379927 95.2469053383 132.732347515 C 95.2928945342 132.870315103 95.3388837301 133.00828269 95.3848729259 133.146250278 C 95.4308621218 133.284217865 95.4768513177 133.422185453 95.5228405135 133.560153041 C 95.5688297094 133.698120628 95.6148189052 133.836088216 95.6608081011 133.974055803 C 95.706797297 134.112023391 95.7527864928 134.249990978 95.7987756887 134.387958566 C 95.8447648846 134.525926154 95.8907540804 134.663893741 95.9367432763 134.801861329 C 95.9827324721 134.939828916 96.028721668 135.077796504 96.0747108639 135.215764092 C 96.1207000597 135.353731679 96.1666892556 135.491699267 96.2126784515 135.629666854 C 96.2586676473 135.767634442 96.3046568432 135.90560203 96.350646039 136.043569617 C 96.3966352349 136.181537205 96.4426244308 136.319504792 96.4886136266 136.45747238 C 96.5346028225 136.595439967 96.5805920184 136.733407555 96.6265812142 136.871375143 C 96.6725704101 137.00934273 96.7185596059 137.147310318 96.7645488018 137.285277905 C 96.8105379977 137.423245493 96.8565271935 137.561213081 96.9025163894 137.699180668 C 96.9485055853 137.837148256 96.9944947811 137.975115843 97.040483977 138.113083431 C 97.0864731728 138.251051019 97.1324623687 138.389018606 97.1784515646 138.526986194 C 97.2244407604 138.664953781 97.2704299563 138.802921369 97.3164191522 138.940888956 C 97.362408348 139.078856544 97.4083975439 139.216824132 97.4543867397 139.354791719 C 97.5003759356 139.492759307 97.5463651315 139.630726894 97.5923543273 139.768694482 C 97.6383435232 139.90666207 97.6843327191 140.044629657 97.7303219149 140.182597245 C 97.7763111108 140.320564832 97.8223003066 140.45853242 97.8682895025 140.596500008 C 97.9142786984 140.734467595 97.9602678942 140.872435183 98.0062570901 141.01040277 C 98.052246286 141.148370358 98.0982354818 141.286337945 98.1442246777 141.424305533 C 98.1902138735 141.562273121 98.2362030694 141.700240708 98.2821922653 141.838208296 C 98.3281814611 141.976175883 98.374170657 142.114143471 98.4201598529 142.252111059 C 98.4661490487 142.390078646 98.5121382446 142.528046234 98.5581274404 142.666013821 C 98.6041166363 142.803981409 98.6501058322 142.941948996 98.696095028 143.079916584 C 98.7420842239 143.217884172 98.7880734198 143.355851759 98.8340626156 143.493819347 C 98.8800518115 143.631786934 98.9260410073 143.769754522 98.9720302032 143.90772211 C 99.0180193991 144.045689697 99.0640085949 144.183657285 99.1099977908 144.321624872 C 99.1559869867 144.45959246 99.2019761825 144.597560048 99.2479653784 144.735527635 C 99.2939545742 144.873495223 99.3399437701 145.01146281 99.385932966 145.149430398 C 99.4319221618 145.287397985 99.4779113577 145.425365573 99.5239005536 145.563333161 C 99.5698897494 145.701300748 99.6158789453 145.839268336 99.6618681411 145.977235923 C 99.707857337 146.115203511 99.7538465329 146.253171099 99.7998357287 146.391138686 C 99.8458249246 146.529106274 99.8918141205 146.667073861 99.9378033163 146.805041449 C 99.9837925122 146.943009037 100.029781708 147.080976624 100.075770904 147.218944212 C 100.1217601 147.356911799 100.167749296 147.494879387 100.213738491 147.632846974 C 100.259727687 147.770814562 100.305716883 147.90878215 100.351706079 148.046749737 C 100.397695275 148.184717325 100.443684471 148.322684912 100.489673667 148.4606525 C 100.535662863 148.598620088 100.581652058 148.736587675 100.627641254 148.874555263 C 100.67363045 149.01252285 100.719619646 149.150490438 100.765608842 149.288458026 C 100.811598038 149.426425613 100.857587234 149.564393201 100.903576429 149.702360788 C 100.949565625 149.840328376 100.995554821 149.978295963 101.041544017 150.116263551 C 101.087533213 150.254231139 101.133522409 150.392198726 101.179511605 150.530166314 C 101.2255008 150.668133901 101.271489996 150.806101489 101.317479192 150.944069077 C 101.363468388 151.082036664 101.409457584 151.220004252 101.45544678 151.357971839 C 101.501435976 151.495939427 101.547425172 151.633907015 101.593414367 151.771874602 C 101.639403563 151.90984219 101.685392759 152.047809777 101.731381955 152.185777365 C 101.777371151 152.323744952 101.823360347 152.46171254 101.869349543 152.599680128 C 101.915338738 152.737647715 101.961327934 152.875615303 102.00731713 153.01358289 C 102.053306326 153.151550478 102.099295522 153.289518066 102.145284718 153.427485653 C 102.191273914 153.565453241 102.237263109 153.703420828 102.283252305 153.841388416 C 102.329241501 153.979356004 102.375230697 154.117323591 102.421219893 154.255291179 C 102.467209089 154.393258766 102.513198285 154.531226354 102.55918748 154.669193941 C 102.605176676 154.807161529 102.651165872 154.945129117 102.697155068 155.083096704 C 102.743144264 155.221064292 102.78913346 155.359031879 102.835122656 155.496999467 C 102.881111852 155.634967055 102.927101047 155.772934642 102.973090243 155.91090223 C 103.019079439 156.048869817 103.065068635 156.186837405 103.111057831 156.324804992 C 103.157047027 156.46277258 103.203036223 156.600740168 103.249025418 156.738707755 C 103.295014614 156.876675343 103.34100381 157.01464293 103.386993006 157.152610518 C 103.432982202 157.290578106 103.478971398 157.428545693 103.524960594 157.566513281 C 103.570949789 157.704480868 103.616938985 157.842448456 103.662928181 157.980416044 C 103.708917377 158.118383631 103.754906573 158.256351219 103.800895769 158.394318806 C 103.846884965 158.532286394 103.89287416 158.670253981 103.938863356 158.808221569 C 103.984852552 158.946189157 104.030841748 159.084156744 104.076830944 159.222124332 C 104.12282014 159.360091919 104.168809336 159.498059507 104.214798532 159.636027095 C 104.260787727 159.773994682 104.306776923 159.91196227 104.352766119 160.049929857 C 104.398755315 160.187897445 104.444744511 160.325865033 104.490733707 160.46383262 C 104.536722903 160.601800208 104.582712098 160.739767795 104.628701294 160.877735383 C 104.67469049 161.01570297 104.720679686 161.153670558 104.766668882 161.291638146 C 104.812658078 161.429605733 104.858647274 161.567573321 104.904636469 161.705540908 C 104.950625665 161.843508496 104.996614861 161.981476084 105.042604057 162.119443671 C 105.088593253 162.257411259 105.134582449 162.395378846 105.180571645 162.533346434 C 105.226560841 162.671314022 105.272550036 162.809281609 105.318539232 162.947249197 C 105.364528428 163.085216784 105.410517624 163.223184372 105.45650682 163.361151959 C 105.502496016 163.499119547 105.548485212 163.637087135 105.594474407 163.775054722 C 105.640463603 163.91302231 105.686452799 164.050989897 105.732441995 164.188957485 C 105.778431191 164.326925073 105.824420387 164.46489266 105.870409583 164.602860248 C 105.916398778 164.740827835 105.962387974 164.878795423 106.00837717 165.016763011 C 106.054366366 165.154730598 106.100355562 165.292698186 106.146344758 165.430665773 C 106.192333954 165.568633361 106.238323149 165.706600948 106.284312345 165.844568536 C 106.330301541 165.982536124 106.376290737 166.120503711 106.422279933 166.258471299 C 106.468269129 166.396438886 106.514258325 166.534406474 106.560247521 166.672374062 C 106.606236716 166.810341649 106.652225912 166.948309237 106.698215108 167.086276824 C 106.744204304 167.224244412 106.7901935 167.362211999 106.836182696 167.500179587 C 106.882171892 167.638147175 106.928161087 167.776114762 106.974150283 167.91408235 C 107.020139479 168.052049937 107.066128675 168.190017525 107.112117871 168.327985113 C 107.158107067 168.4659527 107.204096263 168.603920288 107.250085458 168.741887875 C 107.296074654 168.879855463 107.34206385 169.017823051 107.388053046 169.155790638 C 107.434042242 169.293758226 107.480031438 169.431725813 107.526020634 169.569693401 C 107.572009829 169.707660988 107.617999025 169.845628576 107.663988221 169.983596164 C 107.709977417 170.121563751 107.755966613 170.259531339 107.801955809 170.397498926 C 107.847945005 170.535466514 107.893934201 170.673434102 107.939923396 170.811401689 C 107.985912592 170.949369277 108.031901788 171.087336864 108.077890984 171.225304452 C 108.12388018 171.36327204 108.169869376 171.501239627 108.215858572 171.639207215 C 108.261847767 171.777174802 108.307836963 171.91514239 108.353826159 172.053109977 C 108.399815355 172.191077565 108.445804551 172.329045153 108.491793747 172.46701274 C 108.537782943 172.604980328 108.583772138 172.742947915 108.629761334 172.880915503 C 108.67575053 173.018883091 108.721739726 173.156850678 108.767728922 173.294818266 C 108.813718118 173.432785853 108.859707314 173.570753441 108.90569651 173.708721029 C 108.951685705 173.846688616 108.997674901 173.984656204 109.043664097 174.122623791 C 109.089653293 174.260591379 109.135642489 174.398558966 109.181631685 174.536526554 C 109.227620881 174.674494142 109.273610076 174.812461729 109.319599272 174.950429317 C 109.365588468 175.088396904 109.411577664 175.226364492 109.45756686 175.36433208 C 109.503556056 175.502299667 109.549545252 175.640267255 109.595534447 175.778234842 C 109.641523643 175.91620243 109.687512839 176.054170018 109.733502035 176.192137605 C 109.779491231 176.330105193 109.825480427 176.46807278 109.871469623 176.606040368 C 109.917458818 176.744007955 109.963448014 176.881975543 110.00943721 177.019943131 C 110.055426406 177.157910718 110.101415602 177.295878306 110.147404798 177.433845893 C 110.193393994 177.571813481 110.23938319 177.709781069 110.285372385 177.847748656 C 110.331361581 177.985716244 110.377350777 178.123683831 110.423339973 178.261651419 C 110.469329169 178.399619007 110.515318365 178.537586594 110.561307561 178.675554182 C 110.607296756 178.813521769 110.653285952 178.951489357 110.699275148 179.089456944 C 110.745264344 179.227424532 110.79125354 179.36539212 110.837242736 179.503359707 C 110.883231932 179.641327295 110.929221127 179.779294882 110.975210323 179.91726247 C 111.021199519 180.055230058 111.067188715 180.193197645 111.113177911 180.331165233 C 111.159167107 180.46913282 111.205156303 180.607100408 111.251145498 180.745067995 C 111.297134694 180.883035583 111.34312389 181.021003171 111.389113086 181.158970758 C 111.435102282 181.296938346 111.481091478 181.434905933 111.527080674 181.572873521 C 111.57306987 181.710841109 111.619059065 181.848808696 111.665048261 181.986776284 C 111.711037457 182.124743871 111.757026653 182.262711459 111.803015849 182.400679047 C 111.849005045 182.538646634 111.894994241 182.676614222 111.940983436 182.814581809 C 111.986972632 182.952549397 112.032961828 183.090516984 112.078951024 183.228484572 C 112.12494022 183.36645216 112.170929416 183.504419747 112.216918612 183.642387335 C 112.262907807 183.780354922 112.308897003 183.91832251 112.354886199 184.056290098 C 112.400875395 184.194257685 112.446864591 184.332225273 112.492853787 184.47019286 C 112.538842983 184.608160448 112.584832179 184.746128036 112.630821374 184.884095623 C 112.67681057 185.022063211 112.722799766 185.160030798 112.768788962 185.297998386 C 112.814778158 185.435965973 112.860767354 185.573933561 112.90675655 185.711901149 C 112.952745745 185.849868736 112.998734941 185.987836324 113.044724137 186.125803911 C 113.090713333 186.263771499 113.136702529 186.401739087 113.182691725 186.539706674 C 113.228680921 186.677674262 113.274670116 186.815641849 113.320659312 186.953609437 C 113.366648508 187.091577025 113.412637704 187.229544612 113.4586269 187.3675122 C 113.504616096 187.505479787 113.550605292 187.643447375 113.596594487 187.781414962 C 113.642583683 187.91938255 113.688572879 188.057350138 113.734562075 188.195317725 C 113.780551271 188.333285313 113.826540467 188.4712529 113.872529663 188.609220488 C 113.918518859 188.747188076 113.964508054 188.885155663 114.01049725 189.023123251 C 114.056486446 189.161090838 114.102475642 189.299058426 114.148464838 189.437026014 C 114.194454034 189.574993601 114.24044323 189.712961189 114.286432425 189.850928776 C 114.332421621 189.988896364 114.378410817 190.126863951 114.424400013 190.264831539 C 114.470389209 190.402799127 114.516378405 190.540766714 114.562367601 190.678734302 C 114.608356796 190.816701889 114.654345992 190.954669477 114.700335188 191.092637065 C 114.746324384 191.230604652 114.79231358 191.36857224 114.838302776 191.506539827 C 114.884291972 191.644507415 114.930281168 191.782475003 114.976270363 191.92044259 C 115.022259559 192.058410178 115.068248755 192.196377765 115.114237951 192.334345353 C 115.160227147 192.47231294 115.206216343 192.610280528 115.252205539 192.748248116 C 115.298194734 192.886215703 115.34418393 193.024183291 115.390173126 193.162150878 C 115.436162322 193.300118466 115.482151518 193.438086054 115.528140714 193.576053641 C 115.57412991 193.714021229 115.620119105 193.851988816 115.666108301 193.989956404 C 115.712097497 194.127923991 115.758086693 194.265891579 115.804075889 194.403859167 C 115.850065085 194.541826754 115.896054281 194.679794342 115.942043476 194.817761929 C 115.988032672 194.955729517 116.034021868 195.093697105 116.080011064 195.231664692 C 116.12600026 195.36963228 116.171989456 195.507599867 116.217978652 195.645567455 C 116.263967848 195.783535043 116.309957043 195.92150263 116.355946239 196.059470218 C 116.401935435 196.197437805 116.447924631 196.335405393 116.493913827 196.47337298 C 116.539903023 196.611340568 116.585892219 196.749308156 116.631881414 196.887275743 C 116.67787061 197.025243331 116.723859806 197.163210918 116.769849002 197.301178506 C 116.815838198 197.439146094 116.861827394 197.577113681 116.90781659 197.715081269 C 116.953805785 197.853048856 116.999794981 197.991016444 117.045784177 198.128984032 C 117.091773373 198.266951619 117.137762569 198.404919207 117.183751765 198.542886794 C 117.229740961 198.680854382 117.275730156 198.818821969 117.321719352 198.956789557 C 117.367708548 199.094757145 117.413697744 199.232724732 117.45968694 199.37069232 C 117.505676136 199.508659907 117.551665332 199.646627495 117.597654528 199.784595083 C 117.643643723 199.92256267 117.689632919 200.060530258 117.735622115 200.198497845 C 117.781611311 200.336465433 117.827600507 200.474433021 117.873589703 200.612400608 C 117.919578899 200.750368196 117.965568094 200.888335783 118.01155729 201.026303371 C 118.057546486 201.164270958 118.103535682 201.302238546 118.149524878 201.440206134 C 118.195514074 201.578173721 118.24150327 201.716141309 118.287492465 201.854108896 C 118.333481661 201.992076484 118.379470857 202.130044072 118.425460053 202.268011659 C 118.471449249 202.405979247 118.517438445 202.543946834 118.563427641 202.681914422 C 118.609416837 202.81988201 118.655406032 202.957849597 118.701395228 203.095817185 C 118.747384424 203.233784772 118.79337362 203.37175236 118.839362816 203.509719947 C 118.885352012 203.647687535 118.931341208 203.785655123 118.977330403 203.92362271 C 119.023319599 204.061590298 119.069308795 204.199557885 119.115297991 204.337525473 C 119.161287187 204.475493061 119.207276383 204.613460648 119.253265579 204.751428236 C 119.299254774 204.889395823 119.34524397 205.027363411 119.391233166 205.165330998 C 119.437222362 205.303298586 119.483211558 205.441266174 119.529200754 205.579233761 C 119.57518995 205.717201349 119.621179145 205.855168936 119.667168341 205.993136524 C 119.713157537 206.131104112 119.759146733 206.269071699 119.805135929 206.407039287 C 119.851125125 206.545006874 119.897114321 206.682974462 119.943103517 206.82094205 C 119.989092712 206.958909637 120.035081908 207.096877225 120.081071104 207.234844812 C 120.1270603 207.3728124 120.173049496 207.510779987 120.219038692 207.648747575 C 120.265027888 207.786715163 120.311017083 207.92468275 120.357006279 208.062650338 C 120.402995475 208.200617925 120.448984671 208.338585513 120.494973867 208.476553101 C 120.540963063 208.614520688 120.586952259 208.752488276 120.632941454 208.890455863 C 120.67893065 209.028423451 120.724919846 209.166391039 120.770909042 209.304358626 C 120.816898238 209.442326214 120.862887434 209.580293801 120.90887663 209.718261389 C 120.954865825 209.856228976 121.000855021 209.994196564 121.046844217 210.132164152 C 121.092833413 210.270131739 121.138822609 210.408099327 121.184811805 210.546066914 C 121.230801001 210.684034502 121.276790197 210.82200209 121.322779392 210.959969677 C 121.368768588 211.097937265 121.414757784 211.235904852 121.46074698 211.37387244 C 121.506736176 211.511840028 121.552725372 211.649807615 121.598714568 211.787775203 C 121.644703763 211.92574279 121.690692959 212.063710378 121.736682155 212.201677965 C 121.782671351 212.339645553 121.828660547 212.477613141 121.874649743 212.615580728 C 121.920638939 212.753548316 121.966628134 212.891515903 122.01261733 213.029483491 C 122.058606526 213.167451079 122.104595722 213.305418666 122.150584918 213.443386254 C 122.196574114 213.581353841 122.24256331 213.719321429 122.288552506 213.857289017 C 122.334541701 213.995256604 122.380530897 214.133224192 122.426520093 214.271191779 C 122.472509289 214.409159367 122.518498485 214.547126954 122.564487681 214.685094542 C 122.610476877 214.82306213 122.656466072 214.961029717 122.702455268 215.098997305 C 122.748444464 215.236964892 122.79443366 215.37493248 122.840422856 215.512900068 C 122.886412052 215.650867655 122.932401248 215.788835243 122.978390443 215.92680283 C 123.024379639 216.064770418 123.070368835 216.202738006 123.116358031 216.340705593 C 123.162347227 216.478673181 123.208336423 216.616640768 123.254325619 216.754608356 C 123.300314814 216.892575943 123.34630401 217.030543531 123.392293206 217.168511119 C 123.438282402 217.306478706 123.484271598 217.444446294 123.530260794 217.582413881 C 123.57624999 217.720381469 123.622239186 217.858349057 123.668228381 217.996316644 C 123.714217577 218.134284232 123.760206773 218.272251819 123.806195969 218.410219407 C 123.852185165 218.548186994 123.898174361 218.686154582 123.944163557 218.82412217 C 123.990152752 218.962089757 124.036141948 219.100057345 124.082131144 219.238024932 C 124.12812034 219.37599252 124.174109536 219.513960108 124.220098732 219.651927695 C 124.266087928 219.789895283 124.312077123 219.92786287 124.358066319 220.065830458 C 124.404055515 220.203798046 124.450044711 220.341765633 124.496033907 220.479733221 C 124.542023103 220.617700808 124.588012299 220.755668396 124.634001494 220.893635983 C 124.67999069 221.031603571 124.725979886 221.169571159 124.771969082 221.307538746 C 124.817958278 221.445506334 124.863947474 221.583473921 124.90993667 221.721441509 C 124.955925866 221.859409097 125.001915061 221.997376684 125.047904257 222.135344272 C 125.093893453 222.273311859 125.139882649 222.411279447 125.185871845 222.549247035 C 125.231861041 222.687214622 125.277850237 222.82518221 125.323839432 222.963149797 C 125.369828628 223.101117385 125.415817824 223.239084972 125.46180702 223.37705256 C 125.507796216 223.515020148 125.553785412 223.652987735 125.599774608 223.790955323 C 125.645763803 223.92892291 125.691752999 224.066890498 125.737742195 224.204858086 C 125.783731391 224.342825673 125.829720587 224.480793261 125.875709783 224.618760848 C 125.921698979 224.756728436 125.967688175 224.894696024 126.01367737 225.032663611 C 126.059666566 225.170631199 126.105655762 225.308598786 126.151644958 225.446566374 C 126.197634154 225.584533961 126.24362335 225.722501549 126.289612546 225.860469137 C 126.335601741 225.998436724 126.381590937 226.136404312 126.427580133 226.274371899 C 126.473569329 226.412339487 126.519558525 226.550307075 126.565547721 226.688274662 C 126.611536917 226.82624225 126.657526112 226.964209837 126.703515308 227.102177425 C 126.749504504 227.240145013 126.7954937 227.3781126 126.841482896 227.516080188 C 126.887472092 227.654047775 126.933461288 227.792015363 126.979450483 227.92998295 C 127.025439679 228.067950538 127.071428875 228.205918126 127.117418071 228.343885713 C 127.163407267 228.481853301 127.209396463 228.619820888 127.255385659 228.757788476 C 127.301374855 228.895756064 127.34736405 229.033723651 127.393353246 229.171691239 C 127.439342442 229.309658826 127.485331638 229.447626414 127.531320834 229.585594002 C 127.57731003 229.723561589 127.623299226 229.861529177 127.669288421 229.999496764 C 127.715277617 230.137464352 127.761266813 230.275431939 127.807256009 230.413399527 C 127.853245205 230.551367115 127.899234401 230.689334702 127.945223597 230.82730229 C 127.991212792 230.965269877 128.037201988 231.103237465 128.083191184 231.241205053 C 128.12918038 231.37917264 128.175169576 231.517140228 128.221158772 231.655107815 C 128.267147968 231.793075403 128.313137163 231.93104299 128.359126359 232.069010578 C 128.405115555 232.206978166 128.451104751 232.344945753 128.497093947 232.482913341 C 128.543083143 232.620880928 128.589072339 232.758848516 128.635061535 232.896816104 C 128.68105073 233.034783691 128.727039926 233.172751279 128.773029122 233.310718866 C 128.819018318 233.448686454 128.865007514 233.586654042 128.91099671 233.724621629 C 128.956985906 233.862589217 129.002975101 234.000556804 129.048964297 234.138524392 C 129.094953493 234.276491979 129.140942689 234.414459567 129.186931885 234.552427155 C 129.232921081 234.690394742 129.278910277 234.37996767 129.324899472 234.242000083 C 129.370888668 234.104032495 129.416877864 233.966064907 129.46286706 233.82809732 C 129.508856256 233.690129732 129.554845452 233.552162145 129.600834648 233.414194557 C 129.646823844 233.276226969 129.692813039 233.138259382 129.738802235 233.000291794 C 129.784791431 232.862324207 129.830780627 232.724356619 129.876769823 232.586389032 C 129.922759019 232.448421444 129.968748215 232.310453856 130.01473741 232.172486269 C 130.060726606 232.034518681 130.106715802 231.896551094 130.152704998 231.758583506 C 130.198694194 231.620615918 130.24468339 231.482648331 130.290672586 231.344680743 C 130.336661781 231.206713156 130.382650977 231.068745568 130.428640173 230.93077798 C 130.474629369 230.792810393 130.520618565 230.654842805 130.566607761 230.516875218 C 130.612596957 230.37890763 130.658586152 230.240940043 130.704575348 230.102972455 C 130.750564544 229.965004867 130.79655374 229.82703728 130.842542936 229.689069692 C 130.888532132 229.551102105 130.934521328 229.413134517 130.980510524 229.275166929 C 131.026499719 229.137199342 131.072488915 228.999231754 131.118478111 228.861264167 C 131.164467307 228.723296579 131.210456503 228.585328991 131.256445699 228.447361404 C 131.302434895 228.309393816 131.34842409 228.171426229 131.394413286 228.033458641 C 131.440402482 227.895491054 131.486391678 227.757523466 131.532380874 227.619555878 C 131.57837007 227.481588291 131.624359266 227.343620703 131.670348461 227.205653116 C 131.716337657 227.067685528 131.762326853 226.92971794 131.808316049 226.791750353 C 131.854305245 226.653782765 131.900294441 226.515815178 131.946283637 226.37784759 C 131.992272832 226.239880003 132.038262028 226.101912415 132.084251224 225.963944827 C 132.13024042 225.82597724 132.176229616 225.688009652 132.222218812 225.550042065 C 132.268208008 225.412074477 132.314197204 225.274106889 132.360186399 225.136139302 C 132.406175595 224.998171714 132.452164791 224.860204127 132.498153987 224.722236539 C 132.544143183 224.584268951 132.590132379 224.446301364 132.636121575 224.308333776 C 132.68211077 224.170366189 132.728099966 224.032398601 132.774089162 223.894431014 C 132.820078358 223.756463426 132.866067554 223.618495838 132.91205675 223.480528251 C 132.958045946 223.342560663 133.004035141 223.204593076 133.050024337 223.066625488 C 133.096013533 222.9286579 133.142002729 222.790690313 133.187991925 222.652722725 C 133.233981121 222.514755138 133.279970317 222.37678755 133.325959513 222.238819962 C 133.371948708 222.100852375 133.417937904 221.962884787 133.4639271 221.8249172 C 133.509916296 221.686949612 133.555905492 221.548982025 133.601894688 221.411014437 C 133.647883884 221.273046849 133.693873079 221.135079262 133.739862275 220.997111674 C 133.785851471 220.859144087 133.831840667 220.721176499 133.877829863 220.583208911 C 133.923819059 220.445241324 133.969808255 220.307273736 134.01579745 220.169306149 C 134.061786646 220.031338561 134.107775842 219.893370973 134.153765038 219.755403386 C 134.199754234 219.617435798 134.24574343 219.479468211 134.291732626 219.341500623 C 134.337721821 219.203533036 134.383711017 219.065565448 134.429700213 218.92759786 C 134.475689409 218.789630273 134.521678605 218.651662685 134.567667801 218.513695098 C 134.613656997 218.37572751 134.659646193 218.237759922 134.705635388 218.099792335 C 134.751624584 217.961824747 134.79761378 217.82385716 134.843602976 217.685889572 C 134.889592172 217.547921984 134.935581368 217.409954397 134.981570564 217.271986809 C 135.027559759 217.134019222 135.073548955 216.996051634 135.119538151 216.858084047 C 135.165527347 216.720116459 135.211516543 216.582148871 135.257505739 216.444181284 C 135.303494935 216.306213696 135.34948413 216.168246109 135.395473326 216.030278521 C 135.441462522 215.892310933 135.487451718 215.754343346 135.533440914 215.616375758 C 135.57943011 215.478408171 135.625419306 215.340440583 135.671408502 215.202472995 C 135.717397697 215.064505408 135.763386893 214.92653782 135.809376089 214.788570233 C 135.855365285 214.650602645 135.901354481 214.512635058 135.947343677 214.37466747 C 135.993332873 214.236699882 136.039322068 214.098732295 136.085311264 213.960764707 C 136.13130046 213.82279712 136.177289656 213.684829532 136.223278852 213.546861944 C 136.269268048 213.408894357 136.315257244 213.270926769 136.361246439 213.132959182 C 136.407235635 212.994991594 136.453224831 212.857024007 136.499214027 212.719056419 C 136.545203223 212.581088831 136.591192419 212.443121244 136.637181615 212.305153656 C 136.68317081 212.167186069 136.729160006 212.029218481 136.775149202 211.891250893 C 136.821138398 211.753283306 136.867127594 211.615315718 136.91311679 211.477348131 C 136.959105986 211.339380543 137.005095182 211.201412955 137.051084377 211.063445368 C 137.097073573 210.92547778 137.143062769 210.787510193 137.189051965 210.649542605 C 137.235041161 210.511575018 137.281030357 210.37360743 137.327019553 210.235639842 C 137.373008748 210.097672255 137.418997944 209.959704667 137.46498714 209.82173708 C 137.510976336 209.683769492 137.556965532 209.545801904 137.602954728 209.407834317 C 137.648943924 209.269866729 137.694933119 209.131899142 137.740922315 208.993931554 C 137.786911511 208.855963966 137.832900707 208.717996379 137.878889903 208.580028791 C 137.924879099 208.442061204 137.970868295 208.304093616 138.01685749 208.166126029 C 138.062846686 208.028158441 138.108835882 207.890190853 138.154825078 207.752223266 C 138.200814274 207.614255678 138.24680347 207.476288091 138.292792666 207.338320503 C 138.338781862 207.200352915 138.384771057 207.062385328 138.430760253 206.92441774 C 138.476749449 206.786450153 138.522738645 206.648482565 138.568727841 206.510514977 C 138.614717037 206.37254739 138.660706233 206.234579802 138.706695428 206.096612215 C 138.752684624 205.958644627 138.79867382 205.82067704 138.844663016 205.682709452 C 138.890652212 205.544741864 138.936641408 205.406774277 138.982630604 205.268806689 C 139.028619799 205.130839102 139.074608995 204.992871514 139.120598191 204.854903926 C 139.166587387 204.716936339 139.212576583 204.578968751 139.258565779 204.441001164 C 139.304554975 204.303033576 139.350544171 204.165065988 139.396533366 204.027098401 C 139.442522562 203.889130813 139.488511758 203.751163226 139.534500954 203.613195638 C 139.58049015 203.475228051 139.626479346 203.337260463 139.672468542 203.199292875 C 139.718457737 203.061325288 139.764446933 202.9233577 139.810436129 202.785390113 C 139.856425325 202.647422525 139.902414521 202.509454937 139.948403717 202.37148735 C 139.994392913 202.233519762 140.040382108 202.095552175 140.086371304 201.957584587 C 140.1323605 201.819617 140.178349696 201.681649412 140.224338892 201.543681824 C 140.270328088 201.405714237 140.316317284 201.267746649 140.362306479 201.129779062 C 140.408295675 200.991811474 140.454284871 200.853843886 140.500274067 200.715876299 C 140.546263263 200.577908711 140.592252459 200.439941124 140.638241655 200.301973536 C 140.684230851 200.164005948 140.730220046 200.026038361 140.776209242 199.888070773 C 140.822198438 199.750103186 140.868187634 199.612135598 140.91417683 199.474168011 C 140.960166026 199.336200423 141.006155222 199.198232835 141.052144417 199.060265248 C 141.098133613 198.92229766 141.144122809 198.784330073 141.190112005 198.646362485 C 141.236101201 198.508394897 141.282090397 198.37042731 141.328079593 198.232459722 C 141.374068788 198.094492135 141.420057984 197.956524547 141.46604718 197.818556959 C 141.512036376 197.680589372 141.558025572 197.542621784 141.604014768 197.404654197 C 141.650003964 197.266686609 141.695993159 197.128719022 141.741982355 196.990751434 C 141.787971551 196.852783846 141.833960747 196.714816259 141.879949943 196.576848671 C 141.925939139 196.438881084 141.971928335 196.300913496 142.017917531 196.162945908 C 142.063906726 196.024978321 142.109895922 195.887010733 142.155885118 195.749043146 C 142.201874314 195.611075558 142.24786351 195.47310797 142.293852706 195.335140383 C 142.339841902 195.197172795 142.385831097 195.059205208 142.431820293 194.92123762 C 142.477809489 194.783270033 142.523798685 194.645302445 142.569787881 194.507334857 C 142.615777077 194.36936727 142.661766273 194.231399682 142.707755468 194.093432095 C 142.753744664 193.955464507 142.79973386 193.817496919 142.845723056 193.679529332 C 142.891712252 193.541561744 142.937701448 193.403594157 142.983690644 193.265626569 C 143.02967984 193.127658981 143.075669035 192.989691394 143.121658231 192.851723806 C 143.167647427 192.713756219 143.213636623 192.575788631 143.259625819 192.437821044 C 143.305615015 192.299853456 143.351604211 192.161885868 143.397593406 192.023918281 C 143.443582602 191.885950693 143.489571798 191.747983106 143.535560994 191.610015518 C 143.58155019 191.47204793 143.627539386 191.334080343 143.673528582 191.196112755 C 143.719517777 191.058145168 143.765506973 190.92017758 143.811496169 190.782209992 C 143.857485365 190.644242405 143.903474561 190.506274817 143.949463757 190.36830723 C 143.995452953 190.230339642 144.041442148 190.092372055 144.087431344 189.954404467 C 144.13342054 189.816436879 144.179409736 189.678469292 144.225398932 189.540501704 C 144.271388128 189.402534117 144.317377324 189.264566529 144.36336652 189.126598941 C 144.409355715 188.988631354 144.455344911 188.850663766 144.501334107 188.712696179 C 144.547323303 188.574728591 144.593312499 188.436761004 144.639301695 188.298793416 C 144.685290891 188.160825828 144.731280086 188.022858241 144.777269282 187.884890653 C 144.823258478 187.746923066 144.869247674 187.608955478 144.91523687 187.47098789 C 144.961226066 187.333020303 145.007215262 187.195052715 145.053204457 187.057085128 C 145.099193653 186.91911754 145.145182849 186.781149952 145.191172045 186.643182365 C 145.237161241 186.505214777 145.283150437 186.36724719 145.329139633 186.229279602 C 145.375128828 186.091312015 145.421118024 185.953344427 145.46710722 185.815376839 C 145.513096416 185.677409252 145.559085612 185.539441664 145.605074808 185.401474077 C 145.651064004 185.263506489 145.6970532 185.125538901 145.743042395 184.987571314 C 145.789031591 184.849603726 145.835020787 184.711636139 145.881009983 184.573668551 C 145.926999179 184.435700963 145.972988375 184.297733376 146.018977571 184.159765788 C 146.064966766 184.021798201 146.110955962 183.883830613 146.156945158 183.745863026 C 146.202934354 183.607895438 146.24892355 183.46992785 146.294912746 183.331960263 C 146.340901942 183.193992675 146.386891137 183.056025088 146.432880333 182.9180575 C 146.478869529 182.780089912 146.524858725 182.642122325 146.570847921 182.504154737 C 146.616837117 182.36618715 146.662826313 182.228219562 146.708815509 182.090251974 C 146.754804704 181.952284387 146.8007939 181.814316799 146.846783096 181.676349212 C 146.892772292 181.538381624 146.938761488 181.400414037 146.984750684 181.262446449 C 147.03073988 181.124478861 147.076729075 180.986511274 147.122718271 180.848543686 C 147.168707467 180.710576099 147.214696663 180.572608511 147.260685859 180.434640923 C 147.306675055 180.296673336 147.352664251 180.158705748 147.398653446 180.020738161 C 147.444642642 179.882770573 147.490631838 179.744802985 147.536621034 179.606835398 C 147.58261023 179.46886781 147.628599426 179.330900223 147.674588622 179.192932635 C 147.720577817 179.054965048 147.766567013 178.91699746 147.812556209 178.779029872 C 147.858545405 178.641062285 147.904534601 178.503094697 147.950523797 178.36512711 C 147.996512993 178.227159522 148.042502189 178.089191934 148.088491384 177.951224347 C 148.13448058 177.813256759 148.180469776 177.675289172 148.226458972 177.537321584 C 148.272448168 177.399353996 148.318437364 177.261386409 148.36442656 177.123418821 C 148.410415755 176.985451234 148.456404951 176.847483646 148.502394147 176.709516059 C 148.548383343 176.571548471 148.594372539 176.433580883 148.640361735 176.295613296 C 148.686350931 176.157645708 148.732340126 176.019678121 148.778329322 175.881710533 C 148.824318518 175.743742945 148.870307714 175.605775358 148.91629691 175.46780777 C 148.962286106 175.329840183 149.008275302 175.191872595 149.054264497 175.053905008 C 149.100253693 174.91593742 149.146242889 174.777969832 149.192232085 174.640002245 C 149.238221281 174.502034657 149.284210477 174.36406707 149.330199673 174.226099482 C 149.376188869 174.088131894 149.422178064 173.950164307 149.46816726 173.812196719 C 149.514156456 173.674229132 149.560145652 173.536261544 149.606134848 173.398293956 C 149.652124044 173.260326369 149.69811324 173.122358781 149.744102435 172.984391194 C 149.790091631 172.846423606 149.836080827 172.708456019 149.882070023 172.570488431 C 149.928059219 172.432520843 149.974048415 172.294553256 150.020037611 172.156585668 C 150.066026806 172.018618081 150.112016002 171.880650493 150.158005198 171.742682905 C 150.203994394 171.604715318 150.24998359 171.46674773 150.295972786 171.328780143 C 150.341961982 171.190812555 150.387951178 171.052844967 150.433940373 170.91487738 C 150.479929569 170.776909792 150.525918765 170.638942205 150.571907961 170.500974617 C 150.617897157 170.36300703 150.663886353 170.225039442 150.709875549 170.087071854 C 150.755864744 169.949104267 150.80185394 169.811136679 150.847843136 169.673169092 C 150.893832332 169.535201504 150.939821528 169.397233916 150.985810724 169.259266329 C 151.03179992 169.121298741 151.077789115 168.983331154 151.123778311 168.845363566 C 151.169767507 168.707395978 151.215756703 168.569428391 151.261745899 168.431460803 C 151.307735095 168.293493216 151.353724291 168.155525628 151.399713486 168.017558041 C 151.445702682 167.879590453 151.491691878 167.741622865 151.537681074 167.603655278 C 151.58367027 167.46568769 151.629659466 167.327720103 151.675648662 167.189752515 C 151.721637858 167.051784927 151.767627053 166.91381734 151.813616249 166.775849752 C 151.859605445 166.637882165 151.905594641 166.499914577 151.951583837 166.361946989 C 151.997573033 166.223979402 152.043562229 166.086011814 152.089551424 165.948044227 C 152.13554062 165.810076639 152.181529816 165.672109052 152.227519012 165.534141464 C 152.273508208 165.396173876 152.319497404 165.258206289 152.3654866 165.120238701 C 152.411475795 164.982271114 152.457464991 164.844303526 152.503454187 164.706335938 C 152.549443383 164.568368351 152.595432579 164.430400763 152.641421775 164.292433176 C 152.687410971 164.154465588 152.733400166 164.016498001 152.779389362 163.878530413 C 152.825378558 163.740562825 152.871367754 163.602595238 152.91735695 163.46462765 C 152.963346146 163.326660063 153.009335342 163.188692475 153.055324538 163.050724887 C 153.101313733 162.9127573 153.147302929 162.774789712 153.193292125 162.636822125 C 153.239281321 162.498854537 153.285270517 162.360886949 153.331259713 162.222919362 C 153.377248909 162.084951774 153.423238104 161.946984187 153.4692273 161.809016599 C 153.515216496 161.671049012 153.561205692 161.533081424 153.607194888 161.395113836 C 153.653184084 161.257146249 153.69917328 161.119178661 153.745162475 160.981211074 C 153.791151671 160.843243486 153.837140867 160.705275898 153.883130063 160.567308311 C 153.929119259 160.429340723 153.975108455 160.291373136 154.021097651 160.153405548 C 154.067086847 160.01543796 154.113076042 159.877470373 154.159065238 159.739502785 C 154.205054434 159.601535198 154.25104363 159.46356761 154.297032826 159.325600023 C 154.343022022 159.187632435 154.389011218 159.049664847 154.435000413 158.91169726 C 154.480989609 158.773729672 154.526978805 158.635762085 154.572968001 158.497794497 C 154.618957197 158.359826909 154.664946393 158.221859322 154.710935589 158.083891734 C 154.756924784 157.945924147 154.80291398 157.807956559 154.848903176 157.669988971 C 154.894892372 157.532021384 154.940881568 157.394053796 154.986870764 157.256086209 C 155.03285996 157.118118621 155.078849155 156.980151034 155.124838351 156.842183446 C 155.170827547 156.704215858 155.216816743 156.566248271 155.262805939 156.428280683 C 155.308795135 156.290313096 155.354784331 156.152345508 155.400773527 156.01437792 C 155.446762722 155.876410333 155.492751918 155.738442745 155.538741114 155.600475158 C 155.58473031 155.46250757 155.630719506 155.324539982 155.676708702 155.186572395 C 155.722697898 155.048604807 155.768687093 154.91063722 155.814676289 154.772669632 C 155.860665485 154.634702045 155.906654681 154.496734457 155.952643877 154.358766869 C 155.998633073 154.220799282 156.044622269 154.082831694 156.090611464 153.944864107 C 156.13660066 153.806896519 156.182589856 153.668928931 156.228579052 153.530961344 C 156.274568248 153.392993756 156.320557444 153.255026169 156.36654664 153.117058581 C 156.412535836 152.979090993 156.458525031 152.841123406 156.504514227 152.703155818 C 156.550503423 152.565188231 156.596492619 152.427220643 156.642481815 152.289253056 C 156.688471011 152.151285468 156.734460207 152.01331788 156.780449402 151.875350293 C 156.826438598 151.737382705 156.872427794 151.599415118 156.91841699 151.46144753 C 156.964406186 151.323479942 157.010395382 151.185512355 157.056384578 151.047544767 C 157.102373773 150.90957718 157.148362969 150.771609592 157.194352165 150.633642005 C 157.240341361 150.495674417 157.286330557 150.357706829 157.332319753 150.219739242 C 157.378308949 150.081771654 157.424298144 149.943804067 157.47028734 149.805836479 C 157.516276536 149.667868891 157.562265732 149.529901304 157.608254928 149.391933716 C 157.654244124 149.253966129 157.70023332 149.115998541 157.746222516 148.978030953 C 157.792211711 148.840063366 157.838200907 148.702095778 157.884190103 148.564128191 C 157.930179299 148.426160603 157.976168495 148.288193016 158.022157691 148.150225428 C 158.068146887 148.01225784 158.114136082 147.874290253 158.160125278 147.736322665 C 158.206114474 147.598355078 158.25210367 147.46038749 158.298092866 147.322419902 C 158.344082062 147.184452315 158.390071258 147.046484727 158.436060453 146.90851714 C 158.482049649 146.770549552 158.528038845 146.632581964 158.574028041 146.494614377 C 158.620017237 146.356646789 158.666006433 146.218679202 158.711995629 146.080711614 C 158.757984824 145.942744027 158.80397402 145.804776439 158.849963216 145.666808851 C 158.895952412 145.528841264 158.941941608 145.390873676 158.987930804 145.252906089 C 159.03392 145.114938501 159.079909196 144.976970913 159.125898391 144.839003326 C 159.171887587 144.701035738 159.217876783 144.563068151 159.263865979 144.425100563 C 159.309855175 144.287132975 159.355844371 144.149165388 159.401833567 144.0111978 C 159.447822762 143.873230213 159.493811958 143.735262625 159.539801154 143.597295038 C 159.58579035 143.45932745 159.631779546 143.321359862 159.677768742 143.183392275 C 159.723757938 143.045424687 159.769747133 142.9074571 159.815736329 142.769489512 C 159.861725525 142.631521924 159.907714721 142.493554337 159.953703917 142.355586749 C 159.999693113 142.217619162 160.045682309 142.079651574 160.091671505 141.941683986 C 160.1376607 141.803716399 160.183649896 141.665748811 160.229639092 141.527781224 C 160.275628288 141.389813636 160.321617484 141.251846049 160.36760668 141.113878461 C 160.413595876 140.975910873 160.459585071 140.837943286 160.505574267 140.699975698 C 160.551563463 140.562008111 160.597552659 140.424040523 160.643541855 140.286072935 C 160.689531051 140.148105348 160.735520247 140.01013776 160.781509442 139.872170173 C 160.827498638 139.734202585 160.873487834 139.596234998 160.91947703 139.45826741 C 160.965466226 139.320299822 161.011455422 139.182332235 161.057444618 139.044364647 C 161.103433813 138.90639706 161.149423009 138.768429472 161.195412205 138.630461884 C 161.241401401 138.492494297 161.287390597 138.354526709 161.333379793 138.216559122 C 161.379368989 138.078591534 161.425358185 137.940623946 161.47134738 137.802656359 C 161.517336576 137.664688771 161.563325772 137.526721184 161.609314968 137.388753596 C 161.655304164 137.250786009 161.70129336 137.112818421 161.747282556 136.974850833 C 161.793271751 136.836883246 161.839260947 136.698915658 161.885250143 136.560948071 C 161.931239339 136.422980483 161.977228535 136.285012895 162.023217731 136.147045308 C 162.069206927 136.00907772 162.115196122 135.871110133 162.161185318 135.733142545 C 162.207174514 135.595174957 162.25316371 135.45720737 162.299152906 135.319239782 C 162.345142102 135.181272195 162.391131298 135.043304607 162.437120493 134.90533702 C 162.483109689 134.767369432 162.529098885 134.629401844 162.575088081 134.491434257 C 162.621077277 134.353466669 162.667066473 134.215499082 162.713055669 134.077531494 C 162.759044865 133.939563906 162.80503406 133.801596319 162.851023256 133.663628731 C 162.897012452 133.525661144 162.943001648 133.387693556 162.988990844 133.249725968 C 163.03498004 133.111758381 163.080969236 132.973790793 163.126958431 132.835823206 C 163.172947627 132.697855618 163.218936823 132.559888031 163.264926019 132.421920443 C 163.310915215 132.283952855 163.356904411 132.145985268 163.402893607 132.00801768 C 163.448882802 131.870050093 163.494871998 131.732082505 163.540861194 131.594114917 C 163.58685039 131.45614733 163.632839586 131.318179742 163.678828782 131.180212155 C 163.724817978 131.042244567 163.770807174 130.904276979 163.816796369 130.766309392 C 163.862785565 130.628341804 163.908774761 130.490374217 163.954763957 130.352406629 C 164.000753153 130.214439042 164.046742349 130.076471454 164.092731545 129.938503866 C 164.13872074 129.800536279 164.184709936 129.662568691 164.230699132 129.524601104 C 164.276688328 129.386633516 164.322677524 129.248665928 164.36866672 129.110698341 C 164.414655916 128.972730753 164.460645111 128.834763166 164.506634307 128.696795578 C 164.552623503 128.55882799 164.598612699 128.420860403 164.644601895 128.282892815 C 164.690591091 128.144925228 164.736580287 128.00695764 164.782569482 127.868990053 C 164.828558678 127.731022465 164.874547874 127.593054877 164.92053707 127.45508729 C 164.966526266 127.317119702 165.012515462 127.179152115 165.058504658 127.041184527 C 165.104493854 126.903216939 165.150483049 126.765249352 165.196472245 126.627281764 C 165.242461441 126.489314177 165.288450637 126.351346589 165.334439833 126.213379002 C 165.380429029 126.075411414 165.426418225 125.937443826 165.47240742 125.799476239 C 165.518396616 125.661508651 165.564385812 125.523541064 165.610375008 125.385573476 C 165.656364204 125.247605888 165.7023534 125.109638301 165.748342596 124.971670713 C 165.794331791 124.833703126 165.840320987 124.695735538 165.886310183 124.55776795 C 165.932299379 124.419800363 165.978288575 124.281832775 166.024277771 124.143865188 C 166.070266967 124.0058976 166.116256162 123.867930013 166.162245358 123.729962425 C 166.208234554 123.591994837 166.25422375 123.45402725 166.300212946 123.316059662 C 166.346202142 123.178092075 166.392191338 123.040124487 166.438180534 122.902156899 C 166.484169729 122.764189312 166.530158925 122.626221724 166.576148121 122.488254137 C 166.622137317 122.350286549 166.668126513 122.212318961 166.714115709 122.074351374 C 166.760104905 121.936383786 166.8060941 121.798416199 166.852083296 121.660448611 C 166.898072492 121.522481024 166.944061688 121.384513436 166.990050884 121.246545848 C 167.03604008 121.108578261 167.082029276 120.970610673 167.128018471 120.832643086 C 167.174007667 120.694675498 167.219996863 120.55670791 167.265986059 120.418740323 C 167.311975255 120.280772735 167.357964451 120.142805148 167.403953647 120.00483756 C 167.449942843 119.866869972 167.495932038 119.728902385 167.541921234 119.590934797 C 167.58791043 119.45296721 167.633899626 119.314999622 167.679888822 119.177032035 C 167.725878018 119.039064447 167.771867214 118.901096859 167.817856409 118.763129272 C 167.863845605 118.625161684 167.909834801 118.487194097 167.955823997 118.349226509 C 168.001813193 118.211258921 168.047802389 118.073291334 168.093791585 117.935323746 C 168.13978078 117.797356159 168.185769976 117.659388571 168.231759172 117.521420983 C 168.277748368 117.383453396 168.323737564 117.245485808 168.36972676 117.107518221 C 168.415715956 116.969550633 168.461705151 116.831583046 168.507694347 116.693615458 C 168.553683543 116.55564787 168.599672739 116.417680283 168.645661935 116.279712695 C 168.691651131 116.141745108 168.737640327 116.00377752 168.783629523 115.865809932 C 168.829618718 115.727842345 168.875607914 115.589874757 168.92159711 115.45190717 C 168.967586306 115.313939582 169.013575502 115.175971995 169.059564698 115.038004407 C 169.105553894 114.900036819 169.151543089 114.762069232 169.197532285 114.624101644 C 169.243521481 114.486134057 169.289510677 114.348166469 169.335499873 114.210198881 C 169.381489069 114.072231294 169.427478265 113.934263706 169.47346746 113.796296119 C 169.519456656 113.658328531 169.565445852 113.520360943 169.611435048 113.382393356 C 169.657424244 113.244425768 169.70341344 113.106458181 169.749402636 112.968490593 C 169.795391831 112.830523005 169.841381027 112.692555418 169.887370223 112.55458783 C 169.933359419 112.416620243 169.979348615 112.278652655 170.025337811 112.140685068 C 170.071327007 112.00271748 170.117316203 111.864749892 170.163305398 111.726782305 C 170.209294594 111.588814717 170.25528379 111.45084713 170.301272986 111.312879542 C 170.347262182 111.174911954 170.393251378 111.036944367 170.439240574 110.898976779 C 170.485229769 110.761009192 170.531218965 110.623041604 170.577208161 110.485074017 C 170.623197357 110.347106429 170.669186553 110.209138841 170.715175749 110.071171254 C 170.761164945 109.933203666 170.80715414 109.795236079 170.853143336 109.657268491 C 170.899132532 109.519300903 170.945121728 109.381333316 170.991110924 109.243365728 C 171.03710012 109.105398141 171.083089316 108.967430553 171.129078512 108.829462965 C 171.175067707 108.691495378 171.221056903 108.55352779 171.267046099 108.415560203 C 171.313035295 108.277592615 171.359024491 108.139625028 171.405013687 108.00165744 C 171.451002883 107.863689852 171.496992078 107.725722265 171.542981274 107.587754677 C 171.58897047 107.44978709 171.634959666 107.311819502 171.680948862 107.173851914 C 171.726938058 107.035884327 171.772927254 106.897916739 171.818916449 106.759949152 C 171.864905645 106.621981564 171.910894841 106.484013976 171.956884037 106.346046389 C 172.002873233 106.208078801 172.048862429 106.070111214 172.094851625 105.932143626 C 172.14084082 105.794176039 172.186830016 105.656208451 172.232819212 105.518240863 C 172.278808408 105.380273276 172.324797604 105.242305688 172.3707868 105.104338101 C 172.416775996 104.966370513 172.462765192 104.828402925 172.508754387 104.690435338 C 172.554743583 104.55246775 172.600732779 104.414500163 172.646721975 104.276532575 C 172.692711171 104.138564987 172.738700367 104.0005974 172.784689563 103.862629812 C 172.830678758 103.724662225 172.876667954 103.586694637 172.92265715 103.44872705 C 172.968646346 103.310759462 173.014635542 103.172791874 173.060624738 103.034824287 C 173.106613934 102.896856699 173.152603129 102.758889112 173.198592325 102.620921524 C 173.244581521 102.482953936 173.290570717 102.344986349 173.336559913 102.207018761 C 173.382549109 102.069051174 173.428538305 101.931083586 173.474527501 101.793115998 C 173.520516696 101.655148411 173.566505892 101.517180823 173.612495088 101.379213236 C 173.658484284 101.241245648 173.70447348 101.103278061 173.750462676 100.965310473 C 173.796451872 100.827342885 173.842441067 100.689375298 173.888430263 100.55140771 C 173.934419459 100.413440123 173.980408655 100.275472535 174.026397851 100.137504947 C 174.072387047 99.9995373598 174.118376243 99.8615697723 174.164365438 99.7236021847 C 174.210354634 99.5856345971 174.25634383 99.4476670095 174.302333026 99.3096994219 C 174.348322222 99.1717318343 174.394311418 99.0337642468 174.440300614 98.8957966592 C 174.486289809 98.7578290716 174.532279005 98.619861484 174.578268201 98.4818938964 C 174.624257397 98.3439263088 174.670246593 98.2059587212 174.716235789 98.0679911336 C 174.762224985 97.930023546 174.808214181 97.7920559585 174.854203376 97.6540883709 C 174.900192572 97.5161207833 174.946181768 97.3781531957 174.992170964 97.2401856081 C 175.03816016 97.1022180205 175.084149356 96.9642504329 175.130138552 96.8262828453 C 175.176127747 96.6883152577 175.222116943 96.5503476702 175.268106139 96.4123800826 C 175.314095335 96.274412495 175.360084531 96.1364449074 175.406073727 95.9984773198 C 175.452062923 95.8605097322 175.498052118 95.7225421447 175.544041314 95.5845745571 C 175.59003051 95.4466069695 175.636019706 95.3086393819 175.682008902 95.1706717943 C 175.727998098 95.0327042067 175.773987294 94.8947366191 175.819976489 94.7567690315 C 175.865965685 94.6188014439 175.911954881 94.4808338564 175.957944077 94.3428662688 C 176.003933273 94.2048986812 176.049922469 94.0669310936 176.095911665 93.928963506 C 176.141900861 93.7909959184 176.187890056 93.6530283308 176.233879252 93.5150607432 C 176.279868448 93.3770931556 176.325857644 93.2391255681 176.37184684 93.1011579805 C 176.417836036 92.9631903929 176.463825232 92.8252228053 176.509814427 92.6872552177 C 176.555803623 92.5492876301 176.601792819 92.4113200426 176.647782015 92.273352455 C 176.693771211 92.1353848674 176.739760407 91.9974172798 176.785749603 91.8594496922 C 176.831738798 91.7214821046 176.877727994 91.583514517 176.92371719 91.4455469294 C 176.969706386 91.3075793418 177.015695582 91.1696117543 177.061684778 91.0316441667 C 177.107673974 90.8936765791 177.15366317 90.7557089915 177.199652365 90.6177414039 C 177.245641561 90.4797738163 177.291630757 90.3418062287 177.337619953 90.2038386411 C 177.383609149 90.0658710535 177.429598345 89.927903466 177.475587541 89.7899358784 C 177.521576736 89.6519682908 177.567565932 89.5140007032 177.613555128 89.3760331156 C 177.659544324 89.238065528 177.70553352 89.1000979405 177.751522716 88.9621303529 C 177.797511912 88.8241627653 177.843501107 88.6861951777 177.889490303 88.5482275901 C 177.935479499 88.4102600025 177.981468695 88.2722924149 178.027457891 88.1343248273 C 178.073447087 87.9963572397 178.119436283 87.8583896522 178.165425478 87.7204220646 C 178.211414674 87.582454477 178.25740387 87.4444868894 178.303393066 87.3065193018 C 178.349382262 87.1685517142 178.395371458 87.0305841266 178.441360654 86.892616539 C 178.48734985 86.7546489514 178.533339045 86.6166813639 178.579328241 86.4787137763 C 178.625317437 86.3407461887 178.671306633 86.2027786011 178.717295829 86.0648110135 C 178.763285025 85.9268434259 178.809274221 85.7888758383 178.855263416 85.6509082508 C 178.901252612 85.5129406632 178.947241808 85.3749730756 178.993231004 85.237005488 C 179.0392202 85.0990379004 179.085209396 84.9610703128 179.131198592 84.8231027252 C 179.177187787 84.6851351376 179.223176983 84.5471675501 179.269166179 84.4091999625 C 179.315155375 84.2712323749 179.361144571 84.1332647873 179.407133767 83.9952971997 C 179.453122963 83.8573296121 179.499112158 83.7193620245 179.545101354 83.5813944369 C 179.59109055 83.4434268493 179.637079746 83.3054592618 179.683068942 83.1674916742 C 179.729058138 83.0295240866 179.775047334 82.891556499 179.82103653 82.7535889114 C 179.867025725 82.6156213238 179.913014921 82.4776537362 179.959004117 82.3396861486 C 180.004993313 82.201718561 180.050982509 82.0637509735 180.096971705 81.9257833859 C 180.142960901 81.7878157983 180.188950096 81.6498482107 180.234939292 81.5118806231 C 180.280928488 81.3739130355 180.326917684 81.235945448 180.37290688 81.0979778604 C 180.418896076 80.9600102728 180.464885272 80.8220426852 180.510874467 80.6840750976 C 180.556863663 80.54610751 180.602852859 80.4081399224 180.648842055 80.2701723348 C 180.694831251 80.1322047472 180.740820447 79.9942371597 180.786809643 79.8562695721 C 180.832798839 79.7183019845 180.878788034 79.5803343969 180.92477723 79.4423668093 C 180.970766426 79.3043992217 181.016755622 79.1664316341 181.062744818 79.0284640465 C 181.108734014 78.8904964589 181.15472321 78.7525288714 181.200712405 78.6145612838 C 181.246701601 78.4765936962 181.292690797 78.3386261086 181.338679993 78.200658521 C 181.384669189 78.0626909334 181.430658385 77.9247233459 181.476647581 77.7867557583 C 181.522636776 77.6487881707 181.568625972 77.5108205831 181.614615168 77.3728529955 C 181.660604364 77.2348854079 181.70659356 77.0969178203 181.752582756 76.9589502327 C 181.798571952 76.8209826451 181.844561147 76.6830150576 181.890550343 76.54504747 C 181.936539539 76.4070798824 181.982528735 76.2691122948 182.028517931 76.1311447072 C 182.074507127 75.9931771196 182.120496323 75.855209532 182.166485519 75.7172419444 C 182.212474714 75.5792743568 182.25846391 75.4413067693 182.304453106 75.3033391817 C 182.350442302 75.1653715941 182.396431498 75.0274040065 182.442420694 74.8894364189 C 182.48840989 74.7514688313 182.534399085 74.6135012438 182.580388281 74.4755336562 C 182.626377477 74.3375660686 182.672366673 74.199598481 182.718355869 74.0616308934 C 182.764345065 73.9236633058 182.810334261 73.7856957182 182.856323456 73.6477281306 C 182.902312652 73.509760543 182.948301848 73.3717929555 182.994291044 73.2338253679 C 183.04028024 73.0958577803 183.086269436 72.9578901927 183.132258632 72.8199226051 C 183.178247827 72.6819550175 183.224237023 72.5439874299 183.270226219 72.4060198423 C 183.316215415 72.2680522547 183.362204611 72.1300846672 183.408193807 71.9921170796 C 183.454183003 71.854149492 183.500172199 71.7161819044 183.546161394 71.5782143168 C 183.59215059 71.4402467292 183.638139786 71.3022791417 183.684128982 71.1643115541 C 183.730118178 71.0263439665 183.776107374 70.8883763789 183.82209657 70.7504087913 C 183.868085765 70.6124412037 183.914074961 70.4744736161 183.960064157 70.3365060285 C 184.006053353 70.1985384409 184.052042549 70.0605708534 184.098031745 69.9226032658 C 184.144020941 69.7846356782 184.190010136 69.6466680906 184.235999332 69.508700503 C 184.281988528 69.3707329154 184.327977724 69.2327653278 184.37396692 69.0947977402 C 184.419956116 68.9568301526 184.465945312 68.8188625651 184.511934508 68.6808949775 C 184.557923703 68.5429273899 184.603912899 68.4049598023 184.649902095 68.2669922147 C 184.695891291 68.1290246271 184.741880487 67.9910570396 184.787869683 67.853089452 C 184.833858879 67.7151218644 184.879848074 67.5771542768 184.92583727 67.4391866892 C 184.971826466 67.3012191016 185.017815662 67.163251514 185.063804858 67.0252839264 C 185.109794054 66.8873163388 185.15578325 66.7493487513 185.201772445 66.6113811637 C 185.247761641 66.4734135761 185.293750837 66.3354459885 185.339740033 66.1974784009 C 185.385729229 66.0595108133 185.431718425 65.9215432257 185.477707621 65.7835756381 C 185.523696816 65.6456080505 185.569686012 65.507640463 185.615675208 65.3696728754 C 185.661664404 65.2317052878 185.7076536 65.0937377002 185.753642796 64.9557701126 C 185.799631992 64.817802525 185.845621188 64.6798349374 185.891610383 64.5418673498 C 185.937599579 64.4038997623 185.983588775 64.2659321747 186.029577971 64.1279645871 C 186.075567167 63.9899969995 186.121556363 63.8520294119 186.167545559 63.7140618243 C 186.213534754 63.5760942367 186.25952395 63.4381266492 186.305513146 63.3001590616 C 186.351502342 63.162191474 186.397491538 63.0242238864 186.443480734 62.8862562988 C 186.48946993 62.7482887112 186.535459125 62.6103211236 186.581448321 62.472353536 C 186.627437517 62.3343859484 186.673426713 62.1964183609 186.719415909 62.0584507733 C 186.765405105 61.9204831857 186.811394301 61.7825155981 186.857383496 61.6445480105 C 186.903372692 61.5065804229 186.949361888 61.3686128353 186.995351084 61.2306452477 C 187.04134028 61.0926776601 187.087329476 60.9547100726 187.133318672 60.816742485 C 187.179307868 60.6787748974 187.225297063 60.5408073098 187.271286259 60.4028397222 C 187.317275455 60.2648721346 187.363264651 60.1269045471 187.409253847 59.9889369595 C 187.455243043 59.8509693719 187.501232239 59.7130017843 187.547221434 59.5750341967 C 187.59321063 59.4370666091 187.639199826 59.2990990215 187.685189022 59.1611314339 C 187.731178218 59.0231638463 187.777167414 58.8851962588 187.82315661 58.7472286712 C 187.869145805 58.6092610836 187.915135001 58.471293496 187.961124197 58.3333259084 C 188.007113393 58.1953583208 188.053102589 58.0573907332 188.099091785 57.9194231456 C 188.145080981 57.781455558 188.191070177 57.6434879705 188.237059372 57.5055203829 C 188.283048568 57.3675527953 188.329037764 57.2295852077 188.37502696 57.0916176201 C 188.421016156 56.9536500325 188.467005352 56.815682445 188.512994548 56.6777148574 C 188.558983743 56.5397472698 188.604972939 56.4017796822 188.650962135 56.2638120946 C 188.696951331 56.125844507 188.742940527 55.9878769194 188.788929723 55.8499093318 C 188.834918919 55.7119417442 188.880908114 55.5739741567 188.92689731 55.4360065691 C 188.972886506 55.2980389815 189.018875702 55.1600713939 189.064864898 55.0221038063 C 189.110854094 54.8841362187 189.15684329 54.7461686311 189.202832485 54.6082010435 C 189.248821681 54.4702334559 189.294810877 54.3322658684 189.340800073 54.1942982808 C 189.386789269 54.0563306932 189.432778465 53.9183631056 189.478767661 53.780395518 C 189.524756857 53.6424279304 189.570746052 53.5044603429 189.616735248 53.3664927553 C 189.662724444 53.2285251677 189.70871364 53.0905575801 189.754702836 52.9525899925 C 189.800692032 52.8146224049 189.846681228 52.6766548173 189.892670423 52.5386872297 C 189.938659619 52.4007196421 189.984648815 52.2627520546 190.030638011 52.124784467 C 190.076627207 51.9868168794 190.122616403 51.8488492918 190.168605599 51.7108817042 C 190.214594794 51.5729141166 190.26058399 51.434946529 190.306573186 51.2969789414 C 190.352562382 51.1590113538 190.398551578 51.0210437663 190.444540774 50.8830761787 C 190.49052997 50.7451085911 190.536519165 50.6071410035 190.582508361 50.4691734159 C 190.628497557 50.3312058283 190.674486753 50.1932382408 190.720475949 50.0552706532 C 190.766465145 49.9173030656 190.812454341 49.779335478 190.858443537 49.6413678904 C 190.904432732 49.5034003028 190.950421928 49.3654327152 190.996411124 49.2274651276 C 191.04240032 49.08949754 191.088389516 48.9515299525 191.134378712 48.8135623649 C 191.180367908 48.6755947773 191.226357103 48.5376271897 191.272346299 48.3996596021 C 191.318335495 48.2616920145 191.364324691 48.1237244269 191.410313887 47.9857568393 C 191.456303083 47.8477892517 191.502292279 47.7098216642 191.548281474 47.5718540766 C 191.59427067 47.433886489 191.640259866 47.2959189014 191.686249062 47.1579513138 C 191.732238258 47.0199837262 191.778227454 46.8820161386 191.82421665 46.7440485511 C 191.870205846 46.6060809635 191.916195041 46.4681133759 191.962184237 46.3301457883 C 192.008173433 46.1921782007 192.054162629 46.0542106131 192.100151825 45.9162430255 C 192.146141021 45.7782754379 192.192130217 45.6403078504 192.238119412 45.5023402628 C 192.284108608 45.3643726752 192.330097804 45.2264050876 192.376087 45.0884375 L 192.376087 234.604165"
       style="opacity:1;fill:none;fill-opacity:0.27891158;stroke:#000000;stroke-width:0.26499999;stroke-miterlimit:4;stroke-dasharray:none;stroke-dashoffset:0;stroke-opacity:1" />
  </g>
</svg>
