<?xml version="1.0" encoding="UTF-8" standalone="no"?>
<!-- Created with Inkscape (http://www.inkscape.org/) -->

<svg
   xmlns:dc="http://purl.org/dc/elements/1.1/"
   xmlns:cc="http://creativecommons.org/ns#"
   xmlns:rdf="http://www.w3.org/1999/02/22-rdf-syntax-ns#"
   xmlns:svg="http://www.w3.org/2000/svg"
   xmlns="http://www.w3.org/2000/svg"
   xmlns:sodipodi="http://sodipodi.sourceforge.net/DTD/sodipodi-0.dtd"
   xmlns:inkscape="http://www.inkscape.org/namespaces/inkscape"
   sodipodi:docname="the-trapezium-rule.svg"
   inkscape:version="0.92.5 (2060ec1f9f, 2020-04-08)"
   id="svg8"
   version="1.1"
   viewBox="0 0 240 120"
   height="120mm"
   width="240mm">
  <defs
     id="defs2">
    <clipPath
       id="clipPath">
      <rect
         y="201.98566"
         x="47.224949"
         height="72.060379"
         width="142.42743"
         id="rect816"
         style="opacity:1;fill:none;fill-opacity:1;stroke:#220000;stroke-width:0.26499999;stroke-miterlimit:4;stroke-dasharray:none;stroke-dashoffset:0;stroke-opacity:1" />
    </clipPath>
  </defs>
  <sodipodi:namedview
     id="base"
     pagecolor="#ffffff"
     bordercolor="#666666"
     borderopacity="1.0"
     inkscape:pageopacity="0.0"
     inkscape:pageshadow="2"
     inkscape:zoom="5.6250281"
     inkscape:cx="466.25838"
     inkscape:cy="178.26173"
     inkscape:document-units="mm"
     inkscape:current-layer="layer1"
     showgrid="false"
     showborder="true"
     width="200mm"
     showguides="true"
     inkscape:guide-bbox="true"
     inkscape:window-width="2960"
     inkscape:window-height="1890"
     inkscape:window-x="20"
     inkscape:window-y="90"
     inkscape:window-maximized="0">
    <inkscape:grid
       dotted="false"
       empspacing="4"
       spacingy="10"
       spacingx="10"
       units="mm"
       id="grid815"
       type="xygrid" />
  </sodipodi:namedview>
  <metadata
     id="metadata5">
    <rdf:RDF>
      <cc:Work
         rdf:about="">
        <dc:format>image/svg+xml</dc:format>
        <dc:type
           rdf:resource="http://purl.org/dc/dcmitype/StillImage" />
        <dc:title />
      </cc:Work>
    </rdf:RDF>
  </metadata>
  <g
     inkscape:label="Layer 1"
     inkscape:groupmode="layer"
     id="layer1"
     transform="translate(0,-177)">
    <rect
       y="201.98566"
       x="47.224949"
       height="72.060379"
       width="142.42743"
       id="rect1242"
       style="opacity:1;fill:none;fill-opacity:1;stroke:#220000;stroke-width:0.26499999;stroke-miterlimit:4;stroke-dasharray:none;stroke-dashoffset:0;stroke-opacity:1" />
    <path
       id="path1244"
       clip-path="url(#clipPath)"
       title="2*cos(5/4*x)"
       d="M 47.224949 274.046039 l 142.42743 0 M 118.438664 274.046039 l 0 -72.060379 M 47.224949 274.046039 L 47.224949 298.851981279 C 47.2724723333 298.920914429 47.3199956667 298.9895889 47.367519 299.05800255 C 47.4150423333 299.1264162 47.4625656667 299.194567979 47.510089 299.262457327 C 47.5576123333 299.330346675 47.6051356667 299.397972012 47.652659 299.465332805 C 47.7001823333 299.532693599 47.7477056667 299.599788257 47.795229 299.666616278 C 47.8427523333 299.733444299 47.8902756667 299.800004078 47.937799 299.86629514 C 47.9853223333 299.932586203 48.0328456667 299.998606932 48.080369 300.064356885 C 48.1278923333 300.130106837 48.1754156667 300.195584383 48.222939 300.260789108 C 48.2704623333 300.325993832 48.3179856667 300.390924094 48.365509 300.455579506 C 48.4130323333 300.520234919 48.4605556667 300.58461383 48.508079 300.648715881 C 48.5556023333 300.712817933 48.6031256667 300.77664146 48.650649 300.840186136 C 48.6981723333 300.903730812 48.7456956667 300.966994959 48.793219 301.029978279 C 48.8407423333 301.0929616 48.8882656667 301.155662404 48.935789 301.218080424 C 48.9833123333 301.280498445 49.0308356667 301.342631979 49.078359 301.40448079 C 49.1258823333 301.466329601 49.1734056667 301.527891975 49.220929 301.589167702 C 49.2684523333 301.65044343 49.3159756667 301.711430787 49.363499 301.772129594 C 49.4110223333 301.832828402 49.4585456667 301.893236922 49.506069 301.953355007 C 49.5535923333 302.013473092 49.6011156667 302.073298993 49.648639 302.132832591 C 49.6961623333 302.192366188 49.7436856667 302.251605723 49.791209 302.310551105 C 49.8387323333 302.369496486 49.8862556667 302.428145944 49.933779 302.486499418 C 49.9813023333 302.544852892 50.0288256667 302.6029086 50.076349 302.660666512 C 50.1238723333 302.718424423 50.1713956667 302.775882745 50.218919 302.833041477 C 50.2664423333 302.890200209 50.3139656667 302.947057547 50.361489 303.003613519 C 50.4090123333 303.060169491 50.4565356667 303.116422283 50.504059 303.172371954 C 50.5515823333 303.228321624 50.5991056667 303.283966348 50.646629 303.339306213 C 50.6941523333 303.394646077 50.7416756667 303.449679248 50.789199 303.50440584 C 50.8367223333 303.559132433 50.8842456667 303.613550603 50.931769 303.667660497 C 50.9792923333 303.721770391 51.0268156667 303.775570152 51.074339 303.829059958 C 51.1218623333 303.882549763 51.1693856667 303.935727747 51.216909 303.988594114 C 51.2644323333 304.041460482 51.3119556667 304.094013357 51.359479 304.146252975 C 51.4070023333 304.198492593 51.4545256667 304.250417069 51.502049 304.302026666 C 51.5495723333 304.353636263 51.5970956667 304.404929087 51.644619 304.45590543 C 51.6921423333 304.506881774 51.7396656667 304.557539734 51.787189 304.607879632 C 51.8347123333 304.65821953 51.8822356667 304.708239452 51.929759 304.757939751 C 51.9772823333 304.807640051 52.0248056667 304.857018803 52.072329 304.906076391 C 52.1198523333 304.955133979 52.1673756667 305.00386847 52.214899 305.052280274 C 52.2624223333 305.100692078 52.3099456667 305.148779253 52.357469 305.196542242 C 52.4049923333 305.24430523 52.4525156667 305.291742079 52.500039 305.33885326 C 52.5475623333 305.385964441 52.5950856667 305.432747994 52.642609 305.479204417 C 52.6901323333 305.52566084 52.7376556667 305.571788165 52.785179 305.617586921 C 52.8327023333 305.663385676 52.8802256667 305.708853885 52.927749 305.753992105 C 52.9752723333 305.799130325 53.0227956667 305.843936571 53.070319 305.888411428 C 53.1178423333 305.932886285 53.1653656667 305.97702776 53.212889 306.020836469 C 53.2604123333 306.064645178 53.3079356667 306.108119119 53.355459 306.151258936 C 53.4029823333 306.194398753 53.4505056667 306.237202436 53.498029 306.279670659 C 53.5455523333 306.322138883 53.5930756667 306.364269628 53.640599 306.406063597 C 53.6881223333 306.447857567 53.7356456667 306.489312735 53.783169 306.530429834 C 53.8306923333 306.571546933 53.8782156667 306.612323928 53.925739 306.65276158 C 53.9732623333 306.693199233 54.0207856667 306.733295501 54.068309 306.773051174 C 54.1158323333 306.812806848 54.1633556667 306.852219878 54.210879 306.891291083 C 54.2584023333 306.930362288 54.3059256667 306.969089611 54.353449 307.0074739 C 54.4009723333 307.045858189 54.4484956667 307.08389738 54.496019 307.121592349 C 54.5435423333 307.159287319 54.5910656667 307.196635995 54.638589 307.233639284 C 54.6861123333 307.270642573 54.7336356667 307.307298396 54.781159 307.343607687 C 54.8286823333 307.379916977 54.8762056667 307.415877651 54.923729 307.451490669 C 54.9712523333 307.487103688 55.0187756667 307.52236696 55.066299 307.557281476 C 55.1138223333 307.592195992 55.1613456667 307.626759653 55.208869 307.66097348 C 55.2563923333 307.695187307 55.3039156667 307.729049194 55.351439 307.762560189 C 55.3989623333 307.796071183 55.4464856667 307.829229175 55.494009 307.862035238 C 55.5415323333 307.894841302 55.5890556667 307.927293321 55.636579 307.9593924 C 55.6841023333 307.991491478 55.7316256667 308.023235492 55.779149 308.054625575 C 55.8266723333 308.086015657 55.8741956667 308.117049679 55.921719 308.147728799 C 55.9692423333 308.17840792 56.0167656667 308.208730005 56.064289 308.238696242 C 56.1118123333 308.26866248 56.1593356667 308.298270729 56.206859 308.327522207 C 56.2543823333 308.356773684 56.3019056667 308.385666243 56.349429 308.414201129 C 56.3969523333 308.442736014 56.4444756667 308.470911074 56.491999 308.49872758 C 56.5395223333 308.526544087 56.5870456667 308.553999882 56.634569 308.581096268 C 56.6820923333 308.608192653 56.7296156667 308.634927465 56.777139 308.661302031 C 56.8246623333 308.687676598 56.8721856667 308.713688752 56.919709 308.739339849 C 56.9672323333 308.764990945 57.0147556667 308.790278812 57.062279 308.815204832 C 57.1098023333 308.840130852 57.1573256667 308.864692847 57.204849 308.88889223 C 57.2523723333 308.913091612 57.2998956667 308.936926198 57.347419 308.960397427 C 57.3949423333 308.983868656 57.4424656667 309.00697434 57.489989 309.029715946 C 57.5375123333 309.052457551 57.5850356667 309.074832886 57.632559 309.096843444 C 57.6800823333 309.118854001 57.7276056667 309.140497586 57.775129 309.161775718 C 57.8226523333 309.183053849 57.8701756667 309.203964328 57.917699 309.224508701 C 57.9652223333 309.245053073 58.0127456667 309.265229136 58.060269 309.285038463 C 58.1077923333 309.30484779 58.1553156667 309.324288174 58.202839 309.343361215 C 58.2503623333 309.362434256 58.2978856667 309.381137743 58.345409 309.399473303 C 58.3929323333 309.417808863 58.4404556667 309.435774282 58.487979 309.453371213 C 58.5355023333 309.470968144 58.5830256667 309.48819437 58.630549 309.505051569 C 58.6780723333 309.521908769 58.7255956667 309.538394722 58.773119 309.554511135 C 58.8206423333 309.570627548 58.8681656667 309.586372197 58.915689 309.601746813 C 58.9632123333 309.61712143 59.0107356667 309.632123787 59.058259 309.646755645 C 59.1057823333 309.661387502 59.1533056667 309.675646629 59.200829 309.689534811 C 59.2483523333 309.703422993 59.2958756667 309.716937996 59.343399 309.730081633 C 59.3909223333 309.743225269 59.4384456667 309.755995303 59.485969 309.76839357 C 59.5334923333 309.780791838 59.5810156667 309.792816102 59.628539 309.804468225 C 59.6760623333 309.816120347 59.7235856667 309.827398088 59.771109 309.838303336 C 59.8186323333 309.849208584 59.8661556667 309.859739096 59.913679 309.869896786 C 59.9612023333 309.880054475 60.0087256667 309.889837099 60.056249 309.899246595 C 60.1037723333 309.90865609 60.1512956667 309.917690213 60.198819 309.926350925 C 60.2463423333 309.935011637 60.2938656667 309.943296692 60.341389 309.951208079 C 60.3889123333 309.959119466 60.4364356667 309.966654935 60.483959 309.9738165 C 60.5314823333 309.980978065 60.5790056667 309.987763476 60.626529 309.994174772 C 60.6740523333 310.000586067 60.7215756667 310.006620996 60.769099 310.01228162 C 60.8166223333 310.017942244 60.8641456667 310.023226311 60.911669 310.02813591 C 60.9591923333 310.033045508 61.0067156667 310.037578383 61.054239 310.041736648 C 61.1017623333 310.045894913 61.1492856667 310.049676313 61.196809 310.053082984 C 61.2443323333 310.056489655 61.2918556667 310.059519342 61.339379 310.062174206 C 61.3869023333 310.06482907 61.4344256667 310.067106855 61.481949 310.069009746 C 61.5294723333 310.070912637 61.5769956667 310.072438377 61.624519 310.073589175 C 61.6720423333 310.074739972 61.7195656667 310.075513572 61.767089 310.075912205 C 61.8146123333 310.076310839 61.8621356667 310.076332249 61.909659 310.075978693 C 61.9571823333 310.075625136 62.0047056667 310.074894357 62.052229 310.073788633 C 62.0997523333 310.072682909 62.1472756667 310.071199985 62.194799 310.069342163 C 62.2423223333 310.067484341 62.2898456667 310.065249365 62.337369 310.062639561 C 62.3848923333 310.060029757 62.4324156667 310.057042869 62.479939 310.053681247 C 62.5274623333 310.050319624 62.5749856667 310.046581012 62.622509 310.042467782 C 62.6700323333 310.038354551 62.7175556667 310.033864449 62.765079 310.028999868 C 62.8126023333 310.024135288 62.8601256667 310.018893976 62.907649 310.013278349 C 62.9551723333 310.007662723 63.0026956667 310.00167053 63.050219 309.99530421 C 63.0977423333 309.98893789 63.1452656667 309.982195191 63.192789 309.975078576 C 63.2403123333 309.967961961 63.2878356667 309.960469179 63.335359 309.952602714 C 63.3828823333 309.944736249 63.4304056667 309.936493853 63.477929 309.927878031 C 63.5254523333 309.91926221 63.5729756667 309.910270716 63.620499 309.900906077 C 63.6680223333 309.891541438 63.7155456667 309.881801409 63.763069 309.87168854 C 63.8105923333 309.86157567 63.8581156667 309.851087717 63.905639 309.84022725 C 63.9531623333 309.829366783 64.0006856667 309.818131561 64.048209 309.806524178 C 64.0957323333 309.794916794 64.1432556667 309.782935008 64.190779 309.770581434 C 64.2383023333 309.75822786 64.2858256667 309.74550026 64.333349 309.732401269 C 64.3808723333 309.719302279 64.4283956667 309.705829662 64.475919 309.691986076 C 64.5234423333 309.678142489 64.5709656667 309.6639257 64.618489 309.649338384 C 64.6660123333 309.634751068 64.7135356667 309.619790997 64.761059 309.604460865 C 64.8085823333 309.589130734 64.8561056667 309.573428317 64.903629 309.55735633 C 64.9511523333 309.541284344 64.9986756667 309.524840564 65.046199 309.508027729 C 65.0937223333 309.491214894 65.1412456667 309.474030782 65.188769 309.456478151 C 65.2362923333 309.43892552 65.2838156667 309.421002152 65.331339 309.402710825 C 65.3788623333 309.384419497 65.4263856667 309.365757996 65.473909 309.346729118 C 65.5214323333 309.327700239 65.5689556667 309.308301773 65.616479 309.288536536 C 65.6640023333 309.268771299 65.7115256667 309.248637083 65.759049 309.228136724 C 65.8065723333 309.207636366 65.8540956667 309.186767661 65.901619 309.165533465 C 65.9491423333 309.144299269 65.9966656667 309.122697383 66.044189 309.100730679 C 66.0917123333 309.078763976 66.1392356667 309.056430261 66.186759 309.033732426 C 66.2342823333 309.011034591 66.2818056667 308.987970446 66.329329 308.964542901 C 66.3768523333 308.941115356 66.4243756667 308.917322225 66.471899 308.893166437 C 66.5194223333 308.869010649 66.5669456667 308.844490023 66.614469 308.819607505 C 66.6619923333 308.794724988 66.7095156667 308.769478401 66.757039 308.743870712 C 66.8045623333 308.718263023 66.8520856667 308.692292058 66.899609 308.665960801 C 66.9471323333 308.639629545 66.9946556667 308.612935828 67.042179 308.585882652 C 67.0897023333 308.558829477 67.1372256667 308.53141468 67.184749 308.50364128 C 67.2322723333 308.475867881 67.2797956667 308.44773372 67.327319 308.419241836 C 67.3748423333 308.390749951 67.4223656667 308.36189819 67.469889 308.332689605 C 67.5174123333 308.30348102 67.5649356667 308.273913465 67.612459 308.243990009 C 67.6599823333 308.214066553 67.7075056667 308.183785055 67.755029 308.153148602 C 67.8025523333 308.122512149 67.8500756667 308.091518605 67.897599 308.060171074 C 67.9451223333 308.028823543 67.9926456667 307.997119895 68.040169 307.965063249 C 68.0876923333 307.933006603 68.1352156667 307.900594835 68.182739 307.867831082 C 68.2302623333 307.835067329 68.2777856667 307.801949472 68.325309 307.768480664 C 68.3728323333 307.735011855 68.4203556667 307.701189983 68.467879 307.667018216 C 68.5154023333 307.632846448 68.5629256667 307.59832268 68.610449 307.563450093 C 68.6579723333 307.528577507 68.7054956667 307.493354004 68.753019 307.457782783 C 68.8005423333 307.422211561 68.8480656667 307.38629053 68.895589 307.350022901 C 68.9431123333 307.313755273 68.9906356667 307.277138963 69.038159 307.240177199 C 69.0856823333 307.203215435 69.1332056667 307.165906139 69.180729 307.128252554 C 69.2282523333 307.09059897 69.2757756667 307.052599025 69.323299 307.014255978 C 69.3708223333 306.975912931 69.4183456667 306.937224717 69.465869 306.898194609 C 69.5133923333 306.859164501 69.5609156667 306.819790442 69.608439 306.780075717 C 69.6559623333 306.740360993 69.7034856667 306.700303553 69.751009 306.659906699 C 69.7985323333 306.619509845 69.8460556667 306.578771535 69.893579 306.537695082 C 69.9411023333 306.496618629 69.9886256667 306.455201998 70.036149 306.413448519 C 70.0836723333 306.371695039 70.1311956667 306.329602683 70.178719 306.287174792 C 70.2262423333 306.244746901 70.2737656667 306.201981455 70.321289 306.158881809 C 70.3688123333 306.115782164 70.4163356667 306.072346307 70.463859 306.028577606 C 70.5113823333 305.984808906 70.5589056667 305.940705358 70.606429 305.896270344 C 70.6539523333 305.85183533 70.7014756667 305.807066854 70.748999 305.761968308 C 70.7965223333 305.716869763 70.8440456667 305.671439162 70.891569 305.625679911 C 70.9390923333 305.579920659 70.9866156667 305.533830779 71.034139 305.487413687 C 71.0816623333 305.440996595 71.1291856667 305.394250322 71.176709 305.347178297 C 71.2242323333 305.300106272 71.2717556667 305.252706534 71.319279 305.204982523 C 71.3668023333 305.157258512 71.4143256667 305.109208278 71.461849 305.060835271 C 71.5093723333 305.012462264 71.5568956667 304.963764543 71.604419 304.914745569 C 71.6519423333 304.865726595 71.6994656667 304.816384437 71.746989 304.766722567 C 71.7945123333 304.717060696 71.8420356667 304.667077191 71.889559 304.616775534 C 71.9370823333 304.566473878 71.9846056667 304.515852156 72.032129 304.464913863 C 72.0796523333 304.413975571 72.1271756667 304.362718803 72.174699 304.311147064 C 72.2222223333 304.259575326 72.2697456667 304.207686722 72.317269 304.155484768 C 72.3647923333 304.103282815 72.4123156667 304.050765625 72.459839 303.997936724 C 72.5073623333 303.945107824 72.5548856667 303.891965337 72.602409 303.838512799 C 72.6499323333 303.785060261 72.6974556667 303.731295806 72.744979 303.677222978 C 72.7925023333 303.62315015 72.8400256667 303.568767093 72.887549 303.514077362 C 72.9350723333 303.45938763 72.9825956667 303.404389379 73.030119 303.349086169 C 73.0776423333 303.293782959 73.1251656667 303.238172956 73.172689 303.182259732 C 73.2202123333 303.126346508 73.2677356667 303.070128237 73.315259 303.0136085 C 73.3627823333 302.957088763 73.4103056667 302.900265746 73.457829 302.843143036 C 73.5053523333 302.786020326 73.5528756667 302.72859612 73.600399 302.670874015 C 73.6479223333 302.613151909 73.6954456667 302.555130112 73.742969 302.496812226 C 73.7904923333 302.438494341 73.8380156667 302.379878585 73.885539 302.320968572 C 73.9330623333 302.262058559 73.9805856667 302.202852517 74.028109 302.143354065 C 74.0756323333 302.083855613 74.1231556667 302.024062993 74.170679 301.963979829 C 74.2182023333 301.903896666 74.2657256667 301.843521211 74.313249 301.782857099 C 74.3607723333 301.722192986 74.4082956667 301.661238479 74.455819 301.599997217 C 74.5033423333 301.538755955 74.5508656667 301.477226213 74.598389 301.415411637 C 74.6459123333 301.353597061 74.6934356667 301.291495937 74.740959 301.229111919 C 74.7884823333 301.166727901 74.8360056667 301.104059285 74.883529 301.041109731 C 74.9310523333 300.978160177 74.9785756667 300.914927994 75.026099 300.851416847 C 75.0736223333 300.7879057 75.1211456667 300.724113911 75.168669 300.660045149 C 75.2161923333 300.595976387 75.2637156667 300.531628985 75.311239 300.46700662 C 75.3587623333 300.402384256 75.4062856667 300.337485273 75.453809 300.272313353 C 75.5013323333 300.207141433 75.5488556667 300.141694933 75.596379 300.075977539 C 75.6439023333 300.010260145 75.6914256667 299.944270227 75.738949 299.878011476 C 75.7864723333 299.811752724 75.8339956667 299.745223521 75.881519 299.678427561 C 75.9290423333 299.611631602 75.9765656667 299.54456728 76.024089 299.477238296 C 76.0716123333 299.409909312 76.1191356667 299.342314073 76.166659 299.274456281 C 76.2141823333 299.206598489 76.2617056667 299.138476564 76.309229 299.070094214 C 76.3567523333 299.001711865 76.4042756667 298.933067522 76.451799 298.864164897 C 76.4993223333 298.795262272 76.5468456667 298.72609981 76.594369 298.656681226 C 76.6418923333 298.587262641 76.6894156667 298.517586392 76.736939 298.447656195 C 76.7844623333 298.377725998 76.8319856667 298.307540326 76.879509 298.237102896 C 76.9270323333 298.166665467 76.9745556667 298.095974767 77.022079 298.025034517 C 77.0696023333 297.954094267 77.1171256667 297.882902965 77.164649 297.811464337 C 77.2121723333 297.74002571 77.2596956667 297.668338266 77.307219 297.596405735 C 77.3547423333 297.524473203 77.4022656667 297.452294108 77.449789 297.379872178 C 77.4973123333 297.307450247 77.5448356667 297.234784021 77.592359 297.161877227 C 77.6398823333 297.088970434 77.6874056667 297.015821627 77.734929 296.942434537 C 77.7824523333 296.869047448 77.8299756667 296.795420641 77.877499 296.721557851 C 77.9250223333 296.647695061 77.9725456667 296.573594866 78.020069 296.499261001 C 78.0675923333 296.424927137 78.1151156667 296.350358195 78.162639 296.275557911 C 78.2101623333 296.200757628 78.2576856667 296.125724609 78.305209 296.050462592 C 78.3527323333 295.975200574 78.4002556667 295.899708178 78.447779 295.823989139 C 78.4953023333 295.748270101 78.5428256667 295.672323055 78.590349 295.596151739 C 78.6378723333 295.519980422 78.6853956667 295.443583484 78.732919 295.366964659 C 78.7804423333 295.290345834 78.8279656667 295.213503788 78.875489 295.136442254 C 78.9230123333 295.059380721 78.9705356667 294.982098379 79.018059 294.904598962 C 79.0655823333 294.827099546 79.1131056667 294.749381748 79.160629 294.671449303 C 79.2081523333 294.593516857 79.2556756667 294.515368472 79.303199 294.437007879 C 79.3507223333 294.358647285 79.3982456667 294.280073206 79.445769 294.201289372 C 79.4932923333 294.122505538 79.5408156667 294.043510687 79.588339 293.964308547 C 79.6358623333 293.885106407 79.6833856667 293.80569573 79.730909 293.726080245 C 79.7784323333 293.646464759 79.8259556667 293.566643231 79.873479 293.486619386 C 79.9210023333 293.40659554 79.9685256667 293.32636816 80.016049 293.245940967 C 80.0635723333 293.165513774 80.1110956667 293.084885566 80.158619 293.004060063 C 80.2061423333 292.923234559 80.2536656667 292.842210573 80.301189 292.760991822 C 80.3487123333 292.67977307 80.3962356667 292.59835838 80.443759 292.516751467 C 80.4912823333 292.435144554 80.5388056667 292.35334426 80.586329 292.271354296 C 80.6338523333 292.189364332 80.6813756667 292.107183556 80.728899 292.024815677 C 80.7764223333 291.942447797 80.8239456667 291.859891687 80.871469 291.777151051 C 80.9189923333 291.694410414 80.9665156667 291.611484141 81.014039 291.528375929 C 81.0615623333 291.445267718 81.1090856667 291.361976474 81.156609 291.278505892 C 81.2041323333 291.195035311 81.2516556667 291.111384313 81.299179 291.02755659 C 81.3467023333 290.943728867 81.3942256667 290.859723354 81.441749 290.775543739 C 81.4892723333 290.691364123 81.5367956667 290.607009357 81.584319 290.522483122 C 81.6318423333 290.437956887 81.6793656667 290.353258151 81.726889 290.26839059 C 81.7744123333 290.183523028 81.8219356667 290.098485626 81.869459 290.013282054 C 81.9169823333 289.928078482 81.9645056667 289.842707741 82.012029 289.757173494 C 82.0595523333 289.671639248 82.1070756667 289.585940513 82.154599 289.500080949 C 82.2021223333 289.414221385 82.2496456667 289.328200024 82.297169 289.242020521 C 82.3446923333 289.155841017 82.3922156667 289.069502418 82.439739 288.983008371 C 82.4872623333 288.896514324 82.5347856667 288.809863894 82.582309 288.723060722 C 82.6298323333 288.63625755 82.6773556667 288.549300716 82.724879 288.462193855 C 82.7724023333 288.375086993 82.8199256667 288.287829201 82.867449 288.200424106 C 82.9149723333 288.113019011 82.9624956667 288.025465727 83.010019 287.937767872 C 83.0575423333 287.850070017 83.1050656667 287.762226723 83.152589 287.674241602 C 83.2001123333 287.58625648 83.2476356667 287.498128678 83.295159 287.4098618 C 83.3426823333 287.321594922 83.3902056667 287.233188131 83.437729 287.144645025 C 83.4852523333 287.056101918 83.5327756667 286.967421676 83.580299 286.878607887 C 83.6278223333 286.789794097 83.6753456667 286.700845957 83.722869 286.611767048 C 83.7703923333 286.522688138 83.8179156667 286.433477671 83.865439 286.34413922 C 83.9129623333 286.254800768 83.9604856667 286.165333562 84.008009 286.075741164 C 84.0555323333 285.986148766 84.1030556667 285.896430424 84.150579 285.806589691 C 84.1981023333 285.716748958 84.2456256667 285.626785099 84.293149 285.536701657 C 84.3406723333 285.446618216 84.3881956667 285.356414474 84.435719 285.266093966 C 84.4832423333 285.175773458 84.5307656667 285.085335482 84.578289 284.994783565 C 84.6258123333 284.904231647 84.6733356667 284.813565102 84.720859 284.722787446 C 84.7683823333 284.63200979 84.8159056667 284.541120354 84.863429 284.450122645 C 84.9109523333 284.359124935 84.9584756667 284.268018301 85.005999 284.176806238 C 85.0535223333 284.085594175 85.1010456667 283.994276048 85.148569 283.902855343 C 85.1960923333 283.811434639 85.2436156667 283.719910739 85.291139 283.628287118 C 85.3386623333 283.536663498 85.3861856667 283.444939557 85.433709 283.353118759 C 85.4812323333 283.261297962 85.5287556667 283.169379724 85.576279 283.0773675 C 85.6238023333 282.985355276 85.6713256667 282.893248499 85.718849 282.80105061 C 85.7663723333 282.708852722 85.8138956667 282.616563174 85.861419 282.524185396 C 85.9089423333 282.431807618 85.9564656667 282.33934108 86.003989 282.246789198 C 86.0515123333 282.154237316 86.0990356667 282.061599577 86.146559 281.968879388 C 86.1940823333 281.876159198 86.2416056667 281.783356062 86.289129 281.690473372 C 86.3366523333 281.597590682 86.3841756667 281.50462796 86.431699 281.411588587 C 86.4792223333 281.318549214 86.5267456667 281.225432729 86.574269 281.132242499 C 86.6217923333 281.03905227 86.6693156667 280.945787853 86.716839 280.852452604 C 86.7643623333 280.759117355 86.8118856667 280.665710848 86.859409 280.572236425 C 86.9069323333 280.478762002 86.9544556667 280.385219254 87.001979 280.291611511 C 87.0495023333 280.198003768 87.0970256667 280.104330639 87.144549 280.010595439 C 87.1920723333 279.916860238 87.2395956667 279.823062594 87.287119 279.729205807 C 87.3346423333 279.63534902 87.3821656667 279.541432735 87.429689 279.44746024 C 87.4772123333 279.353487745 87.5247356667 279.259458701 87.572259 279.165376383 C 87.6197823333 279.071294065 87.6673056667 278.977158152 87.714829 278.882971903 C 87.7623523333 278.788785655 87.8098756667 278.694548768 87.857399 278.600264487 C 87.9049223333 278.505980207 87.9524456667 278.411648248 87.999969 278.317271841 C 88.0474923333 278.222895434 88.0950156667 278.128474312 88.142539 278.034011689 C 88.1900623333 277.939549066 88.2375856667 277.845044693 88.285109 277.75050177 C 88.3326323333 277.655958848 88.3801556667 277.561377143 88.427679 277.466759842 C 88.4752023333 277.372142541 88.5227256667 277.277489429 88.570249 277.182803675 C 88.6177723333 277.088117921 88.6652956667 276.993399329 88.712819 276.898651053 C 88.7603423333 276.803902777 88.8078656667 276.709124637 88.855389 276.614319772 C 88.9029123333 276.519514908 88.9504356667 276.424683157 88.997959 276.329827641 C 89.0454823333 276.234972125 89.0930056667 276.140092702 89.140529 276.045192476 C 89.1880523333 275.950292251 89.2355756667 275.855371097 89.283099 275.760432105 C 89.3306223333 275.665493113 89.3781456667 275.570536175 89.425669 275.475564362 C 89.4731923333 275.380592549 89.5207156667 275.285605773 89.568239 275.190607088 C 89.6157623333 275.095608403 89.6632856667 275.000597737 89.710809 274.90557813 C 89.7583323333 274.810558522 89.8058556667 274.715529918 89.853379 274.620495339 C 89.9009023333 274.525460759 89.9484256667 274.430420169 89.995949 274.33537657 C 90.0434723333 274.240332971 90.0909956667 274.145286346 90.138519 274.05023968 C 90.1860423333 273.955193014 90.2335656667 273.860146307 90.281089 273.765102526 C 90.3286123333 273.670058746 90.3761356667 273.57501791 90.423659 273.479982968 C 90.4711823333 273.384948026 90.5187056667 273.289919014 90.566229 273.194898862 C 90.6137523333 273.09987871 90.6612756667 273.004867473 90.708799 272.909868062 C 90.7563223333 272.814868652 90.8038456667 272.71988114 90.851369 272.624908421 C 90.8988923333 272.529935702 90.9464156667 272.434977865 90.993939 272.340037785 C 91.0414623333 272.245097705 91.0889856667 272.150175489 91.136509 272.055273995 C 91.1840323333 271.9603725 91.2315556667 271.865491852 91.279079 271.770634886 C 91.3266023333 271.675777921 91.3741256667 271.580944781 91.421649 271.486138286 C 91.4691723333 271.39133179 91.5166956667 271.296552099 91.564219 271.201802011 C 91.6117423333 271.107051923 91.6592656667 271.012331617 91.706789 270.917643871 C 91.7543123333 270.822956125 91.8018356667 270.728301135 91.849359 270.633681661 C 91.8968823333 270.539062187 91.9444056667 270.444478442 91.991929 270.349933166 C 92.0394523333 270.25538789 92.0869756667 270.160881315 92.134499 270.066416158 C 92.1820223333 269.971951001 92.2295456667 269.877527513 92.277069 269.783148393 C 92.3245923333 269.688769272 92.3721156667 269.594434785 92.419639 269.500147611 C 92.4671623333 269.405860437 92.5146856667 269.31162086 92.562209 269.217431538 C 92.6097323333 269.123242216 92.6572556667 269.029103451 92.704779 268.935017879 C 92.7523023333 268.840932308 92.7998256667 268.746900251 92.847349 268.652924323 C 92.8948723333 268.558948395 92.9423956667 268.465028935 92.989919 268.371168536 C 93.0374423333 268.277308138 93.0849656667 268.183507156 93.132489 268.089768165 C 93.1800123333 267.996029174 93.2275356667 267.902352547 93.275059 267.808740834 C 93.3225823333 267.715129122 93.3701056667 267.621582715 93.417629 267.528104144 C 93.4651523333 267.434625573 93.5126756667 267.341215246 93.560199 267.247875671 C 93.6077223333 267.154536096 93.6552456667 267.061267698 93.702769 266.968072965 C 93.7502923333 266.874878232 93.7978156667 266.781757605 93.845339 266.688713551 C 93.8928623333 266.595669496 93.9403856667 266.502702473 93.987909 266.409814924 C 94.0354323333 266.316927375 94.0829556667 266.224119778 94.130479 266.131394552 C 94.1780023333 266.038669327 94.2255256667 265.946026968 94.273049 265.853469873 C 94.3205723333 265.760912778 94.3680956667 265.66844146 94.415619 265.576058293 C 94.4631423333 265.483675126 94.5106656667 265.39138064 94.558189 265.299177186 C 94.6057123333 265.206973732 94.6532356667 265.114861859 94.700759 265.022843893 C 94.7482823333 264.930825927 94.7958056667 264.838902435 94.843329 264.747075721 C 94.8908523333 264.655249006 94.9383756667 264.563519652 94.985899 264.471889941 C 95.0334223333 264.380260229 95.0809456667 264.288730758 95.128469 264.197303787 C 95.1759923333 264.105876816 95.2235156667 264.014552962 95.271039 263.923334458 C 95.3185623333 263.832115954 95.3660856667 263.741003436 95.413609 263.649999112 C 95.4611323333 263.558994788 95.5086556667 263.468099311 95.556179 263.377314867 C 95.6037023333 263.286530424 95.6512256667 263.195857681 95.698749 263.105298803 C 95.7462723333 263.014739925 95.7937956667 262.924295596 95.841319 262.833967955 C 95.8888423333 262.743640313 95.9363656667 262.653430062 95.983889 262.563339316 C 96.0314123333 262.473248569 96.0789356667 262.383278046 96.126459 262.293429836 C 96.1739823333 262.203581626 96.2215056667 262.113856466 96.269029 262.02425642 C 96.3165523333 261.934656374 96.3640756667 261.845182196 96.411599 261.755835925 C 96.4591223333 261.666489655 96.5066456667 261.577272062 96.554169 261.488185163 C 96.6016923333 261.399098264 96.6492156667 261.310142845 96.696739 261.221320897 C 96.7442623333 261.132498949 96.7917856667 261.043811275 96.839309 260.95525984 C 96.8868323333 260.866708406 96.9343556667 260.778294031 96.981879 260.690018656 C 97.0294023333 260.601743282 97.0769256667 260.513607743 97.124449 260.425613957 C 97.1719723333 260.337620171 97.2194956667 260.249768989 97.267019 260.162062302 C 97.3145423333 260.074355615 97.3620656667 259.986794292 97.409589 259.899380197 C 97.4571123333 259.811966103 97.5046356667 259.724700123 97.552159 259.637584095 C 97.5996823333 259.550468068 97.6472056667 259.463502895 97.694729 259.376690391 C 97.7422523333 259.289877887 97.7897756667 259.203218969 97.837299 259.116715426 C 97.8848223333 259.030211882 97.9323456667 258.943864646 97.979869 258.85767548 C 98.0273923333 258.771486314 98.0749156667 258.685456169 98.122439 258.599586779 C 98.1699623333 258.513717389 98.2174856667 258.428009721 98.265009 258.342465485 C 98.3125323333 258.256921249 98.3600556667 258.171541428 98.407579 258.086327703 C 98.4551023333 258.001113979 98.5026256667 257.916067351 98.550149 257.831189475 C 98.5976723333 257.746311599 98.6451956667 257.66160349 98.692719 257.577066779 C 98.7402423333 257.492530067 98.7877656667 257.408165784 98.835289 257.323975531 C 98.8828123333 257.239785278 98.9303356667 257.155770103 98.977859 257.071931582 C 99.0253823333 256.988093061 99.0729056667 256.904432257 99.120429 256.820950719 C 99.1679523333 256.73746918 99.2154756667 256.654167986 99.262999 256.571048658 C 99.3105223333 256.487929331 99.3580456667 256.404992964 99.405569 256.322241053 C 99.4530923333 256.239489142 99.5006156667 256.156922797 99.548139 256.074543485 C 99.5956623333 255.992164174 99.6431856667 255.909973021 99.690709 255.827971469 C 99.7382323333 255.745969916 99.7857556667 255.664159104 99.833279 255.582540445 C 99.8808023333 255.500921787 99.9283256667 255.419496439 99.975849 255.338265787 C 100.023372333 255.257035136 100.070895667 255.176000351 100.118419 255.095162793 C 100.165942333 255.014325235 100.213465667 254.93368609 100.260989 254.853246688 C 100.308512333 254.772807287 100.356035667 254.692568831 100.403559 254.612532624 C 100.451082333 254.532496417 100.498605667 254.452663676 100.546129 254.373035676 C 100.593652333 254.293407676 100.641175667 254.213985649 100.688699 254.134770844 C 100.736222333 254.055556038 100.783745667 253.9765497 100.831269 253.89775305 C 100.878792333 253.8189564 100.926315667 253.740370699 100.973839 253.661997139 C 101.021362333 253.58362358 101.068885667 253.505463438 101.116409 253.427517877 C 101.163932333 253.349572316 101.211455667 253.271842628 101.258979 253.194329948 C 101.306502333 253.116817268 101.354025667 253.039522902 101.401549 252.962447957 C 101.449072333 252.885373012 101.496595667 252.808518809 101.544119 252.731886427 C 101.591642333 252.655254045 101.639165667 252.578844818 101.686689 252.502659798 C 101.734212333 252.426474777 101.781735667 252.350515313 101.829259 252.274782426 C 101.876782333 252.199049539 101.924305667 252.123544593 101.971829 252.048268583 C 102.019352333 251.972992572 102.066875667 251.897946875 102.114399 251.823132456 C 102.161922333 251.748318036 102.209445667 251.673736287 102.256969 251.599388144 C 102.304492333 251.525040002 102.352015667 251.450926871 102.399539 251.377049662 C 102.447062333 251.303172452 102.494585667 251.229532583 102.542109 251.156130934 C 102.589632333 251.082729284 102.637155667 251.009567288 102.684679 250.936645795 C 102.732202333 250.863724303 102.779725667 250.791044761 102.827249 250.718607993 C 102.874772333 250.646171225 102.922295667 250.573978691 102.969819 250.502031183 C 103.017342333 250.430083676 103.064865667 250.35838267 103.112389 250.286928929 C 103.159912333 250.215475189 103.207435667 250.144270202 103.254959 250.073314704 C 103.302482333 250.002359205 103.350005667 249.931654697 103.397529 249.861201885 C 103.445052333 249.790749072 103.492575667 249.72054947 103.540099 249.650603757 C 103.587622333 249.580658043 103.635145667 249.510967744 103.682669 249.441533509 C 103.730192333 249.372099275 103.777715667 249.302922644 103.825239 249.234004237 C 103.872762333 249.16508583 103.920285667 249.0964272 103.967809 249.028028938 C 104.015332333 248.959630675 104.062855667 248.891494345 104.110379 248.82362051 C 104.157902333 248.755746675 104.205425667 248.688136914 104.252949 248.620791758 C 104.300472333 248.553446602 104.347995667 248.486367643 104.395519 248.419555383 C 104.443042333 248.352743124 104.490565667 248.286199169 104.538089 248.21992399 C 104.585612333 248.153648812 104.633135667 248.087644027 104.680659 248.021910081 C 104.728182333 247.956176134 104.775705667 247.890714655 104.823229 247.825526057 C 104.870752333 247.760337459 104.918275667 247.695423385 104.965799 247.630784218 C 105.013322333 247.566145052 105.060845667 247.501782448 105.108369 247.437696762 C 105.155892333 247.373611075 105.203415667 247.309803973 105.250939 247.24627578 C 105.298462333 247.182747587 105.345985667 247.119499982 105.393509 247.056533261 C 105.441032333 246.99356654 105.488555667 246.930882394 105.536079 246.86848109 C 105.583602333 246.806079785 105.631125667 246.743963023 105.678649 246.682131043 C 105.726172333 246.620299062 105.773695667 246.558753576 105.821219 246.497494791 C 105.868742333 246.436236007 105.916265667 246.375265651 105.963789 246.3145839 C 106.011312333 246.253902149 106.058835667 246.19351074 106.106359 246.133409823 C 106.153882333 246.073308906 106.201405667 246.013500228 106.248929 245.953983908 C 106.296452333 245.894467589 106.343975667 245.835245387 106.391499 245.776317393 C 106.439022333 245.717389399 106.486545667 245.658757383 106.534069 245.600421404 C 106.581592333 245.542085426 106.629115667 245.484047268 106.676639 245.426306959 C 106.724162333 245.36856665 106.771685667 245.311125984 106.819209 245.253984961 C 106.866732333 245.196843938 106.914255667 245.140004362 106.961779 245.083466203 C 107.009302333 245.026928045 107.056825667 244.970693118 107.104349 244.914761365 C 107.151872333 244.858829612 107.199395667 244.803202857 107.246919 244.747881013 C 107.294442333 244.692559168 107.341965667 244.637544069 107.389489 244.582835598 C 107.437012333 244.528127127 107.484535667 244.473727129 107.532059 244.419635457 C 107.579582333 244.365543786 107.627105667 244.311762296 107.674629 244.258290812 C 107.722152333 244.204819327 107.769675667 244.151659714 107.817199 244.098811767 C 107.864722333 244.045963819 107.912245667 243.993429412 107.959769 243.94120831 C 108.007292333 243.888987208 108.054815667 243.837081297 108.102339 243.785490312 C 108.149862333 243.733899327 108.197385667 243.682625163 108.244909 243.631667526 C 108.292432333 243.580709889 108.339955667 243.530070684 108.387479 243.479749586 C 108.435002333 243.429428488 108.482525667 243.379427413 108.530049 243.329746006 C 108.577572333 243.280064599 108.625095667 243.230704785 108.672619 243.181666181 C 108.720142333 243.132627577 108.767665667 243.083912115 108.815189 243.035519385 C 108.862712333 242.987126654 108.910235667 242.939058597 108.957759 242.891314771 C 109.005282333 242.843570945 109.052805667 242.796153302 109.100329 242.749061371 C 109.147852333 242.701969439 109.195375667 242.65520518 109.242899 242.608768093 C 109.290422333 242.562331006 109.337945667 242.51622306 109.385469 242.470443726 C 109.432992333 242.424664391 109.480515667 242.379215646 109.528039 242.334096931 C 109.575562333 242.288978216 109.623085667 242.244191518 109.670609 242.199736248 C 109.718132333 242.155280979 109.765655667 242.111159133 109.813179 242.067370093 C 109.860702333 242.023581053 109.908225667 241.980126822 109.955749 241.937006755 C 110.003272333 241.893886687 110.050795667 241.851102793 110.098319 241.808654398 C 110.145842333 241.766206003 110.193365667 241.724095126 110.240889 241.682321062 C 110.288412333 241.640546998 110.335935667 241.599111775 110.383459 241.558014659 C 110.430982333 241.516917543 110.478505667 241.476160568 110.526029 241.435742974 C 110.573552333 241.395325379 110.621075667 241.355249206 110.668599 241.315513664 C 110.716122333 241.275778123 110.763645667 241.236385261 110.811169 241.197334261 C 110.858692333 241.158283261 110.906215667 241.119576178 110.953739 241.081212165 C 111.001262333 241.042848152 111.048785667 241.004829272 111.096309 240.967154649 C 111.143832333 240.929480025 111.191355667 240.89215173 111.238879 240.855168856 C 111.286402333 240.818185982 111.333925667 240.781550609 111.381449 240.745261801 C 111.428972333 240.708972993 111.476495667 240.673032835 111.524019 240.637440366 C 111.571542333 240.601847896 111.619065667 240.566605206 111.666589 240.531711304 C 111.714112333 240.496817402 111.761635667 240.462274387 111.809159 240.428081238 C 111.856682333 240.393888089 111.904205667 240.360046912 111.951729 240.326556657 C 111.999252333 240.293066403 112.046775667 240.259929183 112.094299 240.22714392 C 112.141822333 240.194358658 112.189345667 240.161927471 112.236869 240.129849254 C 112.284392333 240.097771037 112.331915667 240.066047914 112.379439 240.034678751 C 112.426962333 240.003309588 112.474485667 239.972296516 112.522009 239.941638372 C 112.569532333 239.910980228 112.617055667 239.880679149 112.664579 239.850733945 C 112.712102333 239.82078874 112.759625667 239.791201552 112.807149 239.761971162 C 112.854672333 239.732740772 112.902195667 239.703869328 112.949719 239.675355583 C 112.997242333 239.646841839 113.044765667 239.618687946 113.092289 239.590892633 C 113.139812333 239.563097319 113.187335667 239.535662743 113.234859 239.508587601 C 113.282382333 239.48151246 113.329905667 239.454798916 113.377429 239.428445642 C 113.424952333 239.402092369 113.472475667 239.376101532 113.519999 239.350471776 C 113.567522333 239.324842021 113.615045667 239.299575519 113.662569 239.274670886 C 113.710092333 239.249766254 113.757615667 239.225225669 113.805139 239.201047719 C 113.852662333 239.17686977 113.900185667 239.153056639 113.947709 239.129606887 C 113.995232333 239.106157135 114.042755667 239.083072949 114.090279 239.060352863 C 114.137802333 239.037632777 114.185325667 239.015278982 114.232849 238.993289985 C 114.280372333 238.971300989 114.327895667 238.949678985 114.375419 238.928422454 C 114.422942333 238.907165923 114.470465667 238.886277065 114.517989 238.865754331 C 114.565512333 238.845231598 114.613035667 238.825077193 114.660559 238.805289542 C 114.708082333 238.785501892 114.755605667 238.766083203 114.803129 238.747031874 C 114.850652333 238.727980545 114.898175667 238.709298788 114.945699 238.690984975 C 114.993222333 238.672671162 115.040745667 238.654727506 115.088269 238.637152355 C 115.135792333 238.619577204 115.183315667 238.602372775 115.230839 238.585537387 C 115.278362333 238.568701999 115.325885667 238.552237873 115.373409 238.536143302 C 115.420932333 238.520048731 115.468455667 238.504325939 115.515979 238.488973194 C 115.563502333 238.473620449 115.611025667 238.458639976 115.658549 238.444030018 C 115.706072333 238.429420059 115.753595667 238.415182844 115.801119 238.401316588 C 115.848642333 238.387450331 115.896165667 238.373957265 115.943689 238.360835579 C 115.991212333 238.347713893 116.038735667 238.334965821 116.086259 238.322589527 C 116.133782333 238.310213233 116.181305667 238.298210954 116.228829 238.286580827 C 116.276352333 238.2749507 116.323875667 238.263694965 116.371399 238.252811734 C 116.418922333 238.241928503 116.466445667 238.231420017 116.513969 238.221284363 C 116.561492333 238.21114871 116.609015667 238.201388131 116.656539 238.192000689 C 116.704062333 238.182613248 116.751585667 238.173601188 116.799109 238.164962546 C 116.846632333 238.156323905 116.894155667 238.148060928 116.941679 238.140171627 C 116.989202333 238.132282327 117.036725667 238.124768951 117.084249 238.117629485 C 117.131772333 238.11049002 117.179295667 238.103726715 117.226819 238.097337532 C 117.274342333 238.090948348 117.321865667 238.084935538 117.369389 238.079297038 C 117.416912333 238.073658537 117.464435667 238.068396598 117.511959 238.063509133 C 117.559482333 238.058621668 117.607005667 238.05411093 117.654529 238.049974806 C 117.702052333 238.045838683 117.749575667 238.042079428 117.797099 238.038694906 C 117.844622333 238.035310383 117.892145667 238.032302847 117.939669 238.029670137 C 117.987192333 238.027037427 118.034715667 238.024781799 118.082239 238.022901066 C 118.129762333 238.021020334 118.177285667 238.019516754 118.224809 238.018388117 C 118.272332333 238.01725948 118.319855667 238.016508042 118.367379 238.016131571 C 118.414902333 238.015755101 118.462425667 238.015755853 118.509949 238.016131571 C 118.557472333 238.01650729 118.604995667 238.017260232 118.652519 238.018388117 C 118.700042333 238.019516002 118.747565667 238.021021086 118.795089 238.022901066 C 118.842612333 238.024781047 118.890135667 238.027038179 118.937659 238.029670137 C 118.985182333 238.032302095 119.032705667 238.035311135 119.080229 238.038694906 C 119.127752333 238.042078677 119.175275667 238.045839434 119.222799 238.049974806 C 119.270322333 238.054110178 119.317845667 238.058622419 119.365369 238.063509133 C 119.412892333 238.068395847 119.460415667 238.073659288 119.507939 238.079297038 C 119.555462333 238.084934788 119.602985667 238.090949099 119.650509 238.097337532 C 119.698032333 238.103725964 119.745555667 238.11049077 119.793079 238.117629485 C 119.840602333 238.124768201 119.888125667 238.132283076 119.935649 238.140171627 C 119.983172333 238.148060178 120.030695667 238.156324654 120.078219 238.164962546 C 120.125742333 238.173600439 120.173265667 238.182613996 120.220789 238.192000689 C 120.268312333 238.201387383 120.315835667 238.211149457 120.363359 238.221284363 C 120.410882333 238.231419269 120.458405667 238.24192925 120.505929 238.252811734 C 120.553452333 238.263694218 120.600975667 238.274951447 120.648499 238.286580827 C 120.696022333 238.298210207 120.743545667 238.310213979 120.791069 238.322589527 C 120.838592333 238.334965075 120.886115667 238.347714638 120.933639 238.360835579 C 120.981162333 238.37395652 121.028685667 238.387451075 121.076209 238.401316588 C 121.123732333 238.4151821 121.171255667 238.429420802 121.218779 238.444030018 C 121.266302333 238.458639233 121.313825667 238.473621191 121.361349 238.488973194 C 121.408872333 238.504325197 121.456395667 238.520049472 121.503919 238.536143302 C 121.551442333 238.552237131 121.598965667 238.568702739 121.646489 238.585537387 C 121.694012333 238.602372035 121.741535667 238.619577943 121.789059 238.637152355 C 121.836582333 238.654726767 121.884105667 238.6726719 121.931629 238.690984975 C 121.979152333 238.70929805 122.026675667 238.727981282 122.074199 238.747031874 C 122.121722333 238.766082466 122.169245667 238.785502627 122.216769 238.805289542 C 122.264292333 238.825076457 122.311815667 238.845232332 122.359339 238.865754331 C 122.406862333 238.88627633 122.454385667 238.907166656 122.501909 238.928422454 C 122.549432333 238.949678252 122.596955667 238.97130172 122.644479 238.993289985 C 122.692002333 239.015278251 122.739525667 239.037633508 122.787049 239.060352863 C 122.834572333 239.083072219 122.882095667 239.106157864 122.929619 239.129606887 C 122.977142333 239.15305591 123.024665667 239.176870498 123.072189 239.201047719 C 123.119712333 239.225224941 123.167235667 239.24976698 123.214759 239.274670886 C 123.262282333 239.299574793 123.309805667 239.324842745 123.357329 239.350471776 C 123.404852333 239.376100808 123.452375667 239.402093091 123.499899 239.428445642 C 123.547422333 239.454798194 123.594945667 239.481513181 123.642469 239.508587601 C 123.689992333 239.535662022 123.737515667 239.563098039 123.785039 239.590892633 C 123.832562333 239.618687227 123.880085667 239.646842556 123.927609 239.675355583 C 123.975132333 239.70386861 124.022655667 239.732741488 124.070179 239.761971162 C 124.117702333 239.791200836 124.165225667 239.820789454 124.212749 239.850733945 C 124.260272333 239.880678435 124.307795667 239.91098094 124.355319 239.941638372 C 124.402842333 239.972295804 124.450365667 240.003310298 124.497889 240.034678751 C 124.545412333 240.066047204 124.592935667 240.097771745 124.640459 240.129849254 C 124.687982333 240.161926763 124.735505667 240.194359364 124.783029 240.22714392 C 124.830552333 240.259928477 124.878075667 240.293067107 124.925599 240.326556657 C 124.973122333 240.360046208 125.020645667 240.393888791 125.068169 240.428081238 C 125.115692333 240.462273685 125.163215667 240.496818102 125.210739 240.531711304 C 125.258262333 240.566604507 125.305785667 240.601848594 125.353309 240.637440366 C 125.400832333 240.673032138 125.448355667 240.708973688 125.495879 240.745261801 C 125.543402333 240.781549914 125.590925667 240.818186675 125.638449 240.855168856 C 125.685972333 240.892151037 125.733495667 240.929480716 125.781019 240.967154649 C 125.828542333 241.004828582 125.876065667 241.04284884 125.923589 241.081212165 C 125.971112333 241.11957549 126.018635667 241.158283946 126.066159 241.197334261 C 126.113682333 241.236384576 126.161205667 241.275778806 126.208729 241.315513664 C 126.256252333 241.355248523 126.303775667 241.39532606 126.351299 241.435742974 C 126.398822333 241.476159888 126.446345667 241.516918221 126.493869 241.558014659 C 126.541392333 241.599111097 126.588915667 241.640547674 126.636439 241.682321062 C 126.683962333 241.72409445 126.731485667 241.766206676 126.779009 241.808654398 C 126.826532333 241.85110212 126.874055667 241.893887357 126.921579 241.937006755 C 126.969102333 241.980126152 127.016625667 242.023581721 127.064149 242.067370093 C 127.111672333 242.111158465 127.159195667 242.155281644 127.206719 242.199736248 C 127.254242333 242.244190853 127.301765667 242.288978878 127.349289 242.334096931 C 127.396812333 242.379214984 127.444335667 242.42466505 127.491859 242.470443726 C 127.539382333 242.516222401 127.586905667 242.562331663 127.634429 242.608768093 C 127.681952333 242.655204524 127.729475667 242.701970093 127.776999 242.749061371 C 127.824522333 242.796152648 127.872045667 242.843571595 127.919569 242.891314771 C 127.967092333 242.939057946 128.014615667 242.987127302 128.062139 243.035519385 C 128.109662333 243.083911468 128.157185667 243.132628221 128.204709 243.181666181 C 128.252232333 243.230704141 128.299755667 243.280065241 128.347279 243.329746006 C 128.394802333 243.379426772 128.442325667 243.429429127 128.489849 243.479749586 C 128.537372333 243.530070046 128.584895667 243.580710524 128.632419 243.631667526 C 128.679942333 243.682624529 128.727465667 243.733899959 128.774989 243.785490312 C 128.822512333 243.837080665 128.870035667 243.888987837 128.917559 243.94120831 C 128.965082333 243.993428783 129.012605667 244.045964444 129.060129 244.098811767 C 129.107652333 244.151659089 129.155175667 244.204819949 129.202699 244.258290812 C 129.250222333 244.311761674 129.297745667 244.365544404 129.345269 244.419635457 C 129.392792333 244.47372651 129.440315667 244.528127742 129.487839 244.582835598 C 129.535362333 244.637543454 129.582885667 244.69255978 129.630409 244.747881013 C 129.677932333 244.803202246 129.725455667 244.85883022 129.772979 244.914761365 C 129.820502333 244.97069251 129.868025667 245.026928649 129.915549 245.083466203 C 129.963072333 245.140003757 130.010595667 245.196844539 130.058119 245.253984961 C 130.105642333 245.311125383 130.153165667 245.368567248 130.200689 245.426306959 C 130.248212333 245.48404667 130.295735667 245.54208602 130.343259 245.600421404 C 130.390782333 245.658756789 130.438305667 245.717389989 130.485829 245.776317393 C 130.533352333 245.835244797 130.580875667 245.894468175 130.628399 245.953983908 C 130.675922333 246.013499641 130.723445667 246.073309488 130.770969 246.133409823 C 130.818492333 246.193510157 130.866015667 246.253902728 130.913539 246.3145839 C 130.961062333 246.375265072 131.008585667 246.436236582 131.056109 246.497494791 C 131.103632333 246.558753 131.151155667 246.620299633 131.198679 246.682131043 C 131.246202333 246.743962452 131.293725667 246.806080352 131.341249 246.86848109 C 131.388772333 246.930881827 131.436295667 246.993567104 131.483819 247.056533261 C 131.531342333 247.119499418 131.578865667 247.182748146 131.626389 247.24627578 C 131.673912333 247.309803413 131.721435667 247.373611631 131.768959 247.437696762 C 131.816482333 247.501781893 131.864005667 247.566145604 131.911529 247.630784218 C 131.959052333 247.695422833 132.006575667 247.760338007 132.054099 247.825526057 C 132.101622333 247.890714107 132.149145667 247.956176677 132.196669 248.021910081 C 132.244192333 248.087643484 132.291715667 248.153649351 132.339239 248.21992399 C 132.386762333 248.286198629 132.434285667 248.352743659 132.481809 248.419555383 C 132.529332333 248.486367108 132.576855667 248.553447133 132.624379 248.620791758 C 132.671902333 248.688136383 132.719425667 248.755747202 132.766949 248.82362051 C 132.814472333 248.891493819 132.861995667 248.959631197 132.909519 249.028028938 C 132.957042333 249.096426678 133.004565667 249.165086348 133.052089 249.234004237 C 133.099612333 249.302922126 133.147135667 249.372099788 133.194659 249.441533509 C 133.242182333 249.510967231 133.289705667 249.580658552 133.337229 249.650603757 C 133.384752333 249.720548961 133.432275667 249.790749577 133.479799 249.861201885 C 133.527322333 249.931654192 133.574845667 250.002359706 133.622369 250.073314704 C 133.669892333 250.144269702 133.717415667 250.215475685 133.764939 250.286928929 C 133.812462333 250.358382174 133.859985667 250.430084167 133.907509 250.502031183 C 133.955032333 250.573978199 134.002555667 250.646171712 134.050079 250.718607993 C 134.097602333 250.791044274 134.145125667 250.863724785 134.192649 250.936645795 C 134.240172333 251.009566805 134.287695667 251.082729762 134.335219 251.156130934 C 134.382742333 251.229532105 134.430265667 251.303172926 134.477789 251.377049662 C 134.525312333 251.450926398 134.572835667 251.52504047 134.620359 251.599388144 C 134.667882333 251.673735818 134.715405667 251.7483185 134.762929 251.823132456 C 134.810452333 251.897946411 134.857975667 251.972993032 134.905499 252.048268583 C 134.953022333 252.123544134 135.000545667 252.199049993 135.048069 252.274782426 C 135.095592333 252.350514858 135.143115667 252.426475227 135.190639 252.502659798 C 135.238162333 252.578844368 135.285685667 252.65525449 135.333209 252.731886427 C 135.380732333 252.808518364 135.428255667 252.885373452 135.475779 252.962447957 C 135.523302333 253.039522462 135.570825667 253.116817703 135.618349 253.194329948 C 135.665872333 253.271842193 135.713395667 253.349572747 135.760919 253.427517877 C 135.808442333 253.505463007 135.855965667 253.583624005 135.903489 253.661997139 C 135.951012333 253.740370274 135.998535667 253.818956821 136.046059 253.89775305 C 136.093582333 253.97654928 136.141105667 254.055556454 136.188629 254.134770844 C 136.236152333 254.213985234 136.283675667 254.293408087 136.331199 254.373035676 C 136.378722333 254.452663265 136.426245667 254.532496823 136.473769 254.612532624 C 136.521292333 254.692568425 136.568815667 254.772807687 136.616339 254.853246688 C 136.663862333 254.933685689 136.711385667 255.014325631 136.758909 255.095162793 C 136.806432333 255.175999956 136.853955667 255.257035526 136.901479 255.338265787 C 136.949002333 255.419496049 136.996525667 255.500922173 137.044049 255.582540445 C 137.091572333 255.664158718 137.139095667 255.745970296 137.186619 255.827971469 C 137.234142333 255.909972641 137.281665667 255.992164549 137.329189 256.074543485 C 137.376712333 256.156922422 137.424235667 256.239489512 137.471759 256.322241053 C 137.519282333 256.404992594 137.566805667 256.487929695 137.614329 256.571048658 C 137.661852333 256.654167621 137.709375667 256.73746954 137.756899 256.820950719 C 137.804422333 256.904431897 137.851945667 256.988093416 137.899469 257.071931582 C 137.946992333 257.155769749 137.994515667 257.239785627 138.042039 257.323975531 C 138.089562333 257.408165435 138.137085667 257.492530411 138.184609 257.577066779 C 138.232132333 257.661603147 138.279655667 257.746311937 138.327179 257.831189475 C 138.374702333 257.916067012 138.422225667 258.001114312 138.469749 258.086327703 C 138.517272333 258.171541095 138.564795667 258.256921577 138.612319 258.342465485 C 138.659842333 258.428009394 138.707365667 258.513717711 138.754889 258.599586779 C 138.802412333 258.685455846 138.849935667 258.771486631 138.897459 258.85767548 C 138.944982333 258.943864329 138.992505667 259.030212193 139.040029 259.116715426 C 139.087552333 259.203218658 139.135075667 259.289878193 139.182599 259.376690391 C 139.230122333 259.463502589 139.277645667 259.550468368 139.325169 259.637584095 C 139.372692333 259.724699822 139.420215667 259.811966398 139.467739 259.899380197 C 139.515262333 259.986793997 139.562785667 260.074355905 139.610309 260.162062302 C 139.657832333 260.249768699 139.705355667 260.337620455 139.752879 260.425613957 C 139.800402333 260.513607459 139.847925667 260.60174356 139.895449 260.690018656 C 139.942972333 260.778293752 139.990495667 260.866708679 140.038019 260.95525984 C 140.085542333 261.043811002 140.133065667 261.132499217 140.180589 261.221320897 C 140.228112333 261.310142578 140.275635667 261.399098527 140.323159 261.488185163 C 140.370682333 261.5772718 140.418205667 261.666489911 140.465729 261.755835925 C 140.513252333 261.845181939 140.560775667 261.934656625 140.608299 262.02425642 C 140.655822333 262.113856215 140.703345667 262.203581872 140.750869 262.293429836 C 140.798392333 262.383277801 140.845915667 262.473248809 140.893439 262.563339316 C 140.940962333 262.653429823 140.988485667 262.743640548 141.036009 262.833967955 C 141.083532333 262.924295362 141.131055667 263.014740153 141.178579 263.105298803 C 141.226102333 263.195857453 141.273625667 263.286530646 141.321149 263.377314867 C 141.368672333 263.468099089 141.416195667 263.558995005 141.463719 263.649999112 C 141.511242333 263.741003218 141.558765667 263.832116166 141.606289 263.923334458 C 141.653812333 264.014552751 141.701335667 264.105877022 141.748859 264.197303787 C 141.796382333 264.288730553 141.843905667 264.380260428 141.891429 264.471889941 C 141.938952333 264.563519453 141.986475667 264.655249201 142.033999 264.747075721 C 142.081522333 264.838902241 142.129045667 264.930826116 142.176569 265.022843893 C 142.224092333 265.11486167 142.271615667 265.206973915 142.319139 265.299177186 C 142.366662333 265.391380457 142.414185667 265.483675303 142.461709 265.576058293 C 142.509232333 265.668441284 142.556755667 265.760912949 142.604279 265.853469873 C 142.651802333 265.946026797 142.699325667 266.038669492 142.746849 266.131394552 C 142.794372333 266.224119613 142.841895667 266.316927534 142.889419 266.409814924 C 142.936942333 266.502702313 142.984465667 266.595669649 143.031989 266.688713551 C 143.079512333 266.781757452 143.127035667 266.874878379 143.174559 266.968072965 C 143.222082333 267.061267551 143.269605667 267.154536238 143.317129 267.247875671 C 143.364652333 267.341215104 143.412175667 267.434625709 143.459699 267.528104144 C 143.507222333 267.621582579 143.554745667 267.715129252 143.602269 267.808740834 C 143.649792333 267.902352417 143.697315667 267.996029299 143.744839 268.089768165 C 143.792362333 268.183507032 143.839885667 268.277308256 143.887409 268.371168536 C 143.934932333 268.465028816 143.982455667 268.558948508 144.029979 268.652924323 C 144.077502333 268.746900138 144.125025667 268.840932415 144.172549 268.935017879 C 144.220072333 269.029103344 144.267595667 269.123242317 144.315119 269.217431538 C 144.362642333 269.311620759 144.410165667 269.405860532 144.457689 269.500147611 C 144.505212333 269.59443469 144.552735667 269.688769361 144.600259 269.783148393 C 144.647782333 269.877527424 144.695305667 269.971951085 144.742829 270.066416158 C 144.790352333 270.160881231 144.837875667 270.255387967 144.885399 270.349933166 C 144.932922333 270.444478365 144.980445667 270.539062258 145.027969 270.633681661 C 145.075492333 270.728301064 145.123015667 270.82295619 145.170539 270.917643871 C 145.218062333 271.012331552 145.265585667 271.107051983 145.313109 271.201802011 C 145.360632333 271.29655204 145.408155667 271.391331844 145.455679 271.486138286 C 145.503202333 271.580944728 145.550725667 271.675777968 145.598249 271.770634886 C 145.645772333 271.865491804 145.693295667 271.960372542 145.740819 272.055273995 C 145.788342333 272.150175448 145.835865667 272.245097741 145.883389 272.340037785 C 145.930912333 272.434977829 145.978435667 272.529935732 146.025959 272.624908421 C 146.073482333 272.71988111 146.121005667 272.814868676 146.168529 272.909868062 C 146.216052333 273.004867449 146.263575667 273.099878728 146.311099 273.194898862 C 146.358622333 273.289918996 146.406145667 273.384948038 146.453669 273.479982968 C 146.501192333 273.575017898 146.548715667 273.670058752 146.596239 273.765102526 C 146.643762333 273.860146301 146.691285667 273.955193014 146.738809 274.05023968 C 146.786332333 274.145286346 146.833855667 274.240332965 146.881379 274.33537657 C 146.928902333 274.430420175 146.976425667 274.525460747 147.023949 274.620495339 C 147.071472333 274.71552993 147.118995667 274.810558504 147.166519 274.90557813 C 147.214042333 275.000597755 147.261565667 275.095608379 147.309089 275.190607088 C 147.356612333 275.285605797 147.404135667 275.380592519 147.451659 275.475564362 C 147.499182333 275.570536204 147.546705667 275.665493077 147.594229 275.760432105 C 147.641752333 275.855371133 147.689275667 275.950292209 147.736799 276.045192476 C 147.784322333 276.140092744 147.831845667 276.234972078 147.879369 276.329827641 C 147.926892333 276.424683204 147.974415667 276.519514854 148.021939 276.614319772 C 148.069462333 276.709124691 148.116985667 276.803902717 148.164509 276.898651053 C 148.212032333 276.993399389 148.259555667 277.088117856 148.307079 277.182803675 C 148.354602333 277.277489494 148.402125667 277.37214247 148.449649 277.466759842 C 148.497172333 277.561377215 148.544695667 277.65595877 148.592219 277.75050177 C 148.639742333 277.84504477 148.687265667 277.939548982 148.734789 278.034011689 C 148.782312333 278.128474395 148.829835667 278.222895345 148.877359 278.317271841 C 148.924882333 278.411648337 148.972405667 278.505980112 149.019929 278.600264487 C 149.067452333 278.694548863 149.114975667 278.788785554 149.162499 278.882971903 C 149.210022333 278.977158253 149.257545667 279.071293958 149.305069 279.165376383 C 149.352592333 279.259458808 149.400115667 279.353487632 149.447639 279.44746024 C 149.495162333 279.541432848 149.542685667 279.635348902 149.590209 279.729205807 C 149.637732333 279.823062713 149.685255667 279.916860114 149.732779 280.010595439 C 149.780302333 280.104330763 149.827825667 280.198003638 149.875349 280.291611511 C 149.922872333 280.385219385 149.970395667 280.478761866 150.017919 280.572236425 C 150.065442333 280.665710984 150.112965667 280.759117213 150.160489 280.852452604 C 150.208012333 280.945787995 150.255535667 281.039052122 150.303059 281.132242499 C 150.350582333 281.225432877 150.398105667 281.31854906 150.445629 281.411588587 C 150.493152333 281.504628114 150.540675667 281.597590523 150.588199 281.690473372 C 150.635722333 281.783356222 150.683245667 281.876159033 150.730769 281.968879388 C 150.778292333 282.061599743 150.825815667 282.154237145 150.873339 282.246789198 C 150.920862333 282.339341251 150.968385667 282.431807441 151.015909 282.524185396 C 151.063432333 282.616563351 151.110955667 282.708852539 151.158479 282.80105061 C 151.206002333 282.893248681 151.253525667 282.985355087 151.301049 283.0773675 C 151.348572333 283.169379913 151.396095667 283.261297767 151.443619 283.353118759 C 151.491142333 283.444939751 151.538665667 283.536663298 151.586189 283.628287118 C 151.633712333 283.719910939 151.681235667 283.811434433 151.728759 283.902855343 C 151.776282333 283.994276254 151.823805667 284.085593963 151.871329 284.176806238 C 151.918852333 284.268018513 151.966375667 284.359124718 152.013899 284.450122645 C 152.061422333 284.541120571 152.108945667 284.632009567 152.156469 284.722787446 C 152.203992333 284.813565325 152.251515667 284.904231418 152.299039 284.994783565 C 152.346562333 285.085335711 152.394085667 285.175773224 152.441609 285.266093966 C 152.489132333 285.356414708 152.536655667 285.446617976 152.584179 285.536701657 C 152.631702333 285.626785338 152.679225667 285.716748713 152.726749 285.806589691 C 152.774272333 285.89643067 152.821795667 285.986148515 152.869319 286.075741164 C 152.916842333 286.165333813 152.964365667 286.254800511 153.011889 286.34413922 C 153.059412333 286.433477928 153.106935667 286.522687875 153.154459 286.611767048 C 153.201982333 286.70084622 153.249505667 286.789793829 153.297029 286.878607887 C 153.344552333 286.967421944 153.392075667 287.056101645 153.439599 287.144645025 C 153.487122333 287.233188405 153.534645667 287.321594643 153.582169 287.4098618 C 153.629692333 287.498128957 153.677215667 287.586256196 153.724739 287.674241602 C 153.772262333 287.762227008 153.819785667 287.850069727 153.867309 287.937767872 C 153.914832333 288.025466017 153.962355667 288.113018716 154.009879 288.200424106 C 154.057402333 288.287829497 154.104925667 288.375086692 154.152449 288.462193855 C 154.199972333 288.549301017 154.247495667 288.636257243 154.295019 288.723060722 C 154.342542333 288.809864201 154.390065667 288.896514012 154.437589 288.983008371 C 154.485112333 289.069502729 154.532635667 289.155840699 154.580159 289.242020521 C 154.627682333 289.328200342 154.675205667 289.414221063 154.722729 289.500080949 C 154.770252333 289.585940836 154.817775667 289.67163892 154.865299 289.757173494 C 154.912822333 289.842708069 154.960345667 289.928078149 155.007869 290.013282054 C 155.055392333 290.09848596 155.102915667 290.18352269 155.150439 290.26839059 C 155.197962333 290.353258489 155.245485667 290.437956543 155.293009 290.522483122 C 155.340532333 290.607009701 155.388055667 290.691363774 155.435579 290.775543739 C 155.483102333 290.859723703 155.530625667 290.943728512 155.578149 291.02755659 C 155.625672333 291.111384668 155.673195667 291.195034951 155.720719 291.278505892 C 155.768242333 291.361976834 155.815765667 291.445267353 155.863289 291.528375929 C 155.910812333 291.611484506 155.958335667 291.694410044 156.005859 291.777151051 C 156.053382333 291.859892058 156.100905667 291.942447422 156.148429 292.024815677 C 156.195952333 292.107183932 156.243475667 292.189363951 156.290999 292.271354296 C 156.338522333 292.35334464 156.386045667 292.435144168 156.433569 292.516751467 C 156.481092333 292.598358766 156.528615667 292.679772679 156.576139 292.760991822 C 156.623662333 292.842210964 156.671185667 292.923234164 156.718709 293.004060063 C 156.766232333 293.084885962 156.813755667 293.165513373 156.861279 293.245940967 C 156.908802333 293.326368561 156.956325667 293.406595134 157.003849 293.486619386 C 157.051372333 293.566643637 157.098895667 293.646464348 157.146419 293.726080245 C 157.193942333 293.805696141 157.241465667 293.885105991 157.288989 293.964308547 C 157.336512333 294.043511103 157.384035667 294.122505118 157.431559 294.201289372 C 157.479082333 294.280073627 157.526605667 294.358646859 157.574129 294.437007879 C 157.621652333 294.515368898 157.669175667 294.593516427 157.716699 294.671449303 C 157.764222333 294.749382179 157.811745667 294.82709911 157.859269 294.904598962 C 157.906792333 294.982098814 157.954315667 295.05938028 158.001839 295.136442254 C 158.049362333 295.213504228 158.096885667 295.290345389 158.144409 295.366964659 C 158.191932333 295.443583929 158.239455667 295.519979972 158.286979 295.596151739 C 158.334502333 295.672323505 158.382025667 295.748269646 158.429549 295.823989139 C 158.477072333 295.899708632 158.524595667 295.975200114 158.572119 296.050462592 C 158.619642333 296.125725069 158.667165667 296.200757164 158.714689 296.275557911 C 158.762212333 296.350358659 158.809735667 296.424926668 158.857259 296.499261001 C 158.904782333 296.573595335 158.952305667 296.647694587 158.999829 296.721557851 C 159.047352333 296.795421115 159.094875667 296.86904697 159.142399 296.942434537 C 159.189922333 297.015822105 159.237445667 297.088969952 159.284969 297.161877227 C 159.332492333 297.234784503 159.380015667 297.30744976 159.427539 297.379872178 C 159.475062333 297.452294595 159.522585667 297.524472711 159.570109 297.596405735 C 159.617632333 297.668338758 159.665155667 297.740025213 159.712679 297.811464337 C 159.760202333 297.882903462 159.807725667 297.954093766 159.855249 298.025034517 C 159.902772333 298.095975267 159.950295667 298.166664962 159.997819 298.237102896 C 160.045342333 298.307540831 160.092865667 298.377725489 160.140389 298.447656195 C 160.187912333 298.517586901 160.235435667 298.587262127 160.282959 298.656681226 C 160.330482333 298.726100324 160.378005667 298.795261754 160.425529 298.864164897 C 160.473052333 298.93306804 160.520575667 299.001711342 160.568099 299.070094214 C 160.615622333 299.138477087 160.663145667 299.206597962 160.710669 299.274456281 C 160.758192333 299.342314599 160.805715667 299.409908781 160.853239 299.477238296 C 160.900762333 299.544567811 160.948285667 299.611631067 160.995809 299.678427561 C 161.043332333 299.745224056 161.090855667 299.811752185 161.138379 299.878011476 C 161.185902333 299.944270766 161.233425667 300.010259602 161.280949 300.075977539 C 161.328472333 300.141695476 161.375995667 300.207140885 161.423519 300.272313353 C 161.471042333 300.33748582 161.518565667 300.402383704 161.566089 300.46700662 C 161.613612333 300.531629537 161.661135667 300.595975831 161.708659 300.660045149 C 161.756182333 300.724114466 161.803705667 300.787905141 161.851229 300.851416847 C 161.898752333 300.914928554 161.946275667 300.978159613 161.993799 301.041109731 C 162.041322333 301.104059848 162.088845667 301.166727333 162.136369 301.229111919 C 162.183892333 301.291496505 162.231415667 301.35359649 162.278939 301.415411637 C 162.326462333 301.477226784 162.373985667 301.53875538 162.421509 301.599997217 C 162.469032333 301.661239054 162.516555667 301.722192407 162.564079 301.782857099 C 162.611602333 301.84352179 162.659125667 301.903896083 162.706649 301.963979829 C 162.754172333 302.024063575 162.801695667 302.083855027 162.849219 302.143354065 C 162.896742333 302.202853103 162.944265667 302.262057968 162.991789 302.320968572 C 163.039312333 302.379879176 163.086835667 302.438493747 163.134359 302.496812226 C 163.181882333 302.555130706 163.229405667 302.613151312 163.276929 302.670874015 C 163.324452333 302.728596718 163.371975667 302.786019725 163.419499 302.843143036 C 163.467022333 302.900266347 163.514545667 302.957088159 163.562069 303.0136085 C 163.609592333 303.070128842 163.657115667 303.1263459 163.704639 303.182259732 C 163.752162333 303.238173565 163.799685667 303.293782347 163.847209 303.349086169 C 163.894732333 303.40438999 163.942255667 303.459387015 163.989779 303.514077362 C 164.037302333 303.568767709 164.084825667 303.623149531 164.132349 303.677222978 C 164.179872333 303.731296425 164.227395667 303.785059639 164.274919 303.838512799 C 164.322442333 303.891965959 164.369965667 303.945107199 164.417489 303.997936724 C 164.465012333 304.05076625 164.512535667 304.103282186 164.560059 304.155484768 C 164.607582333 304.207687351 164.655105667 304.259574694 164.702629 304.311147064 C 164.750152333 304.362719434 164.797675667 304.413974936 164.845199 304.464913863 C 164.892722333 304.515852791 164.940245667 304.566473239 164.987769 304.616775534 C 165.035292333 304.667077829 165.082815667 304.717060055 165.130339 304.766722567 C 165.177862333 304.816385078 165.225385667 304.865725951 165.272909 304.914745569 C 165.320432333 304.963765187 165.367955667 305.012461617 165.415479 305.060835271 C 165.463002333 305.109208925 165.510525667 305.157257862 165.558049 305.204982523 C 165.605572333 305.252707184 165.653095667 305.300105618 165.700619 305.347178297 C 165.748142333 305.394250976 165.795665667 305.440995939 165.843189 305.487413687 C 165.890712333 305.533831436 165.938235667 305.57992 165.985759 305.625679911 C 166.033282333 305.671439822 166.080805667 305.716869101 166.128329 305.761968308 C 166.175852333 305.807067516 166.223375667 305.851834665 166.270899 305.896270344 C 166.318422333 305.940706023 166.365945667 305.984808238 166.413469 306.028577606 C 166.460992333 306.072346975 166.508515667 306.115781493 166.556039 306.158881809 C 166.603562333 306.201982125 166.651085667 306.244746227 166.698609 306.287174792 C 166.746132333 306.329603356 166.793655667 306.371694363 166.841179 306.413448519 C 166.888702333 306.455202674 166.936225667 306.49661795 166.983749 306.537695082 C 167.031272333 306.578772213 167.078795667 306.619509165 167.126319 306.659906699 C 167.173842333 306.700304234 167.221365667 306.740360309 167.268889 306.780075717 C 167.316412333 306.819791125 167.363935667 306.859163816 167.411459 306.898194609 C 167.458982333 306.937225403 167.506505667 306.975912243 167.554029 307.014255978 C 167.601552333 307.052599713 167.649075667 307.090598279 167.696599 307.128252554 C 167.744122333 307.16590683 167.791645667 307.203214742 167.839169 307.240177199 C 167.886692333 307.277139656 167.934215667 307.313754578 167.981739 307.350022901 C 168.029262333 307.386291225 168.076785667 307.422210864 168.124309 307.457782783 C 168.171832333 307.493354701 168.219355667 307.528576807 168.266879 307.563450093 C 168.314402333 307.598323379 168.361925667 307.632845746 168.409449 307.667018216 C 168.456972333 307.701190685 168.504495667 307.735011151 168.552019 307.768480664 C 168.599542333 307.801950176 168.647065667 307.835066623 168.694589 307.867831082 C 168.742112333 307.900595541 168.789635667 307.933005895 168.837159 307.965063249 C 168.884682333 307.997120603 168.932205667 308.028822833 168.979729 308.060171074 C 169.027252333 308.091519315 169.074775667 308.122511437 169.122299 308.153148602 C 169.169822333 308.183785767 169.217345667 308.214065839 169.264869 308.243990009 C 169.312392333 308.273914179 169.359915667 308.303480304 169.407439 308.332689605 C 169.454962333 308.361898906 169.502485667 308.390749234 169.550009 308.419241836 C 169.597532333 308.447734438 169.645055667 308.475867161 169.692579 308.50364128 C 169.740102333 308.531415399 169.787625667 308.558828756 169.835149 308.585882652 C 169.882672333 308.612936549 169.930195667 308.639628822 169.977719 308.665960801 C 170.025242333 308.692292781 170.072765667 308.718262299 170.120289 308.743870712 C 170.167812333 308.769479126 170.215335667 308.794724262 170.262859 308.819607505 C 170.310382333 308.844490749 170.357905667 308.869009922 170.405429 308.893166437 C 170.452952333 308.917322952 170.500475667 308.941114627 170.547999 308.964542901 C 170.595522333 308.987971175 170.643045667 309.011033861 170.690569 309.033732426 C 170.738092333 309.056430991 170.785615667 309.078763244 170.833139 309.100730679 C 170.880662333 309.122698114 170.928185667 309.144298536 170.975709 309.165533465 C 171.023232333 309.186768394 171.070755667 309.207635631 171.118279 309.228136724 C 171.165802333 309.248637817 171.213325667 309.268770563 171.260849 309.288536536 C 171.308372333 309.308302509 171.355895667 309.327699502 171.403419 309.346729118 C 171.450942333 309.365758733 171.498465667 309.384418759 171.545989 309.402710825 C 171.593512333 309.42100289 171.641035667 309.438924781 171.688559 309.456478151 C 171.736082333 309.474031521 171.783605667 309.491214154 171.831129 309.508027729 C 171.878652333 309.524841305 171.926175667 309.541283603 171.973699 309.55735633 C 172.021222333 309.573429058 172.068745667 309.589129992 172.116269 309.604460865 C 172.163792333 309.619791739 172.211315667 309.634750325 172.258839 309.649338384 C 172.306362333 309.663926443 172.353885667 309.678141745 172.401409 309.691986076 C 172.448932333 309.705830407 172.496455667 309.719301534 172.543979 309.732401269 C 172.591502333 309.745501005 172.639025667 309.758227114 172.686549 309.770581434 C 172.734072333 309.782935754 172.781595667 309.794916047 172.829119 309.806524178 C 172.876642333 309.818132308 172.924165667 309.829366036 172.971689 309.84022725 C 173.019212333 309.851088464 173.066735667 309.861574922 173.114259 309.87168854 C 173.161782333 309.881802157 173.209305667 309.89154069 173.256829 309.900906077 C 173.304352333 309.910271464 173.351875667 309.919261461 173.399399 309.927878031 C 173.446922333 309.936494602 173.494445667 309.9447355 173.541969 309.952602714 C 173.589492333 309.960469928 173.637015667 309.967961211 173.684539 309.975078576 C 173.732062333 309.982195941 173.779585667 309.98893714 173.827109 309.99530421 C 173.874632333 310.001671281 173.922155667 310.007661972 173.969679 310.013278349 C 174.017202333 310.018894726 174.064725667 310.024134536 174.112249 310.028999868 C 174.159772333 310.0338652 174.207295667 310.0383538 174.254819 310.042467782 C 174.302342333 310.046581764 174.349865667 310.050318873 174.397389 310.053681247 C 174.444912333 310.057043621 174.492435667 310.060029005 174.539959 310.062639561 C 174.587482333 310.065250117 174.635005667 310.067483589 174.682529 310.069342163 C 174.730052333 310.071200737 174.777575667 310.072682157 174.825099 310.073788633 C 174.872622333 310.074895109 174.920145667 310.075624384 174.967669 310.075978693 C 175.015192333 310.076333001 175.062715667 310.076310086 175.110239 310.075912205 C 175.157762333 310.075514324 175.205285667 310.07473922 175.252809 310.073589175 C 175.300332333 310.072439129 175.347855667 310.070911884 175.395379 310.069009746 C 175.442902333 310.067107607 175.490425667 310.064828319 175.537949 310.062174206 C 175.585472333 310.059520094 175.632995667 310.056488903 175.680519 310.053082984 C 175.728042333 310.049677065 175.775565667 310.045894162 175.823089 310.041736648 C 175.870612333 310.037579135 175.918135667 310.033044757 175.965659 310.02813591 C 176.013182333 310.023227062 176.060705667 310.017941493 176.108229 310.01228162 C 176.155752333 310.006621747 176.203275667 310.000585317 176.250799 309.994174772 C 176.298322333 309.987764227 176.345845667 309.980977315 176.393369 309.9738165 C 176.440892333 309.966655685 176.488415667 309.959118716 176.535939 309.951208079 C 176.583462333 309.943297442 176.630985667 309.935010888 176.678509 309.926350925 C 176.726032333 309.917690962 176.773555667 309.908655342 176.821079 309.899246595 C 176.868602333 309.889837847 176.916125667 309.880053728 176.963649 309.869896786 C 177.011172333 309.859739844 177.058695667 309.849207836 177.106219 309.838303336 C 177.153742333 309.827398836 177.201265667 309.816119601 177.248789 309.804468225 C 177.296312333 309.792816849 177.343835667 309.780791092 177.391359 309.76839357 C 177.438882333 309.755996048 177.486405667 309.743224524 177.533929 309.730081633 C 177.581452333 309.716938741 177.628975667 309.703422248 177.676499 309.689534811 C 177.724022333 309.675647373 177.771545667 309.661386759 177.819069 309.646755645 C 177.866592333 309.632124531 177.914115667 309.617120687 177.961639 309.601746813 C 178.009162333 309.586372939 178.056685667 309.570626807 178.104209 309.554511135 C 178.151732333 309.538395464 178.199255667 309.521908029 178.246779 309.505051569 C 178.294302333 309.48819511 178.341825667 309.470967405 178.389349 309.453371213 C 178.436872333 309.435775021 178.484395667 309.417808125 178.531919 309.399473303 C 178.579442333 309.381138481 178.626965667 309.362433519 178.674489 309.343361215 C 178.722012333 309.324288911 178.769535667 309.304847055 178.817059 309.285038463 C 178.864582333 309.265229872 178.912105667 309.245052339 178.959629 309.224508701 C 179.007152333 309.203965062 179.054675667 309.183053116 179.102199 309.161775718 C 179.149722333 309.140498319 179.197245667 309.11885327 179.244769 309.096843444 C 179.292292333 309.074833618 179.339815667 309.052456821 179.387339 309.029715946 C 179.434862333 309.006975071 179.482385667 308.983867927 179.529909 308.960397427 C 179.577432333 308.936926927 179.624955667 308.913090884 179.672479 308.88889223 C 179.720002333 308.864693575 179.767525667 308.840130126 179.815049 308.815204832 C 179.862572333 308.790279538 179.910095667 308.764990221 179.957619 308.739339849 C 180.005142333 308.713689476 180.052665667 308.687675875 180.100189 308.661302031 C 180.147712333 308.634928187 180.195235667 308.608191932 180.242759 308.581096268 C 180.290282333 308.554000603 180.337805667 308.526543368 180.385329 308.49872758 C 180.432852333 308.470911793 180.480375667 308.442735297 180.527899 308.414201129 C 180.575422333 308.385666961 180.622945667 308.356772969 180.670469 308.327522207 C 180.717992333 308.298271445 180.765515667 308.268661766 180.813039 308.238696242 C 180.860562333 308.208730719 180.908085667 308.178407208 180.955609 308.147728799 C 181.003132333 308.117050391 181.050655667 308.086014947 181.098179 308.054625575 C 181.145702333 308.023236202 181.193225667 307.99149077 181.240749 307.9593924 C 181.288272333 307.927294029 181.335795667 307.894840596 181.383319 307.862035238 C 181.430842333 307.829229881 181.478365667 307.79607048 181.525889 307.762560189 C 181.573412333 307.729049898 181.620935667 307.695186605 181.668459 307.66097348 C 181.715982333 307.626760355 181.763505667 307.592195292 181.811029 307.557281476 C 181.858552333 307.522367659 181.906075667 307.487102991 181.953599 307.451490669 C 182.001122333 307.415878348 182.048645667 307.379916282 182.096169 307.343607687 C 182.143692333 307.307299091 182.191215667 307.27064188 182.238739 307.233639284 C 182.286262333 307.196636688 182.333785667 307.159286628 182.381309 307.121592349 C 182.428832333 307.08389807 182.476355667 307.045857501 182.523879 307.0074739 C 182.571402333 306.969090299 182.618925667 306.930361602 182.666449 306.891291083 C 182.713972333 306.852220563 182.761495667 306.812806165 182.809019 306.773051174 C 182.856542333 306.733296184 182.904065667 306.693198552 182.951589 306.65276158 C 182.999112333 306.612324608 183.046635667 306.571546255 183.094159 306.530429834 C 183.141682333 306.489313413 183.189205667 306.447856892 183.236729 306.406063597 C 183.284252333 306.364270303 183.331775667 306.32213821 183.379299 306.279670659 C 183.426822333 306.237203109 183.474345667 306.194398083 183.521869 306.151258936 C 183.569392333 306.108119789 183.616915667 306.064644511 183.664439 306.020836469 C 183.711962333 305.977028428 183.759485667 305.93288562 183.807009 305.888411428 C 183.854532333 305.843937235 183.902055667 305.799129663 183.949579 305.753992105 C 183.997102333 305.708854547 184.044625667 305.663385017 184.092149 305.617586921 C 184.139672333 305.571788824 184.187195667 305.525660184 184.234719 305.479204417 C 184.282242333 305.43274865 184.329765667 305.385963788 184.377289 305.33885326 C 184.424812333 305.291742733 184.472335667 305.244304579 184.519859 305.196542242 C 184.567382333 305.148779904 184.614905667 305.10069143 184.662429 305.052280274 C 184.709952333 305.003869117 184.757475667 304.955133335 184.804999 304.906076391 C 184.852522333 304.857019448 184.900045667 304.807639409 184.947569 304.757939751 C 184.995092333 304.708240093 185.042615667 304.658218892 185.090139 304.607879632 C 185.137662333 304.557540372 185.185185667 304.506881139 185.232709 304.45590543 C 185.280232333 304.404929721 185.327755667 304.353635631 185.375279 304.302026666 C 185.422802333 304.2504177 185.470325667 304.198491965 185.517849 304.146252975 C 185.565372333 304.094013985 185.612895667 304.041459856 185.660419 303.988594114 C 185.707942333 303.935728372 185.755465667 303.882549141 185.802989 303.829059958 C 185.850512333 303.775570774 185.898035667 303.721769772 185.945559 303.667660497 C 185.993082333 303.613551222 186.040605667 303.559131818 186.088129 303.50440584 C 186.135652333 303.449679863 186.183175667 303.394645466 186.230699 303.339306213 C 186.278222333 303.28396696 186.325745667 303.228321016 186.373269 303.172371954 C 186.420792333 303.116422891 186.468315667 303.060168886 186.515839 303.003613519 C 186.563362333 302.947058151 186.610885667 302.890199608 186.658409 302.833041477 C 186.705932333 302.775883346 186.753455667 302.718423826 186.800979 302.660666512 C 186.848502333 302.602909198 186.896025667 302.544852298 186.943549 302.486499418 C 186.991072333 302.428146538 187.038595667 302.369495896 187.086119 302.310551105 C 187.133642333 302.251606313 187.181165667 302.192365602 187.228689 302.132832591 C 187.276212333 302.07329958 187.323735667 302.01347251 187.371259 301.953355007 C 187.418782333 301.893237505 187.466305667 301.832827823 187.513829 301.772129594 C 187.561352333 301.711431366 187.608875667 301.650442855 187.656399 301.589167702 C 187.703922333 301.52789255 187.751445667 301.46632903 187.798969 301.40448079 C 187.846492333 301.34263255 187.894015667 301.280497877 187.941539 301.218080424 C 187.989062333 301.155662971 188.036585667 301.092961037 188.084109 301.029978279 C 188.131632333 300.966995522 188.179155667 300.903730253 188.226679 300.840186136 C 188.274202333 300.77664202 188.321725667 300.712817378 188.369249 300.648715881 C 188.416772333 300.584614385 188.464295667 300.520234368 188.511819 300.455579506 C 188.559342333 300.390924645 188.606865667 300.325993285 188.654389 300.260789108 C 188.701912333 300.19558493 188.749435667 300.130106294 188.796959 300.064356885 C 188.844482333 299.998607475 188.892005667 299.932585664 188.939529 299.86629514 C 188.987052333 299.800004617 189.034575667 299.733443764 189.082099 299.666616278 C 189.129622333 299.599788792 189.177145667 299.532693068 189.224669 299.465332805 C 189.272192333 299.397972542 189.319715667 299.330346148 189.367239 299.262457327 C 189.414762333 299.194568506 189.462285667 299.126415678 189.509809 299.05800255 C 189.557332333 298.989589423 189.604855667 298.920914429 189.652379 298.851981279 L 189.652379 274.046039"
       style="opacity:1;fill:none;fill-opacity:1;stroke:#220000;stroke-width:0.26499999;stroke-miterlimit:4;stroke-dasharray:none;stroke-dashoffset:0;stroke-opacity:1" />
    <path
       style="fill:none;stroke:#da0000;stroke-width:0.26458332px;stroke-linecap:butt;stroke-linejoin:miter;stroke-opacity:1"
       d="m 90.075474,273.999 c 11.194756,0 11.571056,0 11.571056,0 v -21.26063 z"
       id="path1253"
       inkscape:connector-curvature="0" />
    <path
       style="fill:none;stroke:#ff0000;stroke-width:0.26458332px;stroke-linecap:butt;stroke-linejoin:miter;stroke-opacity:1"
       d="m 101.64653,252.73837 9.92476,-12.04142 V 273.999 h -9.92476"
       id="path1255"
       inkscape:connector-curvature="0" />
    <path
       style="fill:none;stroke:#ff0000;stroke-width:0.26458332px;stroke-linecap:butt;stroke-linejoin:miter;stroke-opacity:1"
       d="m 111.57129,240.69695 h 13.82882 v 33.25502 l -13.82882,0.047"
       id="path1257"
       inkscape:connector-curvature="0" />
    <path
       style="fill:none;stroke:#d30000;stroke-width:0.26458332px;stroke-linecap:butt;stroke-linejoin:miter;stroke-opacity:1"
       d="m 125.40011,240.69695 8.70181,10.20698 v 23.14211 l -8.70181,-0.0941"
       id="path1259"
       inkscape:connector-curvature="0" />
    <path
       style="fill:none;stroke:#fc0000;stroke-width:0.26458332px;stroke-linecap:butt;stroke-linejoin:miter;stroke-opacity:1"
       d="m 134.10192,274.04604 12.51179,0.0941 -12.51179,-23.23618"
       id="path1261"
       inkscape:connector-curvature="0" />
    <text
       xml:space="preserve"
       style="font-style:normal;font-weight:normal;font-size:4.53463793px;line-height:1.25;font-family:sans-serif;letter-spacing:0px;word-spacing:0px;fill:#000000;fill-opacity:1;stroke:none;stroke-width:0.11336594"
       x="88.895531"
       y="291.81973"
       id="text1265"
       transform="scale(1.0404446,0.96112758)"><tspan
         sodipodi:role="line"
         id="tspan1263"
         x="88.895531"
         y="291.81973"
         style="stroke-width:0.11336594">$h$</tspan></text>
    <text
       xml:space="preserve"
       style="font-style:normal;font-weight:normal;font-size:4.5346384px;line-height:1.25;font-family:sans-serif;letter-spacing:0px;word-spacing:0px;fill:#000000;fill-opacity:1;stroke:none;stroke-width:0.11336594"
       x="98.572182"
       y="292.59982"
       id="text1265-3"
       transform="scale(1.0404446,0.96112758)"><tspan
         sodipodi:role="line"
         id="tspan1263-6"
         x="98.572182"
         y="292.59982"
         style="stroke-width:0.11336594">$h$</tspan></text>
    <text
       xml:space="preserve"
       style="font-style:normal;font-weight:normal;font-size:4.5346384px;line-height:1.25;font-family:sans-serif;letter-spacing:0px;word-spacing:0px;fill:#000000;fill-opacity:1;stroke:none;stroke-width:0.11336594"
       x="112.58678"
       y="292.06149"
       id="text1265-7"
       transform="scale(1.0404446,0.96112758)"><tspan
         sodipodi:role="line"
         id="tspan1263-5"
         x="112.58678"
         y="292.06149"
         style="stroke-width:0.11336594">$h$</tspan></text>
    <text
       xml:space="preserve"
       style="font-style:normal;font-weight:normal;font-size:4.5346384px;line-height:1.25;font-family:sans-serif;letter-spacing:0px;word-spacing:0px;fill:#000000;fill-opacity:1;stroke:none;stroke-width:0.11336594"
       x="122.62305"
       y="291.7189"
       id="text1265-35"
       transform="scale(1.0404446,0.96112758)"><tspan
         sodipodi:role="line"
         id="tspan1263-62"
         x="122.62305"
         y="291.7189"
         style="stroke-width:0.11336594">$h$</tspan></text>
    <text
       xml:space="preserve"
       style="font-style:normal;font-weight:normal;font-size:4.5346384px;line-height:1.25;font-family:sans-serif;letter-spacing:0px;word-spacing:0px;fill:#000000;fill-opacity:1;stroke:none;stroke-width:0.11336594"
       x="133.74426"
       y="291.8168"
       id="text1265-9"
       transform="scale(1.0404446,0.96112758)"><tspan
         sodipodi:role="line"
         id="tspan1263-1"
         x="133.74426"
         y="291.8168"
         style="stroke-width:0.11336594">$h$</tspan></text>
    <text
       xml:space="preserve"
       style="font-style:normal;font-weight:normal;font-size:3.89572906px;line-height:1.25;font-family:sans-serif;letter-spacing:0px;word-spacing:0px;fill:#000000;fill-opacity:1;stroke:none;stroke-width:0.09739322"
       x="78.824364"
       y="271.36389"
       id="text1311"><tspan
         sodipodi:role="line"
         id="tspan1309"
         x="78.824364"
         y="271.36389"
         style="stroke-width:0.09739322">$y_0$</tspan></text>
    <text
       xml:space="preserve"
       style="font-style:normal;font-weight:normal;font-size:3.89572906px;line-height:1.25;font-family:sans-serif;letter-spacing:0px;word-spacing:0px;fill:#000000;fill-opacity:1;stroke:none;stroke-width:0.09739322"
       x="89.875351"
       y="252.11263"
       id="text1311-2"><tspan
         sodipodi:role="line"
         id="tspan1309-7"
         x="89.875351"
         y="252.11263"
         style="stroke-width:0.09739322">$y_1$</tspan></text>
    <text
       xml:space="preserve"
       style="font-style:normal;font-weight:normal;font-size:3.89572906px;line-height:1.25;font-family:sans-serif;letter-spacing:0px;word-spacing:0px;fill:#000000;fill-opacity:1;stroke:none;stroke-width:0.09739322"
       x="102.62232"
       y="238.89528"
       id="text1311-0"><tspan
         sodipodi:role="line"
         id="tspan1309-9"
         x="102.62232"
         y="238.89528"
         style="stroke-width:0.09739322">$y_2$</tspan></text>
    <text
       xml:space="preserve"
       style="font-style:normal;font-weight:normal;font-size:3.89572906px;line-height:1.25;font-family:sans-serif;letter-spacing:0px;word-spacing:0px;fill:#000000;fill-opacity:1;stroke:none;stroke-width:0.09739322"
       x="125.29406"
       y="237.95454"
       id="text1311-3"><tspan
         sodipodi:role="line"
         id="tspan1309-6"
         x="125.29406"
         y="237.95454"
         style="stroke-width:0.09739322">$y_3$</tspan></text>
    <text
       xml:space="preserve"
       style="font-style:normal;font-weight:normal;font-size:3.89572906px;line-height:1.25;font-family:sans-serif;letter-spacing:0px;word-spacing:0px;fill:#000000;fill-opacity:1;stroke:none;stroke-width:0.09739322"
       x="134.27809"
       y="247.40894"
       id="text1311-06"><tspan
         sodipodi:role="line"
         id="tspan1309-2"
         x="134.27809"
         y="247.40894"
         style="stroke-width:0.09739322">$y_4$</tspan></text>
    <text
       xml:space="preserve"
       style="font-style:normal;font-weight:normal;font-size:3.89572906px;line-height:1.25;font-family:sans-serif;letter-spacing:0px;word-spacing:0px;fill:#000000;fill-opacity:1;stroke:none;stroke-width:0.09739322"
       x="145.61395"
       y="271.53882"
       id="text1311-6"><tspan
         sodipodi:role="line"
         id="tspan1309-1"
         x="145.61395"
         y="271.53882"
         style="stroke-width:0.09739322">$y_5$</tspan></text>
  </g>
</svg>
